<?xml version="1.0" encoding="UTF-8"?>
<svg id="Layer_2" data-name="Layer 2" xmlns="http://www.w3.org/2000/svg" viewBox="0 0 868.24 390.26">
  <defs>
    <style>
      .cls-1 {
        fill: #000;
        stroke-width: 0px;
      }
    </style>
  </defs>
  <g id="Layer_2-2" data-name="Layer 2">
    <g id="JrDve8">
      <path class="cls-1" d="M386.7,292.73c2.2-3.65,4.58-7.21,6.56-10.97,7.16-13.65,14.23-27.35,21.21-41.08,1.16-2.29,1.23-5.23,2.67-7.26,4.16-5.85,8.45-11.67,13.32-16.91,2.43-2.62,12.32,2.21,13.33,6.35,1.57,6.43,2.51,13.02,4.21,19.41,1.18,4.43,2.78,8.87,4.95,12.89,2.01,3.72,5.87,4.37,9.84,3.23,12.56-3.61,22.17-11.94,31.8-20.15,1.27-1.08,1.65-3.15,2.68-4.59,1.57-2.21,2.98-4.82,5.13-6.27,3.68-2.47,7.85-4.22,11.88-6.16.65-.31,1.66-.28,2.36-.03,6.99,2.53,14.18,4.48,18.92,11.14,4.56,6.41,7.02,6.19,12.85,1.04,1.55-1.37,4.31-1.54,6.57-1.87,3.58-.52,7.2-.78,10.81-.99,1.38-.08,3.18-.2,4.04.55.62.54.08,2.5-.06,3.81-.22,2.03-.9,4.06-.76,6.06.36,5.45,1.04,10.88,1.61,16.32.25,2.4.03,5,.92,7.14,3.16,7.63,8.19,8.67,16.43,3.44,6.83-4.33,12.04-9.87,15.29-17.68,2.56-6.17,6.9-11.64,10.72-17.24,4.33-6.34,11.52-6.48,18.11-7.55,3.29-.53,6.71-.42,10.07-.35,2.43.05,3.97.73,2.82,3.94-2.78,7.74-5.11,15.63-7.78,23.41-.84,2.43-2.07,4.76-3.35,7.01-10.34,18.33-14.91,37.91-12.93,58.93.09.97.02,2.09.49,2.85,1.31,2.13,2.86,4.11,4.32,6.15,1.68-1.37,3.59-2.53,5-4.14,16.37-18.72,27.6-40.26,34.97-63.9,1.1-3.52.66-7.89,5.83-9.05,1.09-.24,1.77-2.54,2.54-3.95,1.49-2.76,2.83-4.86,6.87-4.88,2.7-.01,5.33-2.91,8.12-4.27,1.2-.58,3.01-1.13,4.03-.64,2.44,1.19,4.37,1.7,6.6-.46.33-.32,3.41,1.05,3.53,1.88.28,1.98-.37,4.12-.79,6.17-.64,3.16-1.6,6.09,1.01,9.17,1.03,1.22.63,4.01.27,5.98-2.16,11.95-4.71,23.83-6.71,35.8-1.83,10.95-1.67,21.95.83,32.84,1.25,5.44,3.42,6.38,6.78,2.05,7.33-9.45,14.93-18.9,20.71-29.3,13.39-24.1,25.82-48.73,38.53-73.2,10.3-19.84,20.83-39.58,30.55-59.71,13.4-27.75,26.26-55.77,39.06-83.8,2.73-5.99,4-12.62,6.34-18.81,3.2-8.46,6.54-16.88,10.34-25.08,1.43-3.09,4.28-5.52,5.87-7.49,4.03,4.48,7.75,8.58,11.41,12.74.48.54.95,1.46.83,2.09-1.84,9.99-3.55,20.02-5.78,29.93-1.94,8.65-4.52,17.17-6.76,25.76-.73,2.8-1.21,5.67-1.89,8.49-.34,1.42-1.2,2.78-1.24,4.19-.33,11.74-3.37,23-6.26,34.24-1.77,6.86-4.41,13.5-6.65,20.24-.56,1.69-1.64,3.41-1.56,5.08.71,15.87-6.85,29.9-10.03,44.89-2.85,13.44-7.36,26.53-11.11,39.79-.52,1.82-.89,3.68-1.52,6.34,13.3-1.63,24.25-7.04,34.68-13.92l.96,1.43c-1.13,1.64-2.24,3.3-3.4,4.91-3.75,5.17-7.63,10.26-2.89,16.96.43.61-.15,2.87-.8,3.15-3.34,1.47-3.86,4.2-3.73,7.25.16,3.66-1.39,5.82-4.98,6.65-1.09.25-2.56.6-3.04,1.4-3.17,5.3-9.04,6.57-13.89,9.09-3.38,1.76-7.67,2-11.61,2.39-2.96.29-4.17,1.2-3.47,4.23,2.99,13.08.2,25.79-2.49,38.51-1.24,5.86-2.58,11.72-3.46,17.64-1.57,10.47-10.08,15.44-17,21.54-2.27,2-11.26-.57-13.33-3.38-3.09-4.18-8.55-7.63-4.3-14.35.91-1.43.17-4.8-1.01-6.37-.98-1.3-3.73-1.28-6.29-1.17-4.05-12.29-11.5-24.31-9-38.78,1.33-7.73,1.94-15.58,3.05-24.89-1.59,1.83-2.38,2.46-2.8,3.28-4.75,9.4-9.2,18.95-14.25,28.19-1.97,3.61-5.16,6.59-7.93,9.73-5.81,6.6-10.37,14.09-18.42,18.95-9.98,6.02-20.57,7.53-31.63,7.71-4.99.08-9.37-2.49-11.69-6.85-3.78-7.11-6.85-14.59-10.25-21.9-.63-1.35-1.36-2.64-2.16-4.18-4.14,5.14-7.62,9.95-11.62,14.28-3.4,3.68-7.48,6.73-11.1,10.22-5.81,5.6-19.65,3.39-25.34.77-14.39-6.63-15.13-20.11-17.58-32.64-1.23-6.3-.84-12.93-1.06-19.41-.16-4.72-1.2-5.32-5.46-3.42-3.7,1.65-7.54,3-11.39,4.26-4.14,1.36-6.19,3.3-7.11,8.31-1.27,6.84-4.99,13.25-7.86,19.76-1.76,3.99-3.63,7.97-5.9,11.68-6.88,11.26-15.63,20.98-25.58,29.62-.24.21-.55.36-.79.58-3.11,2.78-5.38,6.42-11,4.45-3.91-1.38-7.71-2.08-11.37-4.67-11.26-7.98-15.42-20.21-20.42-31.93-6.96-16.33-7.34-33.32-4.31-50.61.52-2.98-.32-6.2-.53-9.31-.52-.34-1.04-.67-1.55-1.01-3.36,2.41-6.48,5.33-10.15,7.09-3.19,1.53-6.98,2.33-10.54,2.44-7.42.24-13.23-3.9-18.79-8.22-4.96-3.85-5.01-3.8-7.71,1.98-4.26,9.11-8.72,18.12-12.95,27.24-1.5,3.23-2.52,6.67-3.85,9.98-1.51,3.75-2.64,7.79-4.83,11.11-2.95,4.49-5.76,8.5-5.33,14.45.33,4.52-2.63,6.5-7.73,5.19-5.44-1.4-8.79.5-12.42,4.13-2.29,2.28-5.57,3.95-8.71,4.91-4.61,1.41-9.48,2.51-14.27,2.65-3.15.09-7.37-.8-9.36-2.9-7.92-8.35-14.96-17.09-15.83-29.7-1.24-17.75,1.73-34.93,4.98-52.13.7-3.68,3.14-7.02,3.93-10.69.82-3.83.62-7.87.87-11.82-2.71-.53-4.72-1.02-6.77-1.31-3.5-.5-6.06.95-7.45,4.16-1.29,2.97-2.34,6.04-3.57,9.04-1.88,4.58-4.23,8.66-9.52,10.23-1.38.41-2.92,1.81-3.5,3.14-3.37,7.73-9.92,12.46-15.74,18.08-6.1,5.88-12.79,10-20.44,13.47-6.7,3.03-12.92,3.88-19.71,1.58-3.21-1.08-4.32-.06-5.37,3.26-4.58,14.52-8.89,29.21-17.24,42.2-.72,1.11-2.28,1.64-3.21,2.67-1.22,1.35-2.21,2.9-3.25,4.41-.49.72-.66,1.79-1.3,2.26-4.38,3.24-4.46,5.38-.51,8.91-3.15,2.11-6.48,4.16-9.59,6.48-3,2.23-9.01,2.29-11.57-.82-5.72-6.93-11.03-13.82-13.97-22.9-2.87-8.83-2.37-17.5-3.17-26.26-2.06-22.66-1.88-45.41-.24-68.01.87-12,3.88-23.69,12.72-33.88,6-6.91,10.02-9.92,19.24-7.23,9.12,2.66,16.95,5.44,19.91,15.39.11.37.67.61,1.08.96,13.25-59.83,26.46-119.52,40.04-180.84-2.72,3.6-4.64,6.14-6.56,8.68-3.8,5.03-8.24,9.74-7.03,16.94.15.86-1.35,2.47-2.43,2.98-4.95,2.32-8.4,5.95-10.78,10.8-5.75,11.74-12.95,23-17.02,35.28-4.17,12.57-12.95,22.07-18.45,33.7-9.97,21.08-21.43,41.5-32.95,61.8-4.02,7.08-10.1,12.98-15.14,19.5-2.04,2.64-3.58,5.7-5.78,8.2-1.77,2.01-4.16,3.48-6.33,5.13-1.22.93-3.08,1.41-3.75,2.6-7.52,13.38-14.86,26.86-22.25,40.31.02,19.08-12.55,32.59-21.64,47.45-8.2,13.4-19.32,24.01-35.58,27.62-8.74,1.94-16.88,1.3-24.95-3.06-19.17-10.37-30.97-26.17-36.36-47.08-3.77-14.62-8.22-29.2-7.43-44.45.54-10.44,2.56-20.8,3.98-31.19.1-.73.66-1.47,1.17-2.06,2.27-2.63,4.6-5.22,6.4-7.26,3.43,3.31,7.31,6.68,10.69,10.49,1.25,1.42,1.86,3.87,1.87,5.86.02,21.3,8.94,39.95,17.28,58.79,2.93,6.63,6.7,12.58,12.67,16.95,5.7,4.17,8.55,4.44,13.69-.5,5.25-5.04,10.51-10.29,14.69-16.2,14.42-20.4,28.67-40.94,42.4-61.8,9.37-14.22,18.06-28.91,26.56-43.68,20.72-36.01,40.78-72.41,61.9-108.19,8.47-14.34,18.88-27.56,28.65-41.12,10.62-14.72,21.5-29.26,32.32-43.84,4.34-5.85,8.62-11.78,13.31-17.35,5.17-6.13,10.56-12.25,20.09-9.89,3.22.8,5.04,2.18,5.14,5.89.2,7.59,1.55,15.2,1.15,22.74-.62,11.75-2.35,23.34-6.41,34.62-2.38,6.6-2.65,13.94-4.03,20.92-3.49,17.63-7.32,35.19-10.51,52.87-2,11.13-2.94,22.44-4.66,33.62-.58,3.76-2.27,7.33-3.17,11.06-1.63,6.76-2.99,13.58-4.57,20.35-1.06,4.56-2.62,9.02-3.36,13.62-.71,4.41-.8,8.94-.88,13.42-.06,3.03,0,5.33-2.67,8.08-2.54,2.63-2.74,7.59-3.77,11.59-.95,3.71-1.65,7.49-2.41,11.25-1.15,5.7-2.39,11.38-3.3,17.11-.43,2.7,1.02,4.28,3.76,2.75,3.65-2.03,7.84-3.79,10.51-6.8,10.95-12.37,21.12-25.42,32.17-37.69,4.91-5.45,11.25-9.62,16.88-14.44,1.08-.93,2.03-2.1,2.77-3.32,16.29-26.95,32.79-53.78,48.67-80.96,5.12-8.77,8.38-18.61,12.91-27.74,3.09-6.23,7.64-11.81,10.23-18.21,3.15-7.78,6.7-15.35,13.67-19.85,5.73-3.7,6.97-7.37,4.63-13.28-.43-1.09.29-2.93.98-4.13,4.99-8.65,12.73-14.12,22-16.98,2.36-.73,5.76,1.72,8.62,2.88,2.24.91,4.4,2.02,6.56,3.13,1.73.89,4.65,1.72,4.84,2.92.6,3.76,2.8,5.68,5.43,8.08,5.1,4.66,8.25,10.49,5.62,17.86-.38,1.06-.75,2.21-.72,3.31.48,21.66-8.6,40.27-18.86,58.42-3.87,6.86-8.55,13.26-12.81,19.9-.59.93-1.11,2.01-1.29,3.08-3.46,20.65-16.58,34.96-31.41,48.27-7.68,6.89-15.19,14.01-22.21,21.56-2.02,2.18-2.54,6.15-2.9,9.4-.8,7.08-1.03,14.22-1.56,21.32-.23,3.15.35,5.48,3.61,7.18,1.52.79,2.93,3.66,2.78,5.44-.51,5.76-1.77,11.45-2.75,17.16-.31,1.79-.65,3.58-.98,5.37.4.16.8.31,1.2.47ZM197.23,320.21l-1.79.57c1.87,5.24,3.24,10.74,5.84,15.59,1.07,2.01,4.85,3.73,7.24,3.55,2.39-.18,5.8-2.45,6.63-4.61,2.04-5.36,2.82-11.2,4.19-16.83,1.63-6.72,3.53-13.38,4.95-20.14.75-3.56,1.83-7.65.78-10.85-1.54-4.66-4.69-8.85-7.47-13.04-2.38-3.58-6.22-4.52-9.17-1.5-4.7,4.8-10.38,9.79-12.39,15.78-2.19,6.55-.9,14.34-.69,21.58.1,3.32,1.23,6.61,1.89,9.91ZM520.4,336.62c.6-.1,1.21-.19,1.81-.29.5-.59,1.17-1.1,1.46-1.78,5.36-12.66,10.73-25.32,15.93-38.05.57-1.38.48-3.27.09-4.77-1.67-6.4-3.49-12.76-5.42-19.08-1.26-4.14-2.61-8.29-4.36-12.24-.45-1.03-2.53-1.34-3.86-1.98-.18,1.32-.36,2.64-.55,3.97-.26,1.82.15,4.58-.89,5.32-9.12,6.48-10.14,16.41-11.47,26.12-1.38,10.09.27,20.05,2.66,29.83,1.08,4.43,3.04,8.64,4.6,12.95ZM438.43,64.59c.62.13,1.24.26,1.86.39,3.02-2.27,6.78-16.48,5.23-20.01-.51-1.16-1.26-2.21-1.9-3.32-.55.08-1.1.17-1.64.25-1.18,7.56-2.36,15.12-3.55,22.68ZM612.22,297.53c-5.35,8.23-2.07,32.44,5.62,35.29-6.15-11.12-6.02-23.04-5.62-35.29ZM536.46,245.23c-.58-.24-1.16-.49-1.74-.73-2.23,1.83-4.8,3.4-6.54,5.61-.75.95-.17,3.45.57,4.85.4.77,3.38,1.2,3.47,1,1.57-3.51,2.88-7.13,4.24-10.73ZM378.58,300.9c.69.01,1.39.03,2.08.04.64-3.71,3.97-7.29-.95-11.33-.38,3.76-.76,7.52-1.14,11.28Z"/>
    </g>
  </g>
</svg>