<?xml version="1.0" encoding="UTF-8"?>
<svg id="Layer_2" data-name="Layer 2" xmlns="http://www.w3.org/2000/svg" viewBox="0 0 374.13 654.51">
  <defs>
    <style>
      .cls-1 {
        fill: #000;
        stroke-width: 0px;
      }
    </style>
  </defs>
  <g id="Layer_1-2" data-name="Layer 1">
    <g id="njmOgI">
      <g>
        <path class="cls-1" d="M370.37,494.51c1-.65,2-1.3,2.99-1.94.3.35.7.6.7.85-.43,15.31,2.19,31.13-5.8,45.32-3.29,5.84-8.25,10.7-12.11,16.24-5.4,7.74-10.18,15.94-15.87,23.45-1.87,2.48-5.56,4.43-8.7,4.94-13.36,2.2-26.15,1.25-38-6.83-6.37-4.35-13.97-6.87-20.89-10.45-3.45-1.79-5.41-.55-6.61,2.56-1.67,4.33-2.84,8.86-4.7,13.1-7,15.96-14.02,31.92-21.4,47.71-2.63,5.64-6.12,10.91-9.6,16.1-1.19,1.77-3.48,2.87-5.4,4.05-2.5,1.53-5.09,2.94-7.74,4.19-1.12.53-2.51.75-3.76.71-13.48-.43-26.02-3.59-37.65-10.99-9.07-5.77-19.13-9.95-28.5-15.29-13.29-7.58-21.81-18.84-23.68-34.3-.89-7.35-1.1-14.82-.96-22.22.05-2.78,1.88-5.56,3.05-8.28,2.55-5.92,4.95-11.92,7.9-17.64,1.47-2.85,3.57-5.89,6.21-7.52,4.6-2.85,9.69-5.11,14.86-6.71,1.89-.58,4.78,1.08,6.83,2.35,1.91,1.19,3.24,3.29,4.95,4.84,4.36,3.96,4.49,8.75.22,12.94-1.66,1.63-3.22,3.43-5.1,4.75-10.81,7.58-9.64,26.13-.54,34.83,11.48,10.97,24.33,13.37,39,10.32,5.01-1.04,9.94-2.5,14.92-3.71,6.44-1.57,9.09-6.42,10.1-12.26,1.94-11.12,2.5-22.59,5.56-33.36,2.77-9.78-2.5-16.78-5.28-24.71-3.83-10.93-10.84-19.96-17.48-29.35-6.06-8.57-10.77-18.33-14.73-28.1-4.97-12.27-8.73-25.04-12.71-37.69-3.43-10.89-6-22.07-9.77-32.83-3.56-10.17-8.07-20.02-12.38-29.91-2.04-4.69-5.6-5.04-8.69-1.04-2.03,2.62-4.3,5.26-5.48,8.28-1.19,3.03-2.27,6.84-1.47,9.78,1.99,7.33-1.88,12.6-6.24,16.5-4.02,3.59-4.4,8.38-6.97,12.31-2.05,3.12-2.98,7.01-4.17,10.63-1.92,5.82-7.32,8.28-11.23,12.21-5.03,5.06-11.27,6.34-17.89,7.16-5.18.65-10.31,1.69-15.49,2.39-1.24.17-2.57-.34-3.87-.54.52-2.12,1.81-5.32,1.31-5.63-3.61-2.22-7.47-4.17-11.48-5.53-1.87-.63-4.26.18-6.39.47-10.23,1.39-20.28.22-28.6-5.86-5.61-4.1-10.2-9.92-14.38-15.61-4.2-5.73-7.25-12.3-10.92-18.43-6.77-11.32-7.25-23.5-5.46-36.15,1.06-7.48,1.16-15.09,2.18-22.58,1.23-9.01,2.82-17.99,4.55-26.92,2.78-14.33,5.78-28.62,8.74-42.92,3.99-19.29,8.37-38.51,11.93-57.87,2.22-12.07,2.8-24.43,4.87-36.54,3.84-22.48,6.46-45.04,6.17-67.88-.23-18.07-3.13-35.62-10.11-52.39-4.32-10.39-3.85-21.56-3.78-32.36.05-7.26,3.08-14.56,9.93-19.18,3.81-2.57,7.16-2.77,10.74.38,6,5.29,10.53,11.28,11.82,19.51.35,2.22,2.17,4.43,3.8,6.19,11.43,12.35,23.06,24.89,27.74,41.37,4.31,15.17,13.09,27.77,22.24,39.56,5.86,7.55,8.7,16.15,13.85,23.69.75,1.09,1.31,2.59,2.36,3.15,10.1,5.38,15.32,15.92,24.13,22.71,4.9,3.78,8.86,8.77,13.67,12.71,1.5,1.23,4.51,1.46,6.57.99,4.26-.97,7.34.89,10.48,3.08.82.57,1.57,1.25,2.44,1.72,2.79,1.53,5.64,4.96,8.79,2.19,1.42-1.25.77-4.84,1.11-7.75,2.6.32,4.91,1.3,4.86,5.18-.05,4.34,2.18,4.58,5.6,2.47,1.35,4.26,4.42,4.75,8.45,5.29,4.9.65,9.5,3.38,14.28,5.08,6.97,2.47,13.94,4.99,21,7.17,4.27,1.32,8,2.64,6.14,9.26,7.28-2.28,13.81-2.4,19.5,2.09,2.6,2.05,5.02,4.33,7.42,6.62,8.76,8.35,17.61,16.63,26.16,25.2,3.24,3.25,6.03,7.06,8.5,10.95,1.13,1.78,1.37,4.37,1.36,6.59-.03,5.39.19,10.55,4.21,14.79.69.72,1.08,2.16.94,3.17-1.02,7.53-2.39,15.02-3.28,22.56-.65,5.57-.91,11.21-1.03,16.83-.1,4.55.47,9.12.31,13.66-.06,1.66-.94,3.8-2.19,4.82-8.66,7.05-11.15,17.89-16.49,26.92-2.85,4.83-5.01,9.5-10.66,11.66-4.77,1.83-9.4,4.12-13.92,6.52-1.8.95-4.28,2.57-4.52,4.17-.62,4.19-3.2,5.35-6.52,5.33-9.19-.04-18.38-.42-27.57-.62-4.64-.1-9.31-.37-13.92,0-1.19.1-2.9,2.2-3.15,3.6-.32,1.82.19,4.04,1.01,5.77,12.05,25.52,23.94,51.12,36.43,76.43,11.12,22.52,26.11,42.04,47.45,55.96,4.72,3.08,9.81,5.61,14.86,8.12,8.92,4.44,16.72-.23,18.76-10.04,2.18-10.53,1.07-20.8-.41-31.16-.83-5.78-2.37-6.83-7.96-5.42-5.61,1.42-11.2,2.98-16.73,4.69-5.29,1.63-11.95-1.19-12.56-6.51-.99-8.56-1.48-17.35,4.08-24.97.48-.66,1.04-1.4,1.73-1.75,10.36-5.22,20.57-10.9,32.66-10.93,1,0,2-.02,2.99.02,15.31.6,14.07-2.22,21.01,15.47,1.45,3.7,3.19,7.32,4.26,11.14,1.48,5.29,6.09,10.38.52,16.39.55.18,1.1.36,1.65.54ZM313.73,553.01c6.07,4.37,9.96,4,13.99-2.59-4.7.91-9.41,1.81-14.11,2.72,1.47-2.26,2.94-4.51,5.09-7.83-2.72-2.95-5.44-6.64-8.85-9.49-7.7-6.42-16.1-12.03-23.56-18.7-7.1-6.36-13.4-13.63-20-20.53-2.11-2.2-4.08-4.53-6.12-6.8l-1.5.17c.22,2.65-.42,5.83.82,7.86,4.49,7.33,9.39,14.35,10.7,23.17.21,1.43,1.62,2.68,2.46,3.99,2.66-1.56,4.83-2.82,6.95-4.06-.25,3.27-1.5,6.83-.45,7.76,7.22,6.32,15.29,11.52,24.85,13.52,3.03.63,4.03,1.37,2.29,4.06-1.87,2.89-.16,4.4,2.13,5.43,1.64.73,3.51.91,5.3,1.32ZM77.13,252.81c.53,3.81.52,6.45,1.32,8.82,1.21,3.58-.99,9.6-4.19,11.54-1.86,1.13-3.79,2.89-4.63,4.83-1.62,3.75-2.88,7.76-3.57,11.79-.81,4.69-2.35,10.06-.85,14.12,1.61,4.37.8,7.44-.39,11.24-1.66,5.31-3.34,10.71-4.04,16.2-1.87,14.69,9.83,22.68,17.07,32.79.94,1.31,3.51,1.61,5.4,2.02,2.09.46,4.29.37,6.4.76,6.41,1.16,12.74-2.41,15.09-8.63,2.72-7.21,5.55-14.39,8.1-21.67,1.57-4.49,2.55-9.19,4.06-13.7,2.53-7.52,4.24-14.8,3.03-23.11-1.12-7.73-1.84-16.99,1.4-23.51,4.58-9.21,4.02-17.08,1.89-26.24-.91-3.89.06-9.44,2.38-12.61,4.42-6.05,18.36-4.46,22.56,1.84,8.65,12.95,16.93,26.16,25.9,38.88,6.15,8.72,11.48,18.17,21.58,23.65,6.59,3.58,12.58,8.48,18.28,13.43,6.89,5.99,19.95,8.28,28.08,4.01,10.24-5.39,14.24-15.02,18.78-25.06,3.78-8.37,1.5-14-2.96-20.15-1.63-2.25-3.2-4.95-5.48-6.19-2.17-1.18-5.73-1.66-7.73-.62-1.33.69-1.35,4.59-1.32,7.05.02,1.92,1.02,3.82,1.58,5.74-.38.25-.75.49-1.13.74-1.27-.89-2.58-1.74-3.82-2.68-7.77-5.91-15.46-11.92-23.3-17.74-7.84-5.82-15.9-11.35-23.68-17.26-1.54-1.17-2.25-3.44-3.34-5.2-3.79-1.23-8.17-2.21-12.16-4.05-9.5-4.38-19.14-8.59-28.09-13.95-7.89-4.72-15.58-10.2-22.16-16.58-9.5-9.2-17.83-19.6-26.88-29.28-1.19-1.27-3.83-2.1-5.45-1.71-1.1.27-2.3,3.07-2.21,4.67.18,3.04,1.8,6.03,1.82,9.04.03,4.96-.99,9.93-1.09,14.9-.14,6.42-1.29,13.38.74,19.14,2.04,5.81-.82,6.36-4.25,8.47-.57-1.15-.79-1.97-1.3-2.53-.93-1.04-2.03-1.93-3.05-2.88-1,1.66-2.68,3.27-2.78,4.98-.07,1.3,1.9,2.68,2.9,4.08,1.06,1.49,2.04,3.04,3.34,4.99-2.44.3-3.61.44-5.21.63,1.31,6.07,5.73,11.9-.25,17.39-1.84-.69-3.73-1.39-6.38-2.38ZM55.58,199.68c1.32,7.78-7.4,6.51-9.95,11.09,3.62,1.6,6.67,2.94,9.91,4.37,5.18-3.35,8.2-9.5,7.01-14.52-1.21-5.07-5.69-4.46-9.2-5.03-2.68-.44-6.13-1.54-8.25,3.02,3.88.39,7.22.73,10.48,1.06ZM63.4,173.14c-.39-1.57-.78-2.51-.84-3.47-.29-4.87-3.83-9.78.2-14.68.24-.29-1.14-2.74-2.11-3.03-3.11-.94-6.07-.78-8.23,2.47-2.13,3.21-.39,5.55,1.11,8.15,1.24,2.15,2.64,4.31,3.3,6.65.94,3.34,2.69,4.58,6.57,3.91ZM301.48,284.17c-.99-.06-1.48-.03-1.94-.14-1.65-.38-3.3-.81-4.94-1.22,1,1.5,1.97,3.01,3,4.48.28.4.72.68,1.1,1,3.1,2.54,7.37,1.41,10.94-2.54,3.24-3.58,1.03-5.73-1.7-8.4-.89,1.7-1.63,3.1-2.36,4.5l-1.97-1.32c.38-1.99.76-3.98,1.16-6.06-5.02,1.11-5.61,2.75-3.31,9.7ZM296.64,262.96c.19.08.37.15.56.23,0,.5-.19,1.12.03,1.47,1.04,1.58,2.19,3.08,3.3,4.62.68-1.79,1.41-3.57,2-5.39.12-.38-.24-.95-.43-1.4-.87-1.99-1.77-3.97-2.66-5.96-.94,2.15-1.87,4.29-2.81,6.44ZM221.76,334.16c1.5-1.31,2.85-2.48,4.2-3.65-1.43-.65-2.81-1.48-4.3-1.92-1.98-.59-4.03-.93-6.07-1.27-.85-.14-1.76.03-2.64.06.22,1.02.12,2.6.73,2.96,2.35,1.38,4.93,2.37,8.09,3.81ZM60.05,183.73c-.19-.47-.39-.95-.58-1.42-2.23,0-4.49-.23-6.66.14-.64.11-.99,1.9-1.48,2.92,1.87.29,3.78.93,5.6.73,1.11-.12,2.08-1.53,3.11-2.37ZM132.65,247.84c-1.64-1.11-3.15-2.46-3.42-2.25-1.3,1.02-2.57,2.35-3.17,3.84-.2.49,1.66,1.81,2.58,2.75,1.14-1.23,2.28-2.47,4.01-4.34ZM288.8,549.04c-1.68-6.35-3.17-6.77-8.72-2.96,2.85.97,5.43,1.84,8.72,2.96ZM310.34,295.03c-1.66-1.27-2.57-2.48-3.27-2.37-1.05.16-1.97,1.25-2.94,1.95.71.75,1.37,2.05,2.13,2.1,1.03.07,2.13-.81,4.08-1.68ZM40.56,258.85c.71.14,1.42.28,2.13.42,1.93-1.83,1.48-4.15.68-6.53-.53-.11-1.07-.21-1.6-.32-.4,2.14-.81,4.28-1.21,6.42ZM233.27,588.57c.79.16,1.59.33,2.38.49.36-1.65.77-3.3.97-4.97.01-.1-1.66-.41-2.55-.62-.27,1.7-.53,3.4-.8,5.1Z"/>
        <path class="cls-1" d="M74.56,286.99c.88-1.79,1.3-4.5,2.71-5.21,4.84-2.43,5.9-6.74,7.05-11.29.57-2.23,1.68-4.32,2.79-7.07,4.61,7.26-1.76,20.08-10.98,24.28-.52-.24-1.05-.48-1.57-.72Z"/>
      </g>
    </g>
  </g>
</svg>