<?xml version="1.0" encoding="utf-8"?>
<!-- Generator: Adobe Illustrator 28.2.0, SVG Export Plug-In . SVG Version: 6.00 Build 0)  -->
<svg version="1.1" id="Layer_1" xmlns="http://www.w3.org/2000/svg" xmlns:xlink="http://www.w3.org/1999/xlink" x="0px" y="0px"
	 viewBox="0 0 101.15 35" style="enable-background:new 0 0 101.15 35;" xml:space="preserve">
<g>
	<g>
		<path d="M81.41,24.23c-0.19,0.03-0.32-0.02-0.32-0.22c-0.21-0.08-0.37-0.15-0.46-0.36c-0.07-0.16-0.26-0.28-0.41-0.4
			c-0.19-0.17-0.39-0.32-0.58-0.48c-0.03-0.03-0.08-0.06-0.11-0.06c-0.25,0.01-0.41-0.15-0.57-0.3c-0.04-0.04-0.09-0.06-0.09-0.06
			c-0.2,0.02-0.37,0.05-0.54,0.05c-0.33,0.01-0.67,0-0.99,0c-0.08,0.33-0.06,0.37,0.22,0.41c0.05,0.01,0.11,0.01,0.16,0.03
			c0.24,0.09,0.48,0.19,0.75,0.29c-0.07,0.02-0.11,0.04-0.15,0.04c-0.32-0.04-0.64-0.09-0.97-0.13c-0.21-0.03-0.38,0.04-0.53,0.17
			c-0.05,0.04-0.08,0.11-0.09,0.18c-0.03,0.19,0.02,0.4-0.12,0.58c-0.05,0.06-0.01,0.19-0.02,0.29c0,0.16,0.01,0.32-0.09,0.46
			c-0.04,0.05-0.04,0.14-0.04,0.2c0.01,1,0.02,2,0.04,3c0.01,0.33,0.06,0.67,0.12,1c0.05,0.24,0.25,0.4,0.47,0.42
			c0.4,0.04,0.81,0.08,1.21-0.03c0.25-0.07,0.52-0.1,0.77-0.15c0.13-0.03,0.25-0.08,0.37-0.13c0.42-0.19,0.82-0.4,1.21-0.65
			c0.65-0.42,1.19-0.97,1.77-1.46c0.16-0.13,0.26-0.32,0.39-0.48c0.11-0.13,0.22-0.26,0.33-0.4c0.18-0.25,0.41-0.45,0.61-0.68
			c0.19-0.2,0.33-0.43,0.49-0.65c0.05-0.06,0.11-0.12,0.16-0.18c0.25-0.31,0.49-0.63,0.75-0.93c0.19-0.22,0.32-0.48,0.54-0.68
			c0.15-0.14,0.24-0.35,0.36-0.52c0.06-0.09,0.13-0.18,0.2-0.27c0.04-0.05,0.08-0.1,0.12-0.16c0.02-0.03,0.02-0.08,0.05-0.09
			c0.22-0.1,0.27-0.33,0.4-0.5c0.06-0.07,0.15-0.12,0.25-0.19c0.08-0.17,0.19-0.38,0.34-0.56c0.11-0.13,0.19-0.28,0.29-0.42
			c0.13-0.17,0.28-0.32,0.38-0.51c0.24-0.44,0.62-0.76,0.92-1.14c0.14-0.18,0.26-0.38,0.4-0.56c0.09-0.12,0.22-0.2,0.31-0.33
			c0.18-0.25,0.4-0.47,0.6-0.71c0.2-0.24,0.4-0.47,0.55-0.75c0.15-0.27,0.35-0.52,0.49-0.79c0.18-0.33,0.43-0.61,0.57-0.96
			c0.08-0.2,0.23-0.38,0.32-0.59c0.06-0.14,0.21-0.24,0.31-0.38c0.09-0.13,0.17-0.28,0.25-0.42c0.02-0.04,0.05-0.1,0.08-0.12
			c0.25-0.1,0.36-0.33,0.5-0.52c0.13-0.17,0.21-0.38,0.39-0.53c0.15-0.12,0.22-0.33,0.35-0.47c0.2-0.22,0.29-0.51,0.46-0.74
			c0.1-0.14,0.15-0.33,0.33-0.42c0.04-0.02,0.09-0.08,0.09-0.12c0.04-0.23,0.2-0.38,0.34-0.54c0.17-0.21,0.39-0.39,0.51-0.62
			c0.18-0.33,0.37-0.64,0.51-0.99c0.16-0.42,0.26-0.86,0.46-1.27c0.04-0.09,0.09-0.19,0.14-0.28c0.13-0.27,0.27-0.55,0.3-0.86
			c0.01-0.06,0.08-0.11,0.1-0.17c0.15-0.32,0.34-0.63,0.36-1c0.01-0.15,0.08-0.25,0.21-0.31c0.31-0.15,0.45-0.41,0.52-0.73
			c0.04-0.18,0.11-0.35,0.19-0.51c0.23-0.47,0.46-0.94,0.73-1.38c0.26-0.43,0.55-0.84,0.96-1.15c0.03-0.02,0.06-0.06,0.08-0.1
			c0.1-0.15,0.24-0.22,0.41-0.19c0.18,0.04,0.26,0.2,0.3,0.37c0.03,0.11,0.05,0.24-0.08,0.34c-0.05,0.04-0.07,0.16-0.06,0.24
			c0.04,0.32-0.05,0.6-0.24,0.86c-0.01,0.01-0.02,0.03-0.02,0.05c-0.06,0.23-0.15,0.47-0.18,0.7c-0.03,0.26-0.1,0.5-0.18,0.74
			c-0.02,0.07-0.11,0.13-0.18,0.21c0.08,0.2,0.07,0.4-0.05,0.61c-0.03,0.05-0.04,0.12-0.04,0.18c-0.01,0.3-0.06,0.59-0.26,0.84
			c-0.01,0.01-0.02,0.03-0.02,0.05c-0.06,0.27-0.12,0.53-0.18,0.8c-0.06,0.28-0.06,0.58-0.17,0.82c-0.13,0.28-0.08,0.63-0.36,0.84
			c-0.03,0.02-0.02,0.1-0.03,0.15c0.33,0.18,0.36,0.35,0.21,0.68c-0.1,0.23-0.28,0.44-0.22,0.74c-0.06,0.01-0.11,0.02-0.16,0.03
			c-0.22,0.04-0.33,0.16-0.3,0.39c0.02,0.14-0.02,0.24-0.12,0.32c-0.13,0.1-0.18,0.24-0.15,0.4c0.04,0.28-0.12,0.5-0.23,0.73
			c-0.17,0.38-0.41,0.74-0.51,1.15c-0.02,0.07-0.05,0.13-0.08,0.19c-0.12,0.27-0.25,0.54-0.35,0.82c-0.06,0.14-0.07,0.31-0.12,0.45
			c-0.07,0.2-0.17,0.38-0.26,0.58c-0.05,0.12-0.11,0.24-0.14,0.37c-0.08,0.41-0.28,0.77-0.47,1.12c-0.01,0.02-0.02,0.05-0.02,0.08
			c-0.01,0.23-0.17,0.4-0.26,0.6c-0.08,0.18-0.13,0.38-0.2,0.56c-0.03,0.09-0.08,0.17-0.13,0.26c-0.14,0.29-0.29,0.57-0.42,0.86
			c-0.08,0.17-0.11,0.37-0.19,0.54c-0.11,0.25-0.24,0.48-0.36,0.72c-0.04,0.08-0.08,0.16-0.09,0.24c-0.01,0.14-0.03,0.27-0.11,0.4
			c-0.08,0.13-0.14,0.28-0.17,0.43c-0.08,0.32-0.26,0.59-0.4,0.88c-0.02,0.04-0.05,0.08-0.06,0.12c-0.02,0.11-0.06,0.23,0.05,0.32
			c0.11,0.1,0.21,0.03,0.32-0.01c0.27-0.11,0.52-0.24,0.8-0.31c0.15-0.04,0.29-0.14,0.44-0.22c0.33-0.17,0.64-0.38,1.01-0.48
			c0.11-0.03,0.22-0.11,0.32-0.17c0.44-0.23,0.88-0.46,1.32-0.69c0.28-0.15,0.55-0.3,0.82-0.44c0.07-0.04,0.17-0.04,0.3-0.07
			c-0.01,0.11,0.01,0.22-0.04,0.27c-0.18,0.21-0.28,0.48-0.53,0.64c-0.12,0.08-0.18,0.25-0.28,0.37c-0.19,0.2-0.39,0.4-0.58,0.6
			c-0.23,0.24-0.24,0.3-0.12,0.58c-0.03,0.06-0.08,0.13-0.1,0.2c-0.03,0.18-0.14,0.31-0.28,0.4c-0.17,0.12-0.27,0.27-0.35,0.46
			c-0.08,0.17-0.13,0.32-0.11,0.48c-0.25,0.21-0.49,0.41-0.73,0.6c-0.25,0.19-0.5,0.37-0.75,0.55c-0.01,0.01-0.02,0-0.02,0.01
			c-0.27,0.29-0.54,0.57-0.69,0.95c-0.01,0.04-0.03,0.09-0.06,0.11c-0.27,0.21-0.5,0.46-0.81,0.62c-0.48,0.24-0.97,0.42-1.49,0.55
			c-0.22,0.05-0.36,0.21-0.45,0.41c-0.08,0.17-0.17,0.34-0.26,0.51c-0.06,0.13-0.12,0.25-0.18,0.38c-0.14,0.31-0.29,0.63-0.43,0.95
			c-0.01,0.02-0.02,0.03-0.02,0.05c0.02,0.37-0.29,0.63-0.35,0.98c-0.04,0.2-0.19,0.39-0.29,0.58c-0.09,0.18-0.19,0.35-0.26,0.54
			c-0.14,0.34-0.35,0.62-0.64,0.84c-0.21,0.16-0.42,0.31-0.65,0.47c-0.31-0.2-0.6-0.39-0.9-0.58c-0.22,0.28-0.2,0.53,0.02,0.79
			c0.03,0.04,0.03,0.12,0.02,0.17c-0.01,0.08-0.04,0.15-0.08,0.26c0.09,0.09,0.19,0.19,0.3,0.3c-0.09,0.38-0.15,0.82-0.71,0.92
			c-0.06-0.04-0.13-0.1-0.22-0.17c0-0.27,0-0.54,0-0.81c0-0.12,0-0.25-0.09-0.35c-0.03-0.03-0.05-0.08-0.05-0.12
			c-0.01-0.23-0.16-0.4-0.25-0.6c-0.03-0.06-0.07-0.13-0.07-0.2c0-0.31-0.08-0.58-0.27-0.82c-0.01-0.01-0.02-0.03-0.02-0.05
			c0-0.32-0.24-0.51-0.38-0.76c-0.04-0.07-0.09-0.16-0.09-0.24c-0.02-0.38-0.04-0.76-0.14-1.13c-0.05-0.18-0.02-0.39-0.02-0.58
			c0-0.23-0.01-0.46,0.01-0.69c0.02-0.18-0.07-0.31-0.18-0.42c-0.11-0.11-0.26-0.07-0.27,0.09c-0.02,0.25-0.16,0.42-0.31,0.59
			c-0.14,0.17-0.28,0.33-0.44,0.48c-0.12,0.11-0.19,0.26-0.28,0.4c-0.04,0.07-0.06,0.13-0.15,0.17c-0.11,0.04-0.21,0.1-0.31,0.17
			c-0.46,0.35-0.92,0.7-1.38,1.06c-0.09,0.07-0.18,0.16-0.28,0.23c-0.16,0.12-0.32,0.23-0.51,0.31c-0.23,0.1-0.43,0.26-0.64,0.4
			c-0.07,0.05-0.15,0.09-0.21,0.14c-0.24,0.24-0.57,0.32-0.87,0.45c-0.34,0.15-0.7,0.26-1.06,0.39c-0.07,0.03-0.15,0.06-0.23,0.05
			c-0.31-0.01-0.59,0.08-0.87,0.19c-0.06,0.02-0.12,0.02-0.18,0.03c-0.13,0.02-0.26,0.05-0.39,0.08c-0.06,0.01-0.12,0.03-0.18,0.03
			c-0.61,0.01-1.22,0.03-1.83,0.04c-0.42,0.01-0.82-0.12-1.2-0.3c-0.18-0.09-0.37-0.17-0.53-0.28c-0.29-0.22-0.55-0.47-0.75-0.78
			c-0.17-0.26-0.35-0.52-0.52-0.78c-0.09-0.14-0.17-0.29-0.21-0.44c-0.07-0.31-0.15-0.64-0.16-0.96c-0.03-0.6,0-1.21-0.01-1.81
			c0-0.26,0.03-0.49,0.16-0.71c0.14-0.26,0.09-0.53,0.09-0.79c-0.18-0.11-0.33-0.12-0.47,0.02c-0.27,0.28-0.62,0.49-0.84,0.82
			c-0.25,0.36-0.59,0.64-0.9,0.95c-0.09,0.08-0.13,0.21-0.21,0.29c-0.21,0.22-0.36,0.48-0.61,0.67c-0.09,0.07-0.13,0.21-0.2,0.33
			c-0.02,0.03-0.02,0.07-0.04,0.1c-0.25,0.28-0.48,0.56-0.75,0.82c-0.29,0.28-0.6,0.52-0.91,0.78c-0.15,0.13-0.3,0.25-0.47,0.36
			c-0.21,0.14-0.41,0.28-0.64,0.38c-0.22,0.11-0.45,0.18-0.69,0.25c-0.09,0.03-0.19,0.01-0.29,0c-0.27-0.02-0.54-0.06-0.82,0.01
			c-0.11,0.03-0.22,0.02-0.32-0.08c-0.08-0.07-0.21-0.09-0.3-0.15c-0.34-0.25-0.69-0.5-0.89-0.89c-0.09-0.18-0.13-0.39-0.24-0.54
			c-0.16-0.21-0.07-0.48-0.23-0.68c-0.05-0.07-0.03-0.19-0.05-0.28c-0.01-0.06-0.01-0.13-0.04-0.18c-0.11-0.22-0.24-0.25-0.46-0.11
			c-0.21,0.13-0.34,0.33-0.48,0.52c-0.02,0.03-0.02,0.08-0.05,0.09c-0.21,0.11-0.29,0.34-0.48,0.48c-0.19,0.14-0.35,0.31-0.51,0.48
			c-0.3,0.3-0.68,0.5-1.03,0.73c-0.25,0.16-0.52,0.28-0.8,0.37c-0.3,0.1-0.59,0.21-0.88,0.32c-0.17,0.06-0.34,0.14-0.51,0.18
			c-0.09,0.02-0.2,0.01-0.28-0.03c-0.2-0.08-0.39-0.16-0.57-0.28c-0.11-0.07-0.21-0.11-0.33-0.13c-0.18-0.02-0.37-0.04-0.47-0.24
			c-0.02-0.04-0.09-0.05-0.13-0.08c-0.15-0.1-0.33-0.18-0.45-0.31c-0.12-0.12-0.19-0.28-0.29-0.43c-0.14-0.22-0.17-0.48-0.28-0.71
			c-0.1-0.21-0.1-0.48-0.13-0.72c-0.03-0.28-0.03-0.56-0.03-0.85c0-0.09,0.02-0.19,0.03-0.28c0.02-0.11,0.04-0.23,0.05-0.34
			c0.02-0.18,0.03-0.36,0.11-0.54c0.08-0.17,0.11-0.37,0.15-0.55c0.03-0.13,0.05-0.24,0.14-0.35c0.07-0.09-0.01-0.25,0.13-0.35
			c0.05-0.04,0.03-0.18,0.04-0.28c-0.26-0.16-0.49-0.05-0.71,0.04c-0.22,0.09-0.44,0.16-0.65,0.25c-0.25,0.1-0.5,0.21-0.75,0.33
			c-0.07,0.04-0.14,0.11-0.18,0.19c-0.16,0.33-0.37,0.62-0.55,0.93c-0.25,0.42-0.47,0.86-0.72,1.29c-0.12,0.21-0.27,0.4-0.35,0.64
			c-0.05,0.15-0.2,0.24-0.36,0.28c-0.18,0.04-0.33,0.13-0.43,0.28c-0.09,0.12-0.19,0.13-0.3,0.08c-0.11-0.06-0.25-0.07-0.3-0.23
			c-0.04-0.12-0.2-0.1-0.27,0.02c-0.04,0.07-0.06,0.15-0.1,0.21c-0.04,0.06-0.08,0.14-0.14,0.15c-0.21,0.03-0.33,0.19-0.49,0.28
			c0.03,0.2,0.05,0.4,0.08,0.6c0.01,0.1-0.01,0.19-0.13,0.24c-0.06,0.03-0.11,0.08-0.18,0.13c0.04,0.08,0.08,0.16,0.12,0.26
			c-0.05,0.08-0.11,0.16-0.18,0.27c-0.1-0.03-0.19-0.07-0.29-0.1c-0.21-0.07-0.34,0.03-0.35,0.25c0,0.07,0,0.14,0,0.21
			c-0.01,0.19-0.08,0.3-0.22,0.31c-0.14,0.02-0.3-0.09-0.34-0.24c-0.04-0.15-0.06-0.31-0.16-0.44c-0.07-0.09-0.1-0.21-0.15-0.32
			c-0.13-0.32-0.3-0.63-0.39-0.96c-0.06-0.22-0.04-0.48,0.01-0.7c0.04-0.2,0.03-0.38,0.01-0.58c-0.01-0.11-0.03-0.21-0.01-0.33
			c-0.04-0.06-0.09-0.13-0.13-0.19c-0.31,0-0.4,0.25-0.53,0.44c-0.05,0.07-0.08,0.15-0.13,0.22c-0.29,0.42-0.57,0.85-0.88,1.27
			c-0.12,0.16-0.29,0.27-0.43,0.41c-0.28,0.27-0.56,0.54-0.85,0.8c-0.08,0.07-0.17,0.13-0.25,0.19c-0.08,0.05-0.18,0.09-0.23,0.16
			c-0.38,0.5-0.94,0.62-1.49,0.78c-0.25,0.07-0.49,0.18-0.74,0.26c-0.14,0.05-0.29,0.07-0.43,0.1c-0.05,0.01-0.11-0.01-0.16,0.01
			c-0.27,0.08-0.5-0.03-0.73-0.16c-0.06-0.03-0.13-0.05-0.2-0.07c-0.14-0.41-0.34-0.78-0.56-1.14c-0.17-0.27-0.32-0.55-0.47-0.83
			c-0.03-0.05-0.01-0.12-0.02-0.18c-0.03-0.11-0.09-0.22-0.11-0.34c-0.04-0.23-0.21-0.42-0.19-0.67c0.02-0.23,0-0.46,0-0.69
			c0-0.25,0-0.48,0.1-0.73c0.1-0.26,0.12-0.55,0.19-0.82c0.06-0.21,0.14-0.41,0.21-0.62c0.01-0.04,0.05-0.08,0.05-0.12
			c0.01-0.22,0.16-0.39,0.24-0.58c0.07-0.18,0.14-0.37,0.22-0.55c0.04-0.1,0.09-0.2,0.15-0.3c0.17-0.32,0.34-0.63,0.51-0.95
			c0.15-0.28,0.31-0.56,0.45-0.85c0.07-0.15,0.11-0.31,0.15-0.47c0.02-0.09,0.03-0.2-0.08-0.26c-0.1-0.06-0.23-0.02-0.33,0.06
			c-0.34,0.3-0.58,0.68-0.85,1.03c-0.12,0.16-0.29,0.3-0.37,0.48c-0.22,0.44-0.59,0.75-0.84,1.17c-0.05,0.08-0.13,0.14-0.19,0.21
			c-0.21,0.28-0.41,0.56-0.61,0.85c-0.23,0.35-0.47,0.7-0.69,1.05c-0.13,0.2-0.25,0.41-0.36,0.63c-0.08,0.18-0.2,0.35-0.33,0.51
			c-0.32,0.38-0.49,0.85-0.79,1.25c-0.03,0.27-0.29,0.48-0.17,0.77c-0.15,0.09-0.28,0.17-0.38,0.23c-0.08,0.19-0.13,0.38-0.23,0.53
			c-0.06,0.09-0.19,0.15-0.3,0.17c-0.16,0.03-0.24,0.1-0.29,0.26c-0.05,0.14-0.16,0.27-0.27,0.37c-0.19,0.17-0.39,0.33-0.6,0.46
			C32.14,33.02,32,33,31.91,33.02c-0.08-0.15-0.15-0.26-0.21-0.37c-0.05-0.1-0.12-0.2-0.15-0.3c-0.04-0.18-0.17-0.25-0.31-0.32
			c-0.06-0.03-0.11-0.08-0.16-0.12c-0.16-0.11-0.16-0.27-0.15-0.45c0.01-0.21,0-0.43,0-0.64c0-0.19,0-0.37,0.11-0.56
			c0.11-0.19,0.14-0.42,0.17-0.64c0.05-0.34,0.19-0.65,0.32-0.97c0.17-0.08,0.13-0.23,0.12-0.36c-0.01-0.27,0.1-0.49,0.24-0.71
			c0.01-0.02,0.04-0.05,0.04-0.06c-0.05-0.28,0.14-0.5,0.16-0.76c0.01-0.06,0.05-0.12,0.08-0.18c0.01-0.02,0.04-0.03,0.05-0.06
			c0.06-0.22,0.13-0.45,0.19-0.67c0.04-0.15,0.07-0.31,0.11-0.46c-0.16-0.14-0.32-0.11-0.48-0.06c-0.12,0.04-0.24,0.1-0.34,0.17
			c-0.3,0.22-0.67,0.28-1,0.43c-0.23,0.11-0.48,0.2-0.73,0.29c-0.12,0.04-0.26,0.09-0.39,0.08c-0.32-0.02-0.63,0.09-0.94,0.13
			c-0.09,0.01-0.2,0.11-0.25,0.2c-0.21,0.36-0.43,0.71-0.61,1.08c-0.18,0.37-0.35,0.75-0.65,1.05c-0.16,0.17-0.23,0.42-0.36,0.62
			c-0.1,0.16-0.24,0.29-0.36,0.44c-0.08,0.11-0.21,0.17-0.24,0.32c-0.02,0.09-0.18,0.14-0.24,0.23c-0.28,0.38-0.68,0.64-1.02,0.96
			c-0.27,0.25-0.61,0.38-0.87,0.62c-0.16,0.15-0.32,0.29-0.49,0.42c-0.1,0.08-0.22,0.14-0.32,0.22c-0.03,0.02-0.07,0.03-0.08,0.06
			c-0.09,0.23-0.32,0.31-0.49,0.45c-0.05,0.04-0.1,0.08-0.16,0.09c-0.38,0.03-0.68,0.26-1.02,0.37c-0.01,0-0.02,0-0.03,0.01
			c-0.52,0.07-1.03,0.18-1.55,0.08c-0.1-0.02-0.2-0.06-0.29-0.11c-0.16-0.09-0.36-0.11-0.51-0.24c-0.02-0.02-0.07-0.03-0.1-0.03
			c-0.33,0.01-0.57-0.17-0.81-0.37c-0.07-0.06-0.14-0.1-0.22-0.13c-0.23-0.11-0.41-0.26-0.51-0.51c-0.05-0.12-0.15-0.22-0.22-0.33
			c-0.02-0.04-0.04-0.08-0.05-0.12c-0.03-0.16-0.1-0.32-0.14-0.47c-0.08-0.39-0.27-0.76-0.22-1.18c0.03-0.21-0.06-0.39-0.22-0.57
			c-0.05,0.01-0.13,0-0.18,0.03c-0.07,0.05-0.14,0.13-0.17,0.21c-0.11,0.24-0.2,0.49-0.31,0.73c-0.08,0.16-0.19,0.31-0.29,0.46
			c-0.18,0.28-0.32,0.58-0.52,0.85c-0.11,0.14-0.23,0.25-0.38,0.34c-0.21,0.12-0.42,0.24-0.64,0.33c-0.3,0.13-0.55,0.36-0.91,0.35
			c-0.18-0.01-0.27,0.14-0.27,0.35c0.13,0.01,0.27,0.03,0.41,0.04c0.04,0.12-0.03,0.18-0.11,0.22c-0.21,0.09-0.42,0.2-0.63,0.28
			c-0.29,0.1-0.56,0.27-0.84,0.41c-0.15,0.07-0.32,0.11-0.44,0.21c-0.29,0.22-0.61,0.29-0.95,0.38c-0.42,0.12-0.85,0.14-1.27,0.18
			C8.57,35.01,8.01,35,7.46,34.99c-0.14,0-0.28-0.08-0.42-0.12c-0.47-0.17-0.94-0.35-1.38-0.59C5.38,34.13,5.09,34,4.81,33.85
			c-0.15-0.08-0.28-0.2-0.42-0.29c-0.26-0.15-0.48-0.35-0.71-0.55c-0.17-0.15-0.36-0.27-0.53-0.41c-0.24-0.21-0.5-0.39-0.69-0.66
			c-0.08-0.11-0.2-0.18-0.29-0.28c-0.18-0.21-0.35-0.44-0.53-0.66c-0.19-0.23-0.38-0.45-0.52-0.71c-0.19-0.35-0.4-0.69-0.57-1.05
			c-0.06-0.13-0.07-0.29-0.1-0.43c-0.06-0.28-0.12-0.57-0.17-0.85c-0.03-0.15,0.01-0.31-0.11-0.45c-0.04-0.04-0.02-0.14-0.02-0.21
			c-0.01-0.36,0-0.73-0.1-1.08C0,26.09,0,25.93,0,25.78c0.01-0.66,0.03-1.31,0.05-1.97c0.01-0.18-0.03-0.37,0.11-0.53
			c0.03-0.04,0.02-0.12,0.02-0.18c0.01-0.2,0.01-0.39,0.1-0.59c0.07-0.16,0.03-0.37,0.05-0.55c0.02-0.12,0.06-0.23,0.09-0.35
			c0.01-0.04,0.03-0.08,0.03-0.13c0.02-0.22,0.05-0.42,0.12-0.64c0.12-0.33,0.12-0.69,0.19-1.03c0.05-0.25,0.13-0.49,0.2-0.73
			c0.02-0.06,0.06-0.12,0.06-0.17c-0.02-0.28,0.11-0.53,0.17-0.79c0.06-0.24,0.16-0.47,0.24-0.71c0.01-0.02,0.01-0.05,0.01-0.08
			c0.01-0.27,0.14-0.5,0.25-0.75c0.08-0.17,0.12-0.36,0.18-0.54c0.05-0.14,0.1-0.27,0.16-0.41c0.13-0.35,0.23-0.72,0.41-1.05
			c0.16-0.3,0.3-0.62,0.51-0.9c0.24-0.33,0.41-0.72,0.61-1.08c0.01-0.02,0.02-0.05,0.04-0.07c0.26-0.29,0.42-0.65,0.65-0.96
			c0.16-0.22,0.29-0.48,0.49-0.65c0.26-0.22,0.37-0.51,0.53-0.79c0.13-0.22,0.31-0.4,0.48-0.59c0.25-0.28,0.48-0.58,0.65-0.91
			C6.43,8.6,6.45,8.56,6.47,8.53c0.23-0.29,0.49-0.57,0.69-0.89c0.22-0.34,0.5-0.63,0.66-1.01C7.84,6.58,7.9,6.55,7.93,6.52
			c0.08-0.08,0.26-0.36,0.32-0.47C8.29,5.98,8.35,5.9,8.41,5.86c0.42-0.3,0.78-0.67,1.14-1.03c0.25-0.25,0.54-0.46,0.81-0.7
			c0.07-0.06,0.13-0.12,0.19-0.18c0.09-0.09,0.16-0.18,0.32-0.2c0.13-0.01,0.23-0.12,0.36-0.18c0.28-0.13,0.57-0.26,0.84-0.43
			c0.27-0.18,0.55-0.36,0.88-0.47c0.39-0.13,0.75-0.36,1.13-0.53c0.19-0.08,0.39-0.14,0.59-0.19c0.26-0.07,0.53-0.11,0.8-0.17
			c0.12-0.03,0.23-0.09,0.35-0.1c0.62-0.03,1.24-0.06,1.86-0.05c0.23,0,0.45,0.13,0.68,0.2c0.07,0.02,0.13,0.05,0.2,0.06
			c0.49,0.01,0.9,0.25,1.31,0.46c0.06,0.03,0.14,0.04,0.19,0.09c0.04,0.04,0.07,0.12,0.07,0.18c0,0.02-0.1,0.06-0.15,0.06
			c-0.2,0-0.38-0.07-0.55-0.15C19.2,2.41,19.2,2.41,18.99,2.6c0.11,0.09,0.2,0.19,0.31,0.26c0.09,0.06,0.13,0.14,0.07,0.22
			c-0.04,0.05-0.12,0.09-0.19,0.11c-0.09,0.02-0.19,0-0.3,0c0.06,0.38,0.27,0.64,0.51,0.86c0.39,0.36,0.84,0.67,1.23,1.03
			c0.17,0.16,0.36,0.36,0.34,0.64c0,0.08,0.03,0.17,0.08,0.24c0.11,0.16,0.09,0.35,0.03,0.5c-0.08,0.19-0.21,0.35-0.31,0.51
			c-0.18,0.03-0.32,0-0.48-0.07C20,6.77,19.76,6.59,19.49,6.45c-0.21-0.1-0.44-0.08-0.64,0c-0.07,0.03-0.09,0.19-0.15,0.33
			c-0.03,0.01-0.1,0.04-0.17,0.04c-0.27,0-0.56,0.02-0.82-0.04c-0.3-0.06-0.59-0.09-0.89-0.11c-0.17-0.01-0.34-0.06-0.5-0.13
			c-0.25-0.1-0.51-0.07-0.76-0.1c-0.2-0.02-0.44,0.13-0.57,0.31c-0.04,0.06-0.13,0.08-0.19,0.13c-0.19,0.15-0.39,0.25-0.61,0.35
			c-0.11,0.05-0.19,0.15-0.27,0.24c-0.34,0.34-0.68,0.68-1,1.04c-0.18,0.2-0.4,0.37-0.55,0.6c-0.08,0.12-0.2,0.23-0.31,0.33
			c-0.28,0.23-0.48,0.54-0.72,0.8c-0.26,0.28-0.5,0.59-0.75,0.9c-0.13,0.16-0.21,0.38-0.32,0.56c-0.16,0.25-0.34,0.5-0.5,0.75
			c-0.09,0.14-0.14,0.29-0.22,0.44c-0.06,0.12-0.11,0.24-0.18,0.35c-0.11,0.18-0.21,0.35-0.27,0.56c-0.04,0.14-0.12,0.27-0.18,0.4
			c-0.13,0.31-0.23,0.63-0.39,0.93c-0.15,0.28-0.14,0.64-0.38,0.88c-0.02,0.25-0.22,0.44-0.2,0.71c0.01,0.06-0.04,0.13-0.06,0.2
			c-0.03,0.08-0.07,0.17-0.07,0.25c-0.03,0.3-0.13,0.58-0.24,0.85c-0.06,0.14-0.04,0.31-0.05,0.47c-0.01,0.23-0.05,0.45-0.21,0.63
			c-0.02,0.02-0.04,0.06-0.04,0.09c-0.02,0.27-0.06,0.55-0.06,0.82c-0.01,0.41,0,0.82,0.01,1.22c0,0.05,0,0.11-0.01,0.16
			c-0.17,0.5-0.08,1.02-0.13,1.52c-0.01,0.16,0,0.32,0,0.48c-0.02,0.64,0.1,1.26,0.23,1.88c0.04,0.21,0.1,0.41,0.12,0.62
			c0.02,0.3,0.2,0.53,0.33,0.77c0.14,0.27,0.32,0.53,0.51,0.77c0.16,0.2,0.35,0.36,0.54,0.53c0.3,0.27,0.61,0.54,0.92,0.81
			c0.04,0.04,0.09,0.08,0.15,0.1c0.45,0.16,0.91,0.23,1.38,0.16c0.18-0.02,0.35-0.1,0.52-0.17c0.15-0.06,0.3-0.13,0.46-0.2
			c0.13-0.06,0.27-0.11,0.39-0.19c0.31-0.2,0.59-0.45,0.92-0.6c0.19-0.09,0.25-0.32,0.47-0.34c0.04-0.21,0.31-0.19,0.36-0.38
			c0.01-0.03,0.05-0.05,0.08-0.06c0.03-0.02,0.09-0.01,0.1-0.03c0.07-0.19,0.3-0.21,0.39-0.39c0.06-0.13,0.21-0.19,0.32-0.29
			c0.19-0.19,0.33-0.41,0.53-0.59c0.31-0.29,0.59-0.63,0.87-0.95c0.14-0.15,0.29-0.3,0.4-0.47c0.18-0.28,0.46-0.47,0.66-0.72
			c0.3-0.38,0.72-0.63,1.04-0.99c0.11-0.13,0.22-0.27,0.33-0.4c0.17-0.23,0.38-0.44,0.56-0.66c0.01-0.01,0.04-0.02,0.04-0.03
			c0.09-0.33,0.39-0.46,0.62-0.66c0.29-0.25,0.58-0.5,0.89-0.72c0.2-0.14,0.43-0.24,0.65-0.35c0.08-0.04,0.16-0.1,0.24-0.14
			c0.37-0.2,0.74-0.39,1.18-0.35c0.09,0.01,0.19-0.03,0.28-0.07c0.26-0.1,0.52-0.2,0.77-0.32c0.16-0.08,0.3-0.19,0.45-0.29
			c0.05-0.03,0.09-0.08,0.13-0.12c0.16-0.19,0.35-0.25,0.59-0.17c0.21,0.17-0.06,0.38,0.08,0.6c0.1,0.1,0.26,0.14,0.45,0.15
			c0.16,0.01,0.32,0.07,0.47,0.13c0.29,0.13,0.59,0.26,0.74,0.57c0.17,0.36,0.53,0.54,0.76,0.84c0.15,0.2,0.29,0.4,0.4,0.63
			c0.06,0.12,0.16,0.23,0.24,0.34c0.07,0.1,0.08,0.23,0.19,0.32c0.2,0.16,0.37,0.34,0.66,0.21c0.08-0.04,0.19-0.02,0.29-0.02
			c0.41-0.02,0.8-0.07,1.18-0.24c0.16-0.07,0.35-0.09,0.53-0.14c0.13-0.04,0.24-0.1,0.37-0.14c0.14-0.04,0.29-0.07,0.42-0.11
			c0.12-0.04,0.23-0.09,0.35-0.14c0.26-0.12,0.53-0.22,0.77-0.36c0.22-0.12,0.43-0.28,0.63-0.43c0.2-0.15,0.39-0.3,0.58-0.47
			c0.09-0.08,0.17-0.19,0.24-0.3c0.19-0.28,0.44-0.49,0.72-0.67c0.07-0.05,0.15-0.09,0.2-0.15c0.19-0.25,0.47-0.26,0.73-0.36
			c0.23-0.08,0.51-0.07,0.65-0.38c0.19,0.06,0.37,0.11,0.56,0.17c-0.05,0.26,0.01,0.47,0.07,0.69c0.07,0.28,0.13,0.59-0.07,0.86
			c-0.05,0.07-0.03,0.18-0.04,0.28c0.22,0.11,0.39,0.07,0.55-0.07c0.08-0.07,0.16-0.15,0.25-0.22c0.2-0.15,0.4-0.31,0.61-0.45
			c0.17-0.11,0.36-0.2,0.54-0.3c0.12-0.07,0.24-0.14,0.36-0.2c0.1-0.05,0.2-0.09,0.31-0.13c0.32-0.1,0.61-0.3,0.97-0.25
			c0.06,0.01,0.13-0.05,0.2-0.05c0.09-0.01,0.19,0,0.28,0.02c0.09,0.02,0.18,0.08,0.27,0.08c0.2-0.01,0.36,0.06,0.52,0.16
			c0.1,0.06,0.19,0.13,0.23,0.27c0.03,0.11,0.12,0.21,0.14,0.32c0.03,0.12,0.01,0.25,0.01,0.37c0,0.01,0,0.02,0,0.03
			c0.18,0.37,0.12,0.76,0.14,1.15c0,0.06,0,0.13,0.03,0.18c0.17,0.26,0.11,0.55,0.13,0.83c0.01,0.08-0.01,0.15-0.09,0.22
			c-0.08,0.07-0.12,0.2-0.15,0.32c-0.04,0.12-0.04,0.24-0.06,0.36c-0.03,0.19-0.06,0.38-0.11,0.57c-0.04,0.15-0.1,0.29-0.16,0.44
			c-0.08,0.2-0.2,0.4-0.23,0.61c-0.03,0.24-0.12,0.47-0.15,0.71c0,0.04,0,0.08-0.02,0.1c-0.22,0.4-0.25,0.85-0.39,1.27
			c-0.09,0.26-0.17,0.53-0.19,0.81c-0.01,0.22-0.08,0.44-0.12,0.63c0.15,0.22,0.33,0.23,0.49,0.2c0.11-0.12,0.2-0.23,0.3-0.34
			c0.29-0.32,0.61-0.61,0.79-1.02c0.05-0.1,0.16-0.18,0.23-0.27c0.15-0.19,0.29-0.37,0.43-0.57c0.12-0.17,0.21-0.37,0.35-0.51
			c0.2-0.2,0.3-0.47,0.48-0.67c0.06-0.06,0.1-0.13,0.16-0.2c0.12-0.16,0.26-0.31,0.37-0.48c0.22-0.32,0.49-0.62,0.68-0.96
			c0.23-0.41,0.55-0.75,0.77-1.17c0.11-0.21,0.32-0.38,0.47-0.58c0.1-0.12,0.17-0.26,0.26-0.39c0.19-0.26,0.38-0.51,0.56-0.77
			c0.08-0.1,0.14-0.22,0.21-0.33c0.06-0.09,0.1-0.2,0.18-0.25c0.2-0.13,0.27-0.36,0.46-0.5c0.07-0.05,0.1-0.15,0.15-0.23
			c0.28-0.46,0.66-0.84,0.98-1.27c0.17-0.23,0.31-0.49,0.52-0.68c0.3-0.28,0.43-0.68,0.73-0.95c0.24-0.21,0.36-0.52,0.58-0.75
			c0.14-0.15,0.19-0.37,0.4-0.46c0.04-0.24,0.31-0.3,0.37-0.53c0.03-0.12,0.21-0.19,0.3-0.29c0.31-0.32,0.6-0.65,0.86-1.01
			c0.06-0.08,0.12-0.19,0.2-0.22c0.19-0.07,0.31-0.24,0.38-0.39c0.12-0.25,0.35-0.37,0.5-0.57c0.08-0.1,0.18-0.19,0.25-0.3
			c0.07-0.1,0.17-0.17,0.22-0.3c0.08-0.2,0.27-0.36,0.4-0.55c0.13-0.19,0.27-0.38,0.35-0.62c0.06-0.19,0.11-0.38,0.17-0.57
			c0.08-0.23,0.23-0.43,0.35-0.65C56.5,8.8,56.6,8.7,56.66,8.59c0.14-0.25,0.26-0.51,0.44-0.73c0.03-0.04,0.03-0.12,0.03-0.18
			c0.01-0.16,0.01-0.32,0.02-0.48c0.02-0.33,0.05-0.39,0.31-0.67c0.06-0.06,0.11-0.14,0.13-0.23c0.04-0.14,0.16-0.22,0.26-0.23
			c0.3-0.02,0.43-0.26,0.64-0.4c0.05-0.03,0.09-0.08,0.13-0.12c0.12-0.08,0.2-0.17,0.22-0.33c0.01-0.09,0.09-0.18,0.14-0.27
			c0.09-0.16,0.18-0.32,0.26-0.49c0.07-0.13,0.12-0.27,0.18-0.4c0.08-0.21,0.18-0.41,0.31-0.6c0.07-0.1,0.07-0.23,0.12-0.34
			c0.1-0.21,0.21-0.41,0.32-0.62c0.03-0.05,0.05-0.12,0.05-0.18c-0.01-0.38,0.21-0.67,0.38-0.99c0.11-0.2,0.24-0.4,0.35-0.6
			c0.15-0.28,0.37-0.44,0.7-0.44c0.19,0,0.37,0,0.55,0c0.17,0.16,0.18,0.31,0.14,0.54c-0.07,0.38-0.06,0.77-0.07,1.16
			c0,0.16,0.13,0.26,0.22,0.37c0.15,0.18,0.31,0.35,0.45,0.54c0.1,0.13,0.07,0.2-0.03,0.35c-0.04,0.07-0.06,0.16-0.07,0.24
			c-0.01,0.11-0.03,0.2-0.1,0.29c-0.09,0.13-0.14,0.3-0.2,0.45c-0.07,0.18-0.12,0.36-0.2,0.54c-0.05,0.1-0.12,0.19-0.18,0.29
			c-0.08,0.14-0.15,0.29-0.22,0.44c-0.07,0.16-0.16,0.3-0.18,0.49c-0.01,0.13-0.1,0.25-0.16,0.38c-0.15,0.32-0.29,0.65-0.45,0.96
			c-0.12,0.23-0.26,0.45-0.39,0.68c-0.13,0.24-0.23,0.48-0.36,0.72c-0.12,0.24-0.25,0.47-0.37,0.7C60.03,9.54,60,9.62,59.96,9.7
			c-0.08,0.18-0.17,0.36-0.25,0.54c-0.01,0.03-0.04,0.06-0.05,0.09c-0.08,0.34-0.25,0.63-0.44,0.92c-0.14,0.22-0.24,0.48-0.37,0.71
			c-0.08,0.14-0.2,0.26-0.26,0.4c-0.05,0.15-0.12,0.29-0.19,0.42c-0.14,0.25-0.22,0.54-0.41,0.76c-0.09,0.11-0.14,0.26-0.17,0.4
			c-0.05,0.26-0.18,0.48-0.31,0.7c-0.02,0.03-0.02,0.07-0.03,0.1c-0.02,0.14-0.03,0.26-0.13,0.39c-0.11,0.15-0.16,0.36-0.17,0.54
			c-0.02,0.23-0.17,0.4-0.24,0.6c-0.06,0.19-0.21,0.35-0.27,0.55c-0.08,0.26-0.21,0.51-0.35,0.76c-0.14,0.26-0.29,0.5-0.4,0.78
			c-0.09,0.24-0.21,0.48-0.33,0.71c-0.07,0.13-0.16,0.24-0.23,0.36c-0.09,0.16-0.18,0.33-0.26,0.5c-0.02,0.04-0.06,0.08-0.05,0.12
			c0.04,0.21-0.12,0.34-0.18,0.5c-0.08,0.19-0.17,0.38-0.24,0.57c-0.01,0.04,0.02,0.11,0.05,0.14c0.09,0.1,0.22,0.11,0.34,0.08
			c0.15-0.03,0.3-0.09,0.46-0.13c0.06-0.01,0.12-0.01,0.18-0.01c0.05,0,0.12,0.02,0.15,0c0.12-0.08,0.27-0.03,0.38-0.08
			c0.23-0.1,0.5,0.03,0.71-0.12c0.27,0.05,0.53-0.15,0.8-0.04c0.02,0.01,0.05,0.01,0.08,0c0.24-0.04,0.47-0.09,0.71-0.12
			c0.08-0.01,0.16-0.02,0.24-0.01c0.34,0.06,0.62-0.09,0.9-0.27c0.12-0.08,0.26-0.14,0.38-0.22c0.28-0.18,0.55-0.39,0.84-0.55
			c0.24-0.13,0.51-0.22,0.76-0.32c0.18-0.07,0.36-0.12,0.54-0.18c0.02-0.01,0.05-0.02,0.08-0.02c0.34-0.01,0.67-0.02,1.01-0.01
			c0.16,0,0.3,0.02,0.45-0.08c0.16-0.11,0.35-0.14,0.56-0.11c0.17,0.03,0.36,0.01,0.53,0.06c0.17,0.05,0.33,0.14,0.49,0.22
			c0.17,0.09,0.33,0.19,0.51,0.29c0,0.11,0,0.22,0,0.34c-0.2,0.13-0.4,0.29-0.66,0.26c-0.14,0.25-0.14,0.32,0.05,0.49
			c0.18,0.16,0.36,0.31,0.56,0.43c0.12,0.07,0.28,0.08,0.44,0.12c0.1,0.16,0.2,0.32,0.4,0.42c0.13,0.07,0.23,0.2,0.23,0.41
			c-0.03,1.12-0.04,2.23-0.06,3.35c0,0.22-0.03,0.44-0.04,0.66c-0.01,0.09,0,0.17,0,0.25c0.19,0.12,0.33,0.07,0.47-0.06
			c0.25-0.22,0.46-0.48,0.67-0.74c0.09-0.11,0.19-0.19,0.28-0.29c0.07-0.08,0.13-0.18,0.2-0.27c0.03-0.03,0.04-0.08,0.07-0.11
			c0.25-0.23,0.5-0.46,0.75-0.7c0.12-0.11,0.22-0.23,0.34-0.35c0.34-0.36,0.73-0.67,1.11-0.99c0.25-0.21,0.49-0.42,0.74-0.62
			c0.15-0.12,0.33-0.19,0.47-0.33c0.23-0.24,0.52-0.38,0.81-0.53c0.34-0.18,0.67-0.38,1.01-0.56c0.29-0.16,0.59-0.32,0.88-0.47
			c0.17-0.09,0.37-0.14,0.52-0.26c0.31-0.24,0.59-0.51,0.88-0.77c0.1-0.08,0.19-0.17,0.29-0.25c0.17-0.13,0.35-0.22,0.59-0.22
			c0.42-0.01,0.85-0.04,1.26-0.12c0.22-0.04,0.44-0.11,0.65-0.17c0.49-0.13,0.92-0.03,1.34,0.22c0.1,0.06,0.21,0.09,0.3,0.15
			c0.29,0.22,0.52,0.5,0.76,0.76c0.03,0.03,0.04,0.15,0.01,0.17c-0.12,0.09-0.2,0.25-0.39,0.24c-0.09-0.01-0.19,0.02-0.29,0.03
			c0.06,0.11,0.1,0.2,0.15,0.31c0.24,0.11,0.44,0.27,0.56,0.53c0.02,0.06,0.1,0.09,0.14,0.14c0.14,0.16,0.27,0.33,0.42,0.49
			c0.11,0.13,0.22,0.27,0.37,0.35c0.12,0.07,0.11,0.14,0.09,0.27c-0.12,0-0.24,0-0.36,0c-0.1,0-0.2,0-0.29,0.02
			c-0.17,0.03-0.22,0.11-0.22,0.28c0,0.07,0,0.15,0.02,0.21c0.1,0.23,0.11,0.48,0.12,0.73c0.01,0.12,0.11,0.25,0.2,0.34
			c0.17,0.17,0.25,0.37,0.2,0.62C81.57,24.49,81.54,24.47,81.41,24.23c0.06,0.01,0.13,0.03,0.2,0.03c0.07,0.01,0.13-0.03,0.11-0.1
			c-0.01-0.03-0.09-0.07-0.12-0.05C81.52,24.13,81.47,24.18,81.41,24.23z M22.89,22.64c-0.11,0.11-0.2,0.2-0.3,0.29
			c-0.27,0.23-0.46,0.52-0.64,0.83c-0.12,0.2-0.26,0.4-0.38,0.6c-0.12,0.19-0.26,0.38-0.34,0.59c-0.09,0.23-0.18,0.46-0.28,0.69
			c-0.09,0.21-0.21,0.43-0.18,0.68c0.01,0.06-0.04,0.13-0.05,0.2c-0.05,0.24-0.2,0.44-0.22,0.7c-0.03,0.3-0.07,0.62-0.17,0.9
			c-0.07,0.18-0.08,0.35-0.08,0.54c0,0.19,0.03,0.39,0.02,0.58c-0.02,0.19,0.1,0.27,0.21,0.37c0.11,0.1,0.22,0.13,0.36,0.04
			c0.03-0.02,0.09-0.03,0.13-0.03c0.21,0.04,0.38-0.1,0.57-0.15c0.29-0.09,0.58-0.22,0.86-0.35c0.19-0.09,0.36-0.22,0.54-0.33
			c0.08-0.05,0.16-0.09,0.25-0.14c0.31-0.18,0.62-0.35,0.91-0.55c0.26-0.18,0.49-0.41,0.74-0.62c0.14-0.12,0.31-0.22,0.42-0.37
			c0.22-0.32,0.4-0.66,0.62-0.98c0.09-0.13,0.17-0.25,0.12-0.43c-0.1-0.06-0.22-0.12-0.33-0.19c-0.22-0.15-0.46-0.28-0.65-0.45
			c-0.21-0.19-0.41-0.38-0.63-0.56c-0.24-0.21-0.47-0.41-0.69-0.64c-0.14-0.15-0.26-0.33-0.37-0.5
			C23.18,23.12,23.05,22.9,22.89,22.64z M61.91,24.1c-0.07-0.07-0.12-0.16-0.19-0.18c-0.15-0.03-0.34-0.08-0.47-0.02
			c-0.2,0.08-0.42,0.1-0.62,0.16c-0.23,0.08-0.49,0.08-0.66,0.26c-0.23,0.25-0.45,0.52-0.63,0.81c-0.18,0.29-0.31,0.62-0.46,0.94
			c-0.1,0.2-0.2,0.42-0.34,0.6c-0.12,0.16-0.13,0.3-0.07,0.47c0.12,0.02,0.25,0.04,0.32,0.05c0.14-0.11,0.27-0.18,0.36-0.28
			c0.2-0.24,0.45-0.41,0.69-0.59c0.06-0.05,0.15-0.08,0.18-0.14c0.15-0.31,0.54-0.39,0.66-0.72C61.18,25.09,61.56,24.62,61.91,24.1z
			 M89.1,31.43c-0.02,0.09-0.03,0.15-0.03,0.2c0,0.09,0.05,0.15,0.14,0.16c0.07,0.01,0.16,0.01,0.16-0.08c0-0.07-0.02-0.15-0.07-0.2
			C89.27,31.46,89.19,31.46,89.1,31.43z M80.95,22.09c0.12-0.01,0.21-0.01,0.33-0.02C81.11,21.91,81.08,21.91,80.95,22.09z
			 M93,13.29c-0.02,0.07-0.03,0.11-0.03,0.14c0,0.03,0.02,0.07,0.05,0.12C93.12,13.45,93.11,13.39,93,13.29z"/>
	</g>
</g>
</svg>
