<?xml version="1.0" encoding="utf-8"?>
<!-- Generator: Adobe Illustrator 28.2.0, SVG Export Plug-In . SVG Version: 6.00 Build 0)  -->
<svg version="1.1" id="Layer_1" xmlns="http://www.w3.org/2000/svg" xmlns:xlink="http://www.w3.org/1999/xlink" x="0px" y="0px"
	 viewBox="0 0 110.27 35" style="enable-background:new 0 0 110.27 35;" xml:space="preserve">
<g>
	<g>
		<path d="M102.11,16.73c0.28,0.22,0.54,0.13,0.79,0.07c0.31-0.07,0.62-0.17,0.92-0.26c0.15-0.04,0.3-0.09,0.45-0.15
			c0.36-0.15,0.71-0.17,1.15-0.06c0.11,0.18,0.07,0.36-0.04,0.5c-0.15,0.18-0.31,0.35-0.5,0.48c-0.13,0.09-0.13,0.17-0.12,0.34
			c0.31-0.04,0.62,0.06,0.91-0.08c0.16-0.08,0.33-0.16,0.51-0.15c0.32,0,0.59-0.14,0.89-0.18c0.23-0.03,0.45-0.12,0.68-0.19
			c0.07-0.02,0.13-0.06,0.2-0.06c0.36,0.01,0.68-0.11,0.99-0.27c0.03-0.02,0.08-0.03,0.11-0.03c0.33,0.01,0.66,0.03,0.99,0.05
			c0.12,0.23,0.09,0.46,0.04,0.65c-0.07,0.25,0.01,0.48,0.09,0.7c0.13,0.35,0.12,0.68,0.07,1.02c-0.04,0.24-0.25,0.37-0.45,0.46
			c-0.35,0.17-0.72,0.3-1.08,0.45c-0.21,0.09-0.42,0.2-0.63,0.29c-0.25,0.1-0.51,0.19-0.77,0.27c-0.34,0.11-0.69,0.21-1.04,0.3
			c-0.26,0.06-0.53,0.08-0.78,0.15c-0.2,0.05-0.38,0.15-0.57,0.22c-0.04,0.01-0.07,0.04-0.11,0.04c-0.19-0.01-0.34,0.09-0.5,0.15
			c-0.43,0.15-0.85,0.33-1.22,0.6c-0.09,0.07-0.2,0.13-0.32,0.15c-0.16,0.03-0.26,0.11-0.37,0.22c-0.07,0.08-0.12,0.16-0.13,0.28
			c-0.02,0.28-0.26,0.38-0.5,0.23c-0.23-0.14-0.46-0.26-0.72-0.29c-0.1,0.29-0.09,0.31,0.26,0.53c-0.03,0.07-0.03,0.18-0.09,0.22
			c-0.12,0.09-0.27,0.15-0.4,0.22c-0.28,0.14-0.58,0.16-0.9,0.16c-0.25,0-0.49,0.05-0.74,0.09c-0.06,0.01-0.13,0.06-0.17,0.11
			c-0.2,0.27-0.43,0.53-0.54,0.86c-0.03,0.1-0.12,0.18-0.16,0.28c-0.16,0.33-0.31,0.67-0.48,1.01c-0.12,0.25-0.19,0.51-0.2,0.8
			c-0.01,0.14-0.1,0.28-0.16,0.41c-0.14,0.31-0.31,0.6-0.43,0.92c-0.14,0.36-0.38,0.68-0.51,1.04c-0.07,0.22-0.14,0.45-0.21,0.67
			c-0.09,0.26-0.19,0.51-0.28,0.77c-0.02,0.06-0.02,0.14-0.04,0.2c-0.1,0.36-0.2,0.71-0.29,1.07c-0.01,0.03-0.03,0.06-0.03,0.08
			c0.02,0.32-0.15,0.59-0.21,0.89c-0.04,0.24-0.24,0.36-0.42,0.42c-0.39,0.14-0.47,0.47-0.54,0.8c-0.06,0.28-0.07,0.33-0.34,0.36
			c-0.17,0.02-0.27,0.11-0.37,0.22c-0.17,0.19-0.37,0.28-0.63,0.26c-0.09-0.01-0.18,0-0.27,0c-0.64-0.04-0.64-0.04-1.08-0.5
			c-0.1-0.11-0.23-0.2-0.35-0.29c-0.31-0.24-0.68-0.41-0.93-0.73c-0.09-0.12-0.16-0.26-0.24-0.39c-0.09-0.14-0.16-0.29-0.26-0.41
			c-0.1-0.14-0.21-0.25-0.28-0.43c-0.05-0.15-0.19-0.29-0.32-0.4c-0.27-0.23-0.37-0.5-0.34-0.83c0.02-0.25,0.02-0.5,0.01-0.76
			c-0.02-0.37,0.02-0.71,0.25-1.01c0.06-0.08,0.07-0.2,0.09-0.31c0.03-0.12,0.05-0.25,0.09-0.41c-0.03-0.05-0.09-0.13-0.17-0.24
			c-0.09,0.08-0.18,0.14-0.24,0.22c-0.16,0.25-0.3,0.5-0.44,0.75c-0.38,0.69-0.89,1.26-1.39,1.86c-0.16,0.19-0.31,0.4-0.46,0.6
			c-0.21,0.3-0.44,0.56-0.74,0.76c-0.28,0.19-0.51,0.44-0.77,0.66c-0.42,0.35-0.85,0.68-1.36,0.89c-0.23,0.09-0.45,0.22-0.68,0.34
			c-0.47,0.24-0.98,0.25-1.51,0.15c-0.05-0.01-0.1-0.02-0.14-0.05c-0.31-0.19-0.65-0.24-0.98-0.3c-0.19-0.03-0.41,0.01-0.56-0.19
			c-0.01-0.02-0.06-0.03-0.09-0.02c-0.24,0.04-0.37-0.2-0.57-0.25c-0.03-0.01-0.05-0.06-0.07-0.09c-0.08-0.12-0.13-0.26-0.24-0.35
			c-0.28-0.24-0.39-0.55-0.48-0.88c-0.1-0.33-0.18-0.66-0.31-0.98c-0.17-0.44-0.12-0.88-0.11-1.32c0.02-0.68,0.08-1.37,0.1-2.05
			c0.02-0.49,0.13-0.94,0.28-1.4c0.03-0.08,0.02-0.18,0.04-0.27c0.04-0.15,0.08-0.3,0.12-0.45c0.01-0.03,0.04-0.05,0.03-0.08
			c-0.01-0.29,0.07-0.55,0.18-0.81c0.11-0.27,0.21-0.54,0.29-0.82c0.06-0.23,0.09-0.47,0.09-0.71c0-0.18-0.16-0.26-0.3-0.18
			c-0.11,0.06-0.21,0.13-0.32,0.19c-0.41,0.21-0.75,0.5-1.08,0.81c-0.16,0.15-0.33,0.3-0.5,0.45c-0.03,0.03-0.09,0.04-0.14,0.05
			c-0.2,0.02-0.31,0.15-0.33,0.32c-0.05,0.34-0.23,0.6-0.4,0.87c-0.3,0.5-0.56,1.01-0.78,1.55c-0.05,0.13-0.08,0.29-0.17,0.4
			c-0.11,0.13-0.26,0.21-0.44,0.35c0,0.24-0.23,0.46-0.2,0.77c-0.21,0.27-0.15,0.6-0.2,0.91c-0.02,0.18-0.16,0.28-0.33,0.34
			c-0.33,0.11-0.33,0.11-0.33,0.46c0,0.27,0.01,0.55,0.01,0.82c0,0.14,0.02,0.3-0.22,0.23c-0.06-0.02-0.15,0.08-0.22,0.11
			c-0.26,0.13-0.52,0.27-0.78,0.38c-0.36,0.15-0.69,0.42-1.14,0.32c-0.18-0.04-0.38,0-0.57,0c-0.28,0-0.52-0.04-0.77-0.22
			c-0.37-0.26-0.69-0.58-1.01-0.89c-0.03-0.03-0.06-0.06-0.07-0.1c-0.1-0.42-0.24-0.83-0.11-1.28c0.08-0.29,0.05-0.62,0.04-0.93
			c-0.01-0.11-0.12-0.23-0.17-0.33c-0.16-0.01-0.21,0.08-0.26,0.18c-0.16,0.31-0.33,0.62-0.5,0.93c-0.05,0.08-0.11,0.16-0.17,0.23
			c-0.21,0.2-0.31,0.48-0.51,0.68c-0.2,0.21-0.42,0.4-0.62,0.6c-0.09,0.09-0.15,0.2-0.24,0.29c-0.18,0.19-0.32,0.41-0.56,0.55
			c-0.14,0.09-0.25,0.24-0.37,0.36c-0.19,0.2-0.39,0.39-0.67,0.48c-0.29,0.1-0.49,0.37-0.8,0.47c-0.2,0.07-0.39,0.2-0.6,0.22
			c-0.71,0.07-1.42,0.22-2.15,0.09c-0.2-0.03-0.35-0.15-0.52-0.23c-0.35-0.17-0.7-0.35-1-0.6c-0.29-0.24-0.6-0.47-0.81-0.81
			c-0.1-0.16-0.26-0.28-0.33-0.48c-0.06-0.2-0.21-0.38-0.25-0.57c-0.06-0.3-0.23-0.56-0.22-0.88c0.01-0.31,0.02-0.62-0.11-0.93
			c-0.04-0.1-0.03-0.22-0.03-0.33c0-0.38,0-0.77,0.02-1.15c0.01-0.21,0.06-0.41,0.09-0.62c0.02-0.12,0.01-0.24,0.02-0.36
			c0.04-0.36,0.06-0.72,0.12-1.07c0.05-0.35-0.06-0.61-0.39-0.79c-0.12-0.07-0.25-0.13-0.36-0.23c-0.2-0.18-0.4-0.16-0.61-0.08
			c-0.43,0.17-0.78,0.46-1.08,0.8c-0.22,0.24-0.5,0.43-0.68,0.69c-0.19,0.29-0.45,0.51-0.64,0.8c-0.13,0.2-0.32,0.36-0.49,0.54
			c-0.27,0.3-0.44,0.68-0.64,1.03c-0.05,0.09-0.11,0.18-0.16,0.28c-0.16,0.31-0.24,0.66-0.35,1c-0.11,0.34-0.19,0.7-0.38,1.01
			c-0.09,0.14-0.24,0.25-0.38,0.34c-0.23,0.14-0.39,0.31-0.38,0.61c0.01,0.22-0.11,0.4-0.27,0.54c-0.24,0.22-0.49,0.43-0.79,0.57
			c-0.27,0.13-0.53,0.29-0.81,0.4c-0.21,0.09-0.45,0.13-0.68,0.19c-0.02,0.01-0.05,0-0.06,0.01c-0.29,0.26-0.56,0.03-0.82-0.09
			c-0.22-0.1-0.44-0.24-0.63-0.4c-0.14-0.12-0.28-0.24-0.41-0.37c-0.13-0.12-0.23-0.33-0.21-0.55c0.02-0.32,0.02-0.64,0.01-0.97
			c0-0.16-0.01-0.33-0.08-0.48c-0.14-0.33-0.1-0.65-0.02-0.97c0.09-0.33,0.15-0.68,0.24-1.01c0.08-0.29,0.2-0.57,0.28-0.87
			c0.08-0.29,0.2-0.55,0.35-0.8c0.03-0.05,0.01-0.12,0.03-0.18c0.03-0.09,0.07-0.17,0.11-0.26c0.05-0.12,0.11-0.23,0.15-0.35
			c0.04-0.12-0.08-0.27-0.24-0.3c-0.36-0.07-0.71-0.15-1.07-0.18c-0.23-0.02-0.37-0.2-0.56-0.27c-0.33-0.12-0.65-0.29-0.94-0.48
			c-0.27-0.18-0.54-0.38-0.74-0.66c-0.15-0.21-0.31-0.41-0.47-0.61c-0.2-0.24-0.51-0.24-0.68,0c-0.03,0.04-0.05,0.09-0.09,0.12
			c-0.43,0.27-0.65,0.71-0.9,1.13c-0.17,0.28-0.17,0.61-0.33,0.88c-0.12,0.21-0.13,0.45-0.19,0.68c-0.13,0.48-0.18,0.98-0.34,1.44
			c-0.08,0.22-0.09,0.44-0.15,0.66c-0.05,0.2-0.1,0.42-0.21,0.58c-0.09,0.14-0.12,0.26-0.12,0.41c0,0.27,0.01,0.54-0.12,0.79
			c-0.04,0.08-0.04,0.18-0.04,0.27c0,0.2-0.08,0.36-0.19,0.52c-0.06,0.07-0.08,0.17-0.12,0.26c-0.04,0.1-0.08,0.2-0.12,0.29
			c-0.02,0.05-0.05,0.09-0.05,0.14c0.04,0.37-0.25,0.49-0.48,0.66c-0.19,0.14-0.36,0.31-0.54,0.48c-0.13,0.12-0.24,0.29-0.39,0.37
			c-0.32,0.17-0.52,0.46-0.74,0.72c-0.08,0.09-0.16,0.13-0.28,0.12c-0.23-0.01-0.46-0.02-0.7-0.04c-0.22-0.01-0.37-0.16-0.53-0.27
			c-0.15-0.11-0.25-0.3-0.4-0.41c-0.26-0.21-0.29-0.5-0.39-0.78c-0.01-0.04,0.02-0.09,0.02-0.14c0.05-0.29,0.13-0.59-0.06-0.88
			c-0.03-0.05-0.02-0.12-0.03-0.18c-0.06-0.24-0.26-0.31-0.43-0.16c-0.39,0.35-0.78,0.7-1.16,1.06c-0.25,0.23-0.49,0.49-0.77,0.69
			c-0.27,0.19-0.58,0.34-0.89,0.48c-0.33,0.15-0.68,0.29-1.03,0.42c-0.09,0.03-0.2,0.04-0.3,0.02c-0.25-0.04-0.5-0.11-0.74-0.16
			c-0.12-0.02-0.24-0.04-0.36-0.05c-0.25-0.02-0.49-0.09-0.73-0.16c-0.35-0.1-0.65-0.26-0.97-0.41c-0.23-0.1-0.43-0.22-0.62-0.38
			c-0.22-0.18-0.45-0.35-0.67-0.52c-0.38-0.28-0.54-0.71-0.76-1.09c-0.16-0.27-0.33-0.39-0.63-0.34c-0.06,0.01-0.13,0.05-0.18,0.09
			c-0.25,0.22-0.49,0.47-0.75,0.68c-0.22,0.18-0.46,0.32-0.69,0.47c-0.36,0.25-0.73,0.5-1.1,0.74c-0.09,0.06-0.19,0.11-0.28,0.15
			c-0.15,0.07-0.33,0.09-0.46,0.19c-0.29,0.22-0.65,0.25-0.96,0.42c-0.01,0-0.02,0-0.03,0c-0.57,0.07-1.14,0.17-1.71,0.2
			c-0.42,0.02-0.84-0.08-1.23-0.3c-0.03-0.01-0.06-0.03-0.09-0.03c-0.3-0.02-0.54-0.2-0.79-0.35c-0.29-0.16-0.55-0.35-0.8-0.56
			c-0.42-0.35-0.71-0.8-0.96-1.28c-0.15-0.29-0.3-0.57-0.43-0.86c-0.11-0.24-0.18-0.49-0.26-0.73c-0.28-0.09-0.3-0.07-0.45,0.13
			c-0.28,0.4-0.55,0.79-0.95,1.09c-0.22,0.16-0.37,0.4-0.6,0.54c-0.18,0.11-0.29,0.29-0.46,0.39c-0.02,0.02-0.06,0.03-0.07,0.05
			c-0.17,0.27-0.46,0.4-0.69,0.59c-0.14,0.11-0.27,0.23-0.39,0.35c-0.28,0.26-0.63,0.42-0.98,0.55c-0.08,0.03-0.15,0.08-0.24,0.11
			c-0.34,0.11-0.68,0.21-1.02,0.31c-0.25,0.08-0.5,0.19-0.78,0.15c-0.41,0.25-0.87,0.11-1.32,0.1c-0.29,0-0.59-0.03-0.88-0.06
			c-0.17-0.02-0.33-0.04-0.49-0.15C5.74,34,5.53,33.94,5.34,33.89c-0.55-0.16-0.95-0.56-1.41-0.87c-0.52-0.34-0.85-0.85-1.21-1.33
			c-0.23-0.3-0.48-0.59-0.67-0.9c-0.28-0.44-0.56-0.89-0.74-1.39c-0.18-0.51-0.42-1-0.62-1.51c-0.09-0.23-0.14-0.48-0.21-0.73
			C0.46,27.11,0.44,27.06,0.41,27c-0.02-0.05-0.07-0.09-0.07-0.13c-0.06-0.35-0.12-0.69-0.18-1.04c-0.03-0.17-0.07-0.34-0.1-0.5
			c-0.02-0.08-0.05-0.16-0.05-0.24C0.01,24.18,0,23.27,0,22.36c0-0.15,0.06-0.29,0.09-0.43c0.02-0.07,0.06-0.13,0.05-0.2
			c-0.04-0.45,0.13-0.87,0.18-1.3c0.04-0.35,0.11-0.69,0.19-1.02c0.1-0.44,0.16-0.91,0.4-1.32c0.13-0.22,0.15-0.5,0.23-0.75
			c0.01-0.04,0-0.09,0.02-0.12c0.2-0.27,0.24-0.6,0.33-0.91c0.03-0.09,0.09-0.17,0.12-0.26c0.14-0.35,0.28-0.7,0.43-1.04
			c0.07-0.18,0.16-0.35,0.24-0.53c0.2-0.47,0.43-0.92,0.53-1.43c0.03-0.13,0.09-0.25,0.17-0.36c0.29-0.38,0.39-0.86,0.64-1.26
			c0.22-0.36,0.44-0.73,0.63-1.11c0.2-0.4,0.48-0.74,0.67-1.14c0.25-0.53,0.62-0.98,0.9-1.49c0.04-0.07,0.1-0.12,0.15-0.17
			c0.3-0.33,0.54-0.71,0.79-1.08c0.15-0.21,0.25-0.45,0.4-0.65c0.1-0.14,0.25-0.23,0.35-0.38C7.65,5.23,7.88,5.1,8,4.89
			c0.22-0.38,0.56-0.66,0.85-0.96c0.54-0.56,1.03-1.18,1.66-1.64c0.2-0.14,0.37-0.31,0.56-0.46c0.05-0.04,0.12-0.06,0.18-0.09
			C11.51,1.6,11.78,1.47,12,1.27c0.15-0.14,0.4-0.19,0.61-0.27c0.24-0.09,0.48-0.17,0.72-0.25c0.18-0.06,0.37-0.13,0.56-0.16
			c0.35-0.07,0.66-0.2,0.94-0.4c0.19-0.14,0.41-0.09,0.6,0c0.12,0.06,0.22,0.08,0.33,0c0.06-0.04,0.15-0.03,0.23-0.03
			c0.24,0.01,0.48,0.02,0.73,0.03c0.22,0.01,0.45,0.07,0.62-0.11c0.01-0.01,0.04-0.01,0.06-0.01c0.48-0.01,0.95-0.13,1.44-0.04
			c0.09,0.02,0.18,0.06,0.26,0.07c0.14,0.02,0.29,0.07,0.42,0.04c0.4-0.1,0.82-0.07,1.23-0.05c0.43,0.02,0.87,0.05,1.3,0.08
			c0.15,0.01,0.31,0,0.42,0.14c0.01,0.01,0.04,0.02,0.06,0.02c0.41,0.06,0.63,0.38,0.9,0.64c0.22,0.21,0.44,0.43,0.65,0.65
			c0.05,0.05,0.09,0.1,0.12,0.17c0.06,0.12,0.12,0.23,0.15,0.36c0.02,0.09,0.03,0.22-0.02,0.27c-0.17,0.19-0.33,0.38-0.47,0.59
			c-0.09,0.13-0.29,0.19-0.44,0.27c-0.08,0.04-0.17,0.04-0.26,0.07c-0.43,0.14-0.58,0.58-0.32,0.99c0.16,0.25,0.28,0.5,0.25,0.8
			c-0.01,0.1,0.03,0.22,0.06,0.37c-0.08,0.01-0.17,0.05-0.24,0.03c-0.3-0.06-0.6-0.1-0.88-0.21c-0.27-0.11-0.51-0.28-0.76-0.44
			c-0.29-0.18-0.58-0.31-0.93-0.32c-0.47-0.01-0.95-0.08-1.42-0.1c-0.24-0.01-0.48-0.01-0.7,0.1c-0.13,0.06-0.29,0.06-0.44,0.06
			c-0.12,0.01-0.24,0.01-0.36-0.01c-0.24-0.04-0.45,0.03-0.66,0.12C16.23,5,15.69,5.23,15.18,5.51c-0.3,0.16-0.57,0.37-0.81,0.61
			c-0.25,0.25-0.55,0.41-0.84,0.6c-0.3,0.19-0.6,0.37-0.74,0.72c-0.02,0.04-0.07,0.07-0.1,0.1C12.4,7.82,12.2,8.18,11.96,8.5
			c-0.22,0.31-0.46,0.61-0.69,0.92c-0.17,0.22-0.33,0.45-0.5,0.67c-0.07,0.09-0.15,0.18-0.22,0.27c-0.34,0.4-0.71,0.79-1.02,1.22
			c-0.24,0.32-0.49,0.64-0.73,0.97c-0.16,0.22-0.3,0.45-0.46,0.68c-0.29,0.42-0.59,0.84-0.87,1.27c-0.23,0.35-0.44,0.7-0.65,1.06
			c-0.26,0.45-0.52,0.9-0.69,1.4c-0.06,0.18-0.17,0.35-0.25,0.53c-0.02,0.04-0.03,0.07-0.04,0.11c-0.05,0.2-0.11,0.4-0.15,0.6
			c-0.07,0.34-0.1,0.69-0.21,1.01c-0.15,0.46-0.12,0.95-0.25,1.41c-0.04,0.13-0.05,0.28-0.06,0.42c-0.01,0.81-0.02,1.61-0.02,2.42
			c0,0.24,0,0.48,0.01,0.73c0,0.09-0.01,0.19,0.02,0.27c0.07,0.18,0.07,0.35,0.04,0.54c-0.04,0.23,0.02,0.42,0.22,0.59
			c0.19,0.16,0.36,0.36,0.38,0.64c0,0.06,0.06,0.12,0.1,0.18c0.09,0.13,0.22,0.25,0.23,0.42c0,0.03,0.02,0.06,0.04,0.08
			c0.25,0.31,0.5,0.61,0.76,0.91c0.05,0.06,0.15,0.1,0.23,0.12c0.35,0.07,0.64-0.05,0.95-0.2c0.84-0.4,1.45-1.07,2.12-1.67
			c0.31-0.28,0.59-0.58,0.88-0.88c0.05-0.05,0.09-0.1,0.13-0.15c0.41-0.5,0.83-0.99,1.24-1.49c0.15-0.18,0.29-0.35,0.42-0.54
			c0.38-0.55,0.81-1.06,1.24-1.57c0.16-0.19,0.34-0.39,0.45-0.64c0.07-0.17,0.26-0.27,0.4-0.41c0.24-0.23,0.41-0.53,0.59-0.8
			c0.02-0.02,0.02-0.07,0.04-0.08c0.25-0.05,0.28-0.3,0.41-0.45c0.2-0.25,0.4-0.51,0.56-0.8c0.08-0.15,0.25-0.25,0.35-0.39
			c0.17-0.28,0.38-0.53,0.46-0.86c0.03-0.14,0.11-0.27,0.17-0.4c0.1-0.21,0.21-0.41,0.32-0.62c0.11-0.22,0.19-0.44,0.32-0.65
			c0.18-0.31,0.38-0.6,0.58-0.9c0.12-0.17,0.2-0.38,0.41-0.48c0.09-0.04,0.18-0.1,0.27-0.15c0.06-0.03,0.13-0.06,0.17-0.11
			c0.27-0.29,0.62-0.41,1-0.51c0.53-0.15,1.06-0.13,1.6-0.01c0.2,0.04,0.37,0.16,0.51,0.32c0.22,0.26,0.43,0.52,0.66,0.76
			c0.11,0.12,0.24,0.21,0.37,0.31c0.21,0.16,0.39,0.33,0.47,0.58c0.06,0.17,0.13,0.35,0.14,0.52c0.02,0.19-0.04,0.22-0.23,0.22
			c-0.12,0-0.24,0-0.36,0.01c-0.15,0.01-0.23,0.1-0.24,0.25c-0.01,0.13,0.03,0.22,0.17,0.23c0.14,0.01,0.28,0.02,0.42,0.03
			c0.29,0.02,0.4,0.13,0.39,0.42c-0.01,0.12,0,0.24,0.01,0.36c0.01,0.16-0.03,0.3-0.09,0.45c-0.1,0.27-0.25,0.5-0.4,0.74
			c-0.04,0.06-0.07,0.14-0.12,0.15c-0.18,0.06-0.29,0.19-0.42,0.3c-0.18,0.16-0.23,0.36-0.17,0.59c0.05,0.18,0.05,0.31-0.07,0.49
			c-0.18,0.26-0.27,0.6-0.39,0.9c-0.06,0.13-0.1,0.28-0.18,0.4c-0.11,0.13-0.11,0.29-0.14,0.44c-0.02,0.12-0.11,0.22-0.16,0.33
			c-0.15,0.32-0.29,0.64-0.43,0.95c-0.02,0.04-0.05,0.07-0.04,0.11c0.02,0.3-0.18,0.51-0.29,0.75c-0.08,0.17-0.12,0.35-0.2,0.51
			c-0.11,0.22-0.24,0.44-0.34,0.66c-0.12,0.26-0.23,0.52-0.31,0.8c-0.13,0.48-0.2,0.97-0.2,1.48c0,0.29,0.13,0.55,0.19,0.83
			c0.03,0.13,0.14,0.13,0.25,0.09c0.01-0.03,0.03-0.06,0.03-0.08c0.04-0.32,0.04-0.32,0.37-0.39c0.1-0.02,0.19-0.09,0.27-0.17
			c0.3-0.31,0.61-0.62,0.9-0.94c0.41-0.45,0.74-0.96,1.11-1.45c0.2-0.26,0.39-0.52,0.57-0.79c0.07-0.09,0.11-0.2,0.17-0.3
			c0.26-0.43,0.56-0.85,0.8-1.29c0.2-0.37,0.45-0.72,0.67-1.08c0.21-0.33,0.41-0.67,0.61-1.01c0.21-0.34,0.41-0.68,0.62-1.02
			c0.29-0.49,0.59-0.97,0.87-1.47c0.31-0.57,0.68-1.1,1.1-1.59c0.16-0.19,0.37-0.33,0.6-0.44c0.17-0.08,0.31-0.23,0.46-0.35
			c0.04-0.03,0.07-0.06,0.11-0.09c0.22-0.21,0.5-0.29,0.81-0.26c0.15,0.01,0.3,0.01,0.45,0c0.41-0.04,0.71,0.16,0.98,0.46
			c0.2,0.23,0.42,0.44,0.64,0.65c0.1,0.09,0.22,0.15,0.36,0.24c0.01,0.19,0.02,0.4,0.02,0.61c0,0.05-0.02,0.12-0.06,0.16
			c-0.13,0.17-0.28,0.32-0.39,0.5c-0.06,0.11-0.04,0.26-0.06,0.4c0.09,0.04,0.14,0.06,0.2,0.09c0.23,0.12,0.31,0.28,0.27,0.52
			c-0.06,0.35-0.2,0.68-0.36,0.98c-0.3,0.56-0.59,1.12-0.93,1.65c-0.13,0.21-0.15,0.42-0.18,0.64c-0.01,0.07-0.03,0.14-0.04,0.2
			c-0.02,0.18-0.06,0.35-0.06,0.53c0,0.32,0.06,0.65-0.19,0.91c-0.05,0.06-0.06,0.17-0.07,0.26c-0.06,0.75-0.11,1.5-0.15,2.25
			c-0.02,0.28,0,0.56,0,0.85c0.19,0.09,0.37,0.07,0.47-0.16c0.17-0.35,0.42-0.63,0.64-0.93c0.18-0.26,0.35-0.53,0.52-0.8
			c0.18-0.29,0.36-0.57,0.54-0.86c0.21-0.34,0.42-0.69,0.64-1.03c0.2-0.32,0.41-0.65,0.61-0.97c0.15-0.24,0.29-0.48,0.43-0.72
			c0.01-0.03,0.03-0.05,0.05-0.07c0.13-0.17,0.3-0.33,0.39-0.52c0.17-0.35,0.46-0.62,0.65-0.96c0.31-0.58,0.77-1.06,1.14-1.59
			c0.32-0.47,0.67-0.91,1.07-1.32c0.33-0.33,0.67-0.66,1.02-0.97c0.26-0.23,0.54-0.44,0.84-0.61c0.33-0.18,0.65-0.38,1.03-0.46
			c0.05-0.01,0.1-0.02,0.15-0.02c0.37,0,0.69-0.16,1.03-0.23c0.26-0.06,0.56-0.05,0.83,0.01c0.16,0.04,0.29,0.25,0.42,0.39
			c0.36,0.39,0.72,0.78,1.07,1.17c0.05,0.05,0.09,0.14,0.09,0.21c0.01,0.21,0,0.42-0.01,0.63c-0.01,0.24,0.05,0.42,0.29,0.52
			c0.17,0.07,0.34,0.15,0.5,0.24c0.33,0.2,0.63,0.44,0.9,0.73c0.3,0.33,0.62,0.65,0.92,0.98c0.15,0.17,0.27,0.37,0.41,0.55
			c0.03,0.05,0.09,0.11,0.13,0.11c0.21,0.02,0.43,0.05,0.63,0.01c0.21-0.05,0.39-0.17,0.58-0.27c0.3-0.16,0.59-0.32,0.87-0.51
			c0.22-0.15,0.41-0.36,0.64-0.49c0.46-0.27,0.8-0.69,1.21-1.01c0.42-0.32,0.8-0.7,1.23-1.01c0.23-0.17,0.49-0.34,0.79-0.4
			c0.1-0.02,0.19-0.11,0.32-0.19c0.18,0.02,0.42,0.07,0.66,0.09c0.22,0.02,0.44,0.05,0.65-0.06c0.04-0.02,0.16,0.01,0.19,0.05
			c0.16,0.22,0.38,0.35,0.63,0.43c0.04,0.01,0.08,0.06,0.11,0.1c0.11,0.12,0.22,0.24,0.33,0.36c0.18,0.18,0.17,0.2,0.1,0.41
			c-0.04,0.12-0.07,0.25-0.08,0.37c-0.02,0.26,0.06,0.35,0.32,0.44c0.05,0.02,0.1,0.03,0.14,0.06c0.13,0.13,0.29,0.15,0.46,0.14
			c0.6-0.05,1.06,0.28,1.51,0.63c0.26,0.2,0.53,0.37,0.76,0.61c0.09,0.09,0.27,0.05,0.39-0.1c0.18-0.21,0.35-0.44,0.5-0.67
			c0.32-0.48,0.65-0.96,0.95-1.45c0.16-0.26,0.26-0.55,0.41-0.82c0.09-0.15,0.22-0.26,0.35-0.38c0.42-0.4,0.85-0.78,1.25-1.2
			c0.25-0.27,0.53-0.41,0.91-0.37c0.12,0.01,0.24,0.02,0.36,0.02c0.08,0,0.18,0,0.23-0.04c0.19-0.17,0.42-0.09,0.63-0.06
			c0.21,0.03,0.42,0.09,0.62,0.11c0.15,0.02,0.27,0.05,0.37,0.17c0.16,0.18,0.36,0.28,0.6,0.26c0.19-0.02,0.33,0.07,0.45,0.21
			c0.07,0.08,0.15,0.15,0.23,0.2c0.25,0.13,0.32,0.36,0.39,0.59c0.02,0.05,0,0.12-0.01,0.18c-0.01,0.08-0.05,0.15-0.06,0.23
			c-0.03,0.36-0.17,0.68-0.29,1.01c-0.02,0.06-0.03,0.13-0.04,0.2c-0.01,0.08,0,0.16,0,0.24c-0.01,0.63,0.01,0.65-0.37,1.1
			c-0.2,0.24-0.29,0.54-0.45,0.8c-0.16,0.26-0.25,0.56-0.42,0.81c-0.34,0.48-0.71,0.94-1.08,1.39c-0.32,0.38-0.67,0.72-0.99,1.1
			c-0.14,0.17-0.24,0.39-0.36,0.58c-0.04,0.08-0.09,0.15-0.12,0.23c-0.12,0.28-0.22,0.57-0.37,0.82c-0.16,0.26-0.13,0.59-0.3,0.85
			c-0.12,0.18-0.05,0.32,0.18,0.48c0.25-0.14,0.45-0.33,0.62-0.57c0.16-0.23,0.37-0.43,0.53-0.66c0.18-0.24,0.37-0.46,0.57-0.68
			c0.2-0.23,0.35-0.51,0.53-0.76c0.2-0.28,0.42-0.55,0.63-0.82c0.18-0.24,0.34-0.48,0.51-0.72c0.03-0.04,0.04-0.11,0.07-0.12
			c0.21-0.06,0.3-0.27,0.38-0.42c0.15-0.28,0.38-0.48,0.57-0.72c0.15-0.19,0.3-0.38,0.46-0.56c0.09-0.11,0.17-0.24,0.28-0.33
			c0.41-0.36,0.7-0.82,1.07-1.22c0.06-0.06,0.13-0.11,0.19-0.16c0.04-0.04,0.09-0.08,0.13-0.11c0.08-0.07,0.15-0.14,0.23-0.21
			c0.04-0.04,0.08-0.09,0.12-0.13c0.06-0.06,0.12-0.12,0.18-0.17c0.02-0.02,0.07-0.02,0.08-0.04c0.04-0.25,0.34-0.28,0.42-0.51
			c0.03-0.08,0.11-0.13,0.17-0.19c0.31-0.29,0.61-0.61,1-0.79c0.23-0.1,0.4-0.26,0.62-0.38c0.19-0.1,0.39-0.17,0.57-0.28
			c0.15-0.09,0.32-0.12,0.48-0.17c0.25-0.09,0.49-0.06,0.74-0.02c0.13,0.02,0.27,0.05,0.39,0.02c0.24-0.06,0.45,0.03,0.63,0.17
			c0.17,0.13,0.3,0.3,0.45,0.46c0.13,0.13,0.26,0.26,0.39,0.39c0.16,0.14,0.27,0.3,0.26,0.53c0,0.05,0,0.1,0.01,0.15
			c0.04,0.27,0.23,0.37,0.46,0.25c0.1-0.06,0.21-0.1,0.32-0.14c0.35-0.13,0.64-0.4,1.01-0.49c0.24-0.06,0.48-0.1,0.72-0.17
			c0.22-0.06,0.44-0.15,0.65-0.23c0.07-0.02,0.16-0.06,0.23-0.05c0.33,0.06,0.6-0.08,0.88-0.18c0.24-0.09,0.48-0.1,0.72,0.04
			c0.05,0.03,0.11,0.05,0.17,0.07c0.46,0.1,0.88,0.31,1.29,0.55c0.18,0.11,0.32,0.3,0.48,0.45c0.11,0.1,0.22,0.21,0.33,0.32
			c0.1,0.09,0.21,0.17,0.21,0.32c0,0.06,0.07,0.12,0.1,0.18c0.09,0.15,0.19,0.29,0.18,0.48c0,0.06,0.01,0.13,0.05,0.17
			c0.15,0.18,0.14,0.38,0.07,0.55c-0.13,0.31-0.12,0.63-0.12,0.95c0,0.14,0.01,0.28-0.12,0.38c-0.03,0.02-0.03,0.09-0.05,0.14
			c-0.04,0.12-0.08,0.24-0.11,0.36c-0.02,0.06-0.05,0.12-0.04,0.17c0.05,0.32-0.12,0.58-0.2,0.86c-0.09,0.35-0.27,0.67-0.41,1
			c-0.02,0.04-0.05,0.07-0.04,0.11c0.03,0.36-0.16,0.62-0.31,0.91c-0.03,0.05-0.05,0.12-0.04,0.17c0.04,0.22-0.09,0.33-0.23,0.44
			c-0.08,0.06-0.17,0.11-0.23,0.18c-0.12,0.14-0.2,0.29-0.12,0.49c0.02,0.05,0.04,0.12,0.02,0.18c-0.05,0.21-0.13,0.41-0.18,0.62
			c-0.04,0.16-0.09,0.32-0.12,0.49c-0.09,0.47-0.17,0.94-0.27,1.4c-0.05,0.21-0.04,0.35,0.06,0.42c0.13,0.09,0.43,0.08,0.55-0.01
			c0.01-0.01,0.01-0.02,0.02-0.02c0.35-0.34,0.7-0.67,1.04-1.01c0.18-0.19,0.32-0.41,0.49-0.61c0.14-0.16,0.33-0.28,0.45-0.44
			c0.38-0.5,0.78-0.99,1.15-1.51c0.24-0.35,0.54-0.66,0.76-1.02c0.24-0.39,0.53-0.74,0.79-1.11c0.09-0.13,0.2-0.24,0.29-0.36
			c0.17-0.23,0.34-0.46,0.51-0.69c0.09-0.11,0.2-0.21,0.3-0.32c0.13-0.15,0.25-0.3,0.37-0.45c0.13-0.17,0.26-0.34,0.39-0.51
			c0.13-0.18,0.26-0.36,0.37-0.55c0.23-0.37,0.51-0.69,0.76-1.05c0.1-0.15,0.2-0.31,0.3-0.45c0.1-0.13,0.21-0.25,0.3-0.39
			c0.29-0.42,0.58-0.84,0.86-1.26c0.07-0.1,0.12-0.2,0.21-0.28c0.21-0.19,0.36-0.41,0.48-0.67c0.02-0.04,0.05-0.09,0.09-0.11
			c0.27-0.16,0.4-0.44,0.57-0.69c0.2-0.29,0.41-0.56,0.62-0.84c0.28-0.37,0.54-0.75,0.83-1.11c0.34-0.42,0.6-0.91,0.99-1.29
			c0.06-0.06,0.1-0.14,0.15-0.21c0.12-0.16,0.22-0.34,0.37-0.48c0.28-0.27,0.47-0.6,0.7-0.91c0.15-0.21,0.35-0.39,0.52-0.58
			c0.07-0.08,0.18-0.14,0.21-0.23c0.11-0.27,0.34-0.43,0.53-0.63c0.24-0.26,0.45-0.55,0.69-0.81c0.28-0.31,0.58-0.6,0.84-0.92
			c0.23-0.28,0.45-0.57,0.61-0.88c0.11-0.22,0.31-0.34,0.43-0.54c0.14-0.26,0.3-0.52,0.46-0.77c0.12-0.19,0.24-0.38,0.37-0.56
			c0.32-0.43,0.66-0.84,0.97-1.27c0.24-0.33,0.47-0.65,0.78-0.92c0.1-0.08,0.12-0.25,0.22-0.34c0.15-0.16,0.33-0.3,0.5-0.43
			c0.17-0.13,0.34-0.25,0.51-0.38c0.3-0.24,0.65-0.43,0.99-0.61c0.1-0.05,0.26,0.02,0.45,0.05c0.17-0.13,0.42-0.13,0.69-0.1
			c0.18,0.02,0.36,0.04,0.54,0.06c0.17,0.03,0.33-0.01,0.42-0.15c0.12-0.17,0.28-0.16,0.47-0.1c0.06,0.2,0.23,0.35,0.23,0.6
			c0.01,0.38-0.24,0.6-0.42,0.85c-0.25,0.34-0.41,0.71-0.38,1.15c0.02,0.25,0.01,0.47-0.22,0.63c-0.21,0.15-0.28,0.41-0.41,0.62
			c-0.21,0.36-0.42,0.72-0.63,1.09c-0.11,0.19-0.18,0.41-0.29,0.6c-0.12,0.21-0.26,0.41-0.37,0.62c-0.27,0.5-0.52,1-0.79,1.5
			c-0.18,0.34-0.36,0.68-0.54,1.03c-0.09,0.18-0.16,0.37-0.25,0.56c-0.14,0.31-0.29,0.61-0.43,0.92c-0.09,0.2-0.17,0.41-0.25,0.62
			c-0.11,0.29-0.2,0.59-0.32,0.87c-0.08,0.19-0.2,0.36-0.31,0.54c-0.02,0.03-0.04,0.07-0.04,0.11c0.03,0.44-0.27,0.73-0.42,1.09
			c-0.01,0.04-0.05,0.06-0.06,0.1c-0.07,0.42-0.3,0.76-0.45,1.14c-0.02,0.05-0.05,0.12-0.04,0.17c0.04,0.3-0.12,0.53-0.25,0.77
			C102.18,16.47,102.15,16.61,102.11,16.73z M86.36,29.48c0.03-0.03,0.06-0.06,0.09-0.09c-0.02-0.01-0.03-0.02-0.05-0.03
			C86.39,29.4,86.37,29.45,86.36,29.48c-0.04,0.02-0.08,0.04-0.12,0.05c0.01,0.01,0.02,0.03,0.04,0.04
			C86.3,29.55,86.33,29.52,86.36,29.48z M86.86,28.95c0.62-0.41,0.66-0.48,0.51-0.87C87.15,28.32,86.77,28.45,86.86,28.95z
			 M72.13,29.99c0.15-0.32,0.15-0.43-0.01-0.59C71.81,29.71,71.81,29.79,72.13,29.99z M48.58,24.42c-0.13,0.17-0.25,0.31-0.37,0.47
			C48.54,24.92,48.67,24.75,48.58,24.42z M55.99,18.34c0.27,0.03,0.29,0.02,0.35-0.2C56.06,18.09,56.06,18.09,55.99,18.34z
			 M109.76,17.99c-0.3-0.07-0.3-0.07-0.38,0.24C109.51,18.15,109.61,18.08,109.76,17.99z M88.38,27c0.27,0.01,0.27,0.01,0.19-0.24
			C88.5,26.84,88.46,26.9,88.38,27z M37.92,22.87c0.08-0.11,0.08-0.2,0.01-0.32C37.84,22.65,37.83,22.74,37.92,22.87z M36.91,33.42
			c0.02,0,0.05,0,0.07,0c-0.01-0.05-0.02-0.11-0.02-0.16c-0.02,0-0.03,0-0.05,0C36.91,33.31,36.91,33.37,36.91,33.42z"/>
	</g>
</g>
</svg>
