<?xml version="1.0" encoding="utf-8"?>
<!-- Generator: Adobe Illustrator 28.2.0, SVG Export Plug-In . SVG Version: 6.00 Build 0)  -->
<svg version="1.1" id="Layer_1" xmlns="http://www.w3.org/2000/svg" xmlns:xlink="http://www.w3.org/1999/xlink" x="0px" y="0px"
	 viewBox="0 0 62.92 35" style="enable-background:new 0 0 62.92 35;" xml:space="preserve">
<g>
	<g>
		<path d="M36.43,3.35c0.16,0.03,0.29,0.06,0.43,0.08c0.17,0.01,0.34,0.02,0.51,0.01c0.22-0.01,0.42,0,0.56,0.2
			c0.02,0.02,0.04,0.05,0.07,0.06c0.23,0.08,0.37,0.28,0.57,0.42c0.14,0.1,0.17,0.21,0.18,0.35c0.01,0.18,0.03,0.36,0.01,0.54
			c-0.02,0.25,0.09,0.43,0.29,0.54c0.17,0.09,0.21,0.22,0.21,0.39c0.01,0.31,0,0.62,0.05,0.93c0.05,0.3,0.04,0.6,0,0.9
			c-0.03,0.2-0.03,0.42,0.1,0.61c0.04,0.06,0.03,0.15,0.04,0.23c0.02,0.16,0.02,0.32,0.14,0.45c0.04,0.05,0.06,0.13,0.05,0.2
			c-0.01,0.3,0.15,0.55,0.27,0.81c0.03,0.07,0.08,0.15,0.08,0.22c0,0.29,0.1,0.55,0.18,0.81c0.01,0.03,0.01,0.06,0.03,0.09
			c0.24,0.29,0.17,0.64,0.18,0.97c0,0.05,0,0.1,0,0.15c-0.02,0.29,0.01,0.57,0.21,0.81c0.14,0.17,0.15,0.36,0.15,0.57
			c0,1.16,0.01,2.32,0.02,3.48c0,0.17,0.05,0.33,0.08,0.5c0.02,0.15,0.04,0.3,0.04,0.45c0.02,1.57,0.03,3.14,0.05,4.71
			c0,0.5,0,0.49,0.5,0.5c0.28,0,0.42-0.14,0.53-0.38c0.07-0.16,0.24-0.27,0.32-0.42c0.17-0.32,0.46-0.56,0.58-0.92
			c0.01-0.04,0.08-0.06,0.1-0.1c0.08-0.13,0.16-0.27,0.25-0.4c0.07-0.1,0.14-0.19,0.22-0.27c0.22-0.21,0.38-0.44,0.52-0.72
			c0.15-0.31,0.36-0.58,0.55-0.87c0.29-0.46,0.58-0.93,0.89-1.38c0.14-0.21,0.33-0.39,0.43-0.63c0.09-0.25,0.27-0.43,0.43-0.63
			c0.13-0.18,0.23-0.38,0.36-0.57c0.15-0.21,0.35-0.39,0.46-0.61c0.11-0.24,0.32-0.39,0.43-0.62c0.06-0.12,0.11-0.23,0.25-0.28
			c0.04-0.02,0.09-0.08,0.1-0.13c0.09-0.35,0.34-0.56,0.62-0.76c0.03-0.02,0.07-0.05,0.08-0.08c0.08-0.31,0.35-0.47,0.55-0.69
			c0.42-0.48,0.83-0.96,1.26-1.42c0.62-0.65,1.25-1.28,1.89-1.91c0.56-0.56,1.14-1.11,1.72-1.66c0.18-0.17,0.37-0.33,0.56-0.48
			c0.26-0.22,0.56-0.38,0.79-0.65c0.14-0.16,0.35-0.26,0.52-0.38c0.41-0.3,0.8-0.64,1.25-0.89c0.26-0.15,0.47-0.34,0.71-0.51
			c0.13-0.09,0.27-0.17,0.4-0.25c0.14-0.09,0.3-0.15,0.43-0.26c0.26-0.2,0.55-0.33,0.83-0.49c0.25-0.14,0.49-0.14,0.74-0.16
			c0.06,0,0.13,0,0.17-0.03c0.18-0.16,0.39-0.13,0.6-0.15c0.13-0.01,0.25-0.06,0.37-0.1c0.09-0.02,0.17-0.06,0.26-0.07
			c0.11-0.02,0.21-0.02,0.29-0.12c0.04-0.04,0.12-0.06,0.19-0.07c0.2-0.01,0.4,0.01,0.6-0.01c0.32-0.02,0.38,0.33,0.24,0.51
			c-0.07,0.09-0.15,0.17-0.24,0.22c-0.26,0.15-0.54,0.29-0.81,0.42c-0.1,0.05-0.14,0.12-0.12,0.22c0.05,0.27-0.06,0.45-0.25,0.62
			c-0.16,0.14-0.15,0.23,0.02,0.34c0.12,0.08,0.26,0.13,0.4,0.18c0.2,0.08,0.41,0.14,0.61,0.22c0.1,0.04,0.12,0.24,0.02,0.31
			c-0.14,0.09-0.3,0.21-0.45,0.21c-0.54-0.02-0.9,0.26-1.25,0.62c-0.6,0.61-1.22,1.21-1.83,1.82c-0.42,0.42-0.83,0.84-1.25,1.26
			c-0.23,0.23-0.47,0.45-0.67,0.7c-0.12,0.15-0.22,0.33-0.29,0.51c-0.1,0.25-0.32,0.4-0.48,0.59c-0.12,0.14-0.26,0.27-0.37,0.42
			c-0.35,0.47-0.7,0.93-1.15,1.32c-0.1,0.09-0.17,0.22-0.26,0.32c-0.04,0.05-0.09,0.1-0.15,0.14c-0.38,0.27-0.68,0.62-0.9,1.04
			c-0.08,0.15-0.19,0.27-0.3,0.4c-0.2,0.22-0.39,0.46-0.63,0.62c-0.21,0.14-0.31,0.38-0.53,0.5c-0.07,0.04-0.12,0.16-0.13,0.25
			c-0.02,0.18-0.01,0.36,0,0.54c0.02,0.29-0.14,0.47-0.37,0.59c-0.11,0.05-0.15,0.13-0.22,0.22c-0.17,0.23-0.36,0.44-0.56,0.65
			c-0.03,0.03-0.11,0.03-0.17,0.04c-0.08,0.01-0.16,0-0.24,0.01c-0.19,0.03-0.26,0.13-0.19,0.32c0.08,0.21-0.05,0.36-0.13,0.52
			c-0.02,0.04-0.12,0.05-0.19,0.05c-0.31,0.01-0.5,0.17-0.65,0.43c-0.1,0.17-0.26,0.31-0.4,0.47c-0.03,0.04-0.09,0.06-0.1,0.1
			c-0.07,0.26-0.26,0.46-0.33,0.7c-0.06,0.18-0.17,0.3-0.26,0.44c-0.04,0.07-0.1,0.14-0.16,0.17c-0.1,0.05-0.15,0.11-0.2,0.2
			c-0.04,0.07-0.13,0.12-0.19,0.19c-0.04,0.04-0.1,0.07-0.12,0.12c-0.07,0.26-0.23,0.45-0.4,0.64c-0.15,0.18-0.32,0.35-0.45,0.54
			c-0.1,0.13-0.18,0.28-0.22,0.44c-0.1,0.36-0.28,0.67-0.48,0.97c-0.1,0.14-0.17,0.31-0.24,0.46c-0.15,0.31-0.29,0.63-0.43,0.94
			c-0.1,0.22-0.19,0.45-0.3,0.68c-0.19,0.39-0.39,0.77-0.59,1.16c-0.01,0.03-0.03,0.05-0.06,0.07c-0.32,0.19-0.44,0.52-0.61,0.82
			c-0.12,0.21-0.27,0.41-0.4,0.63c-0.33,0.54-0.65,1.09-0.97,1.63c-0.03,0.06-0.04,0.13-0.07,0.19c-0.04,0.07-0.07,0.14-0.13,0.18
			c-0.27,0.18-0.52,0.39-0.64,0.71c-0.03,0.07-0.05,0.15-0.08,0.22c-0.04,0.12-0.08,0.24-0.12,0.36c-0.02,0.07-0.06,0.14-0.05,0.2
			c0.04,0.28-0.08,0.5-0.23,0.71c-0.09,0.13-0.18,0.18-0.29,0.09c-0.12-0.1-0.27-0.07-0.38-0.15c-0.11-0.07-0.22-0.12-0.32-0.18
			c-0.17-0.09-0.3-0.24-0.45-0.37c-0.08-0.07-0.15-0.15-0.22-0.23c-0.1-0.09-0.2-0.1-0.32-0.01c-0.12,0.09-0.25,0.16-0.39,0.21
			c-0.07,0.03-0.18,0.01-0.25-0.03c-0.13-0.06-0.24-0.06-0.36,0.02c-0.06,0.04-0.13,0.08-0.19,0.08c-0.32-0.03-0.53,0.15-0.78,0.3
			c-0.16,0.1-0.34,0.21-0.53,0.24c-0.47,0.07-0.75-0.14-0.95-0.59c-0.1-0.22-0.22-0.45-0.4-0.61c-0.21-0.2-0.34-0.44-0.45-0.67
			c-0.11-0.24-0.26-0.5-0.23-0.79c0.01-0.06-0.03-0.13-0.05-0.2c-0.01-0.04-0.05-0.07-0.06-0.1c-0.08-0.44-0.17-0.87-0.24-1.31
			c-0.02-0.16-0.07-0.31-0.1-0.46c-0.07-0.41-0.3-0.78-0.27-1.21c0.01-0.12,0.01-0.24,0-0.36c-0.01-0.13-0.05-0.25-0.08-0.37
			c-0.01-0.04-0.03-0.07-0.04-0.11c-0.07-0.62-0.3-1.22-0.24-1.86c0.02-0.2,0.01-0.4,0-0.6c-0.02-0.24-0.06-0.47-0.09-0.71
			c-0.01-0.07-0.02-0.14-0.02-0.21c-0.01-0.58-0.02-1.16-0.03-1.74c-0.01-0.6-0.02-1.2-0.03-1.8c0-0.02,0-0.04,0-0.06
			c-0.22-0.91-0.15-1.84-0.18-2.77c-0.01-0.23-0.06-0.45-0.08-0.68c-0.03-0.31-0.05-0.62-0.06-0.93c-0.02-1.35-0.03-2.7-0.05-4.05
			c0-0.14-0.05-0.27-0.07-0.41c-0.01-0.08-0.04-0.16-0.04-0.24c-0.01-0.86-0.04-1.72-0.01-2.58c0.01-0.45,0.11-0.91,0.2-1.36
			c0.05-0.24,0.16-0.47,0.24-0.7c0.01-0.03,0.03-0.06,0.03-0.08c0-0.4,0.2-0.74,0.37-1.08c0.03-0.05,0.03-0.12,0.04-0.17
			c0.01-0.05,0.02-0.12,0.05-0.14c0.29-0.16,0.33-0.49,0.52-0.71c0.13-0.15,0.27-0.28,0.4-0.43c0.08-0.1,0.24-0.17,0.38-0.2
			c0.14-0.03,0.22-0.1,0.3-0.21c0.09-0.13,0.23-0.19,0.39-0.17c0.13,0.01,0.26,0,0.39,0C36.17,3.6,36.42,3.65,36.43,3.35z"/>
		<path d="M28.64,6.43c-0.15-0.04-0.26-0.06-0.37-0.1c-0.06-0.02-0.1-0.08-0.16-0.11c-0.2-0.15-0.38-0.32-0.61-0.45
			c-0.22-0.12-0.42-0.14-0.64-0.15c-0.13,0-0.25-0.01-0.36-0.11c-0.05-0.05-0.15-0.05-0.23-0.08c-0.01,0.02-0.03,0.04-0.04,0.07
			c0.08,0.09,0.16,0.18,0.25,0.26c0.13,0.13,0.24,0.26,0.27,0.45c0.01,0.08,0.05,0.18,0.11,0.24c0.21,0.24,0.29,0.55,0.55,0.76
			c0.1,0.08,0.08,0.22,0.01,0.33c-0.05,0.08-0.24,0.08-0.33,0C26.83,7.3,26.51,7.17,26.22,7c-0.24-0.14-0.49-0.31-0.65-0.58
			c-0.12-0.21-0.32-0.36-0.5-0.54c-0.36-0.35-0.7-0.71-1.08-1.03c-0.24-0.2-0.53-0.34-0.79-0.5c-0.04-0.03-0.07-0.07-0.11-0.1
			c-0.28-0.19-0.55-0.38-0.84-0.56c-0.19-0.12-0.4-0.22-0.6-0.31c-0.07-0.03-0.2-0.05-0.24-0.01c-0.08,0.08-0.04,0.16,0.05,0.25
			c0.16,0.14,0.32,0.28,0.52,0.37c0.15,0.07,0.26,0.23,0.41,0.33c0.31,0.23,0.65,0.41,0.94,0.67c0.44,0.38,0.84,0.8,1.25,1.21
			c0.15,0.15,0.31,0.31,0.45,0.47c0.1,0.11,0.11,0.36,0.03,0.47c-0.07,0.1-0.23,0.1-0.29-0.03c-0.16-0.34-0.48-0.53-0.72-0.8
			c-0.34-0.37-0.79-0.59-1.19-0.86c-0.41-0.27-0.81-0.56-1.24-0.81c-0.36-0.22-0.75-0.39-1.12-0.58c-0.02-0.01-0.04-0.01-0.06-0.01
			c-0.42,0.01-0.78-0.2-1.16-0.34c-0.02-0.01-0.04-0.01-0.06-0.02c-0.54-0.07-1.08-0.15-1.62-0.19c-0.36-0.03-0.72-0.01-1.08-0.01
			c-0.22,0-0.43,0-0.64,0.11c-0.14,0.07-0.33,0.08-0.5,0.06c-0.29-0.03-0.52,0.12-0.76,0.22c-0.2,0.08-0.38,0.23-0.56,0.34
			c0.14,0.38,0.09,0.48-0.21,0.67c-0.29,0.18-0.56,0.38-0.81,0.62c-0.26,0.25-0.54,0.49-0.79,0.76c-0.19,0.21-0.36,0.44-0.53,0.67
			c-0.13,0.17-0.25,0.35-0.37,0.53c-0.18,0.26-0.37,0.51-0.54,0.77c-0.17,0.27-0.38,0.53-0.48,0.83c-0.1,0.33-0.33,0.58-0.45,0.89
			c-0.12,0.3-0.3,0.57-0.45,0.86c-0.09,0.19-0.14,0.41-0.25,0.59c-0.13,0.22-0.13,0.5-0.31,0.7c-0.04,0.04-0.03,0.13-0.05,0.2
			c-0.08,0.28-0.17,0.56-0.22,0.85c-0.03,0.2-0.18,0.38-0.27,0.58c-0.03,0.07-0.04,0.15-0.04,0.23c-0.01,0.18,0.03,0.37-0.02,0.54
			c-0.08,0.27-0.11,0.57-0.22,0.82c-0.09,0.21-0.11,0.41-0.12,0.63c0,0.07,0,0.17-0.04,0.2c-0.17,0.12-0.13,0.3-0.13,0.46
			c0,0.13,0,0.26,0,0.39c0,0.07,0.01,0.16-0.03,0.2c-0.19,0.19-0.14,0.43-0.15,0.65c-0.01,0.27,0.01,0.54-0.01,0.81
			c-0.01,0.16-0.07,0.33-0.11,0.49c-0.02,0.07-0.05,0.13-0.05,0.2c-0.01,0.17-0.01,0.33-0.14,0.47C7.22,19.88,7.23,20,7.23,20.09
			c-0.01,0.28-0.01,0.56-0.02,0.84c-0.01,0.18,0.01,0.35-0.13,0.51c-0.05,0.06-0.04,0.17-0.04,0.26c0,0.45-0.03,0.9,0.01,1.35
			c0.03,0.33,0.12,0.66,0.21,0.97c0.1,0.33,0.22,0.68,0.46,0.95c0.07,0.08,0.08,0.2,0.13,0.29c0.25,0.41,0.62,0.7,0.95,1.03
			c0.29,0.29,0.58,0.57,0.86,0.87c0.4,0.43,0.84,0.8,1.34,1.1c0.19,0.12,0.41,0.29,0.68,0.24c0.06-0.01,0.12,0.01,0.17,0.03
			c0.21,0.08,0.42,0.18,0.63,0.26c0.29,0.1,0.6,0.09,0.88-0.01c0.22-0.07,0.42-0.1,0.64-0.11c0.24-0.01,0.47-0.01,0.7-0.11
			c0.17-0.07,0.37-0.05,0.56-0.06c0.19-0.01,0.38,0.01,0.54-0.12c0.06-0.05,0.17-0.05,0.26-0.05c0.18-0.02,0.34-0.03,0.51-0.12
			c0.14-0.08,0.35-0.05,0.53-0.06c0.17-0.01,0.32-0.03,0.48-0.12c0.18-0.1,0.4-0.14,0.6-0.23c0.22-0.11,0.45-0.21,0.67-0.32
			c0.46-0.21,0.82-0.56,1.26-0.79c0.01,0,0.02-0.01,0.03-0.01c0.26-0.27,0.52-0.54,0.78-0.81c0.29-0.31,0.57-0.63,0.86-0.93
			c0.14-0.15,0.32-0.26,0.48-0.39c0.03-0.02,0.07-0.05,0.08-0.09c0.06-0.27,0.3-0.41,0.45-0.62c0.23-0.32,0.55-0.59,0.69-0.99
			c0.05-0.14,0.16-0.28,0.27-0.39c0.11-0.1,0.5-0.08,0.63,0.01c0.12,0.08,0.24,0.18,0.36,0.26c0.47,0.28,0.44,0.81,0.3,1.13
			c-0.14,0.31-0.27,0.61-0.31,0.96c-0.03,0.3-0.07,0.6-0.16,0.88c-0.09,0.28-0.26,0.53-0.4,0.79c-0.07,0.13-0.16,0.24-0.25,0.38
			c0.14,0.1,0.28,0.21,0.44,0.33c-0.04,0.05-0.08,0.1-0.12,0.15c-0.07,0.1-0.14,0.19-0.19,0.29c-0.13,0.24-0.34,0.39-0.53,0.55
			c-0.29,0.23-0.57,0.47-0.9,0.64c-0.3,0.16-0.55,0.41-0.9,0.51c-0.18,0.05-0.38,0.22-0.47,0.39c-0.15,0.29-0.4,0.48-0.62,0.7
			c-0.29,0.31-0.59,0.6-0.9,0.88c-0.18,0.16-0.4,0.29-0.6,0.43c-0.22,0.15-0.43,0.3-0.66,0.45c-0.28,0.18-0.53,0.4-0.76,0.64
			c-0.15,0.15-0.37,0.24-0.56,0.35c-0.22,0.12-0.45,0.24-0.67,0.35c-0.05,0.03-0.12,0.02-0.17,0.04c-0.1,0.03-0.2,0.07-0.3,0.11
			c-0.18,0.08-0.37,0.16-0.55,0.25c-0.2,0.09-0.39,0.2-0.59,0.3c-0.01,0-0.01,0.02-0.02,0.02c-0.27,0-0.49,0.19-0.75,0.23
			c-0.06,0.01-0.14-0.01-0.17,0.03c-0.21,0.21-0.46,0.14-0.71,0.15c-0.14,0.01-0.28,0-0.42,0c-0.06,0-0.14-0.01-0.17,0.03
			c-0.18,0.19-0.4,0.14-0.62,0.15c-0.23,0.01-0.46-0.02-0.67,0.12c-0.07,0.05-0.19,0.04-0.29,0.05C10.4,35,9.75,35,9.1,35
			c-0.11,0-0.22-0.07-0.33-0.1c-0.1-0.03-0.21-0.05-0.31-0.06c-0.15-0.01-0.27-0.04-0.41-0.12c-0.16-0.09-0.35-0.16-0.52-0.24
			c-0.19-0.1-0.39-0.21-0.58-0.29c-0.27-0.12-0.46-0.36-0.74-0.47C6,33.63,5.84,33.42,5.66,33.27c-0.3-0.25-0.61-0.5-0.9-0.77
			c-0.41-0.37-0.79-0.76-1.2-1.14c-0.2-0.19-0.42-0.35-0.62-0.53c-0.13-0.12-0.23-0.27-0.34-0.41c-0.17-0.21-0.35-0.42-0.5-0.64
			c-0.12-0.18-0.21-0.37-0.32-0.56c-0.14-0.24-0.28-0.47-0.42-0.7c-0.03-0.04-0.08-0.09-0.08-0.12c0.04-0.25-0.22-0.39-0.22-0.63
			c-0.21-0.14-0.12-0.43-0.3-0.59C0.76,26.9,0.49,26.7,0.52,26.4c0.01-0.06-0.05-0.12-0.08-0.19c-0.03-0.08-0.08-0.16-0.08-0.25
			c-0.02-0.2,0.02-0.4-0.15-0.55C0.2,25.41,0.2,25.39,0.2,25.38c0.04-0.39-0.18-0.73-0.19-1.11c-0.01-0.62-0.01-1.24,0.01-1.86
			c0-0.17,0.07-0.35,0.11-0.52c0.02-0.09,0.04-0.17,0.04-0.26c0.01-0.18,0-0.36,0.01-0.54c0-0.09-0.01-0.2,0.03-0.26
			c0.2-0.31,0.12-0.66,0.14-0.99c0.01-0.3-0.04-0.6,0.15-0.87c0.04-0.05,0.02-0.14,0.02-0.2c0.01-0.2-0.01-0.4,0.15-0.56
			c0.01-0.34,0.13-0.65,0.21-0.98c0.04-0.16,0-0.34,0.14-0.48c0.01-0.01,0.03-0.04,0.03-0.05C1,16.39,1.17,16.13,1.27,15.86
			c0.1-0.28,0.13-0.58,0.28-0.85c0.04-0.07,0.04-0.15,0.07-0.23c0.09-0.26,0.17-0.51,0.23-0.78c0.08-0.3,0.2-0.59,0.33-0.87
			c0.15-0.33,0.23-0.71,0.47-1c0.02-0.02,0.03-0.05,0.03-0.08c0.08-0.43,0.29-0.8,0.49-1.18c0.15-0.3,0.27-0.61,0.43-0.9
			c0.26-0.46,0.46-0.95,0.78-1.39c0.22-0.3,0.43-0.61,0.63-0.93c0.28-0.45,0.66-0.81,0.98-1.22c0.5-0.65,1.09-1.22,1.66-1.8
			c0.38-0.39,0.75-0.79,1.19-1.1c0.25-0.18,0.45-0.4,0.69-0.58c0.23-0.17,0.49-0.29,0.73-0.43c0.24-0.14,0.47-0.3,0.72-0.43
			c0.21-0.11,0.4-0.27,0.66-0.3c0.16-0.02,0.3-0.17,0.46-0.25c0.25-0.12,0.38-0.37,0.6-0.51c0.04-0.03,0.07-0.09,0.11-0.09
			c0.38,0.01,0.71-0.27,1.1-0.22c0.17,0.02,0.36,0.05,0.49-0.14c0.39-0.05,0.66-0.39,1.06-0.41c0.04,0,0.08-0.02,0.11-0.05
			C15.66-0.01,15.81,0,15.95,0c1.16,0.01,2.32,0.01,3.48,0.02c0.14,0,0.29,0.07,0.43,0.1c0.14,0.03,0.27,0.05,0.41,0.06
			c0.27,0.02,0.54-0.01,0.78,0.15c0.08,0.05,0.21,0.03,0.32,0.03c0.18,0,0.35,0.02,0.52,0.12c0.07,0.04,0.17,0.05,0.26,0.06
			c0.12,0.01,0.24,0,0.32,0.12c0.01,0.02,0.05,0.05,0.07,0.05c0.25-0.04,0.45,0.1,0.63,0.22c0.24,0.16,0.55,0.1,0.76,0.3
			c0.03,0.03,0.09,0.03,0.14,0.03c0.15,0,0.3,0,0.4,0.15c0.49,0.15,0.83,0.54,1.27,0.78c0.23,0.13,0.42,0.35,0.61,0.55
			c0.39,0.4,0.77,0.81,1.17,1.2c0.21,0.21,0.32,0.47,0.47,0.71c0.08,0.12,0.15,0.25,0.22,0.38c0.19,0.36,0.32,0.74,0.36,1.15
			C28.57,6.25,28.61,6.32,28.64,6.43z M15.86,1.8c0.24,0,0.47-0.01,0.71,0c0.2,0.01,0.32-0.09,0.4-0.28
			C16.58,1.54,16.17,1.38,15.86,1.8z M14.99,1.91c0.21,0.09,0.41,0.11,0.66,0C15.39,1.78,15.19,1.79,14.99,1.91z M19.1,1.91
			c0,0.02,0,0.03,0,0.05c0.05,0,0.1-0.01,0.15-0.01c0-0.02,0-0.03-0.01-0.05C19.19,1.9,19.14,1.9,19.1,1.91z M22.34,2.88
			c0.02-0.03,0.05-0.05,0.05-0.07c0-0.02-0.03-0.05-0.05-0.05c-0.01,0-0.05,0.03-0.05,0.05C22.29,2.83,22.32,2.85,22.34,2.88z"/>
	</g>
</g>
</svg>
