<?xml version="1.0" encoding="utf-8"?>
<!-- Generator: Adobe Illustrator 28.2.0, SVG Export Plug-In . SVG Version: 6.00 Build 0)  -->
<svg version="1.1" id="Layer_1" xmlns="http://www.w3.org/2000/svg" xmlns:xlink="http://www.w3.org/1999/xlink" x="0px" y="0px"
	 viewBox="0 0 35.02 35" style="enable-background:new 0 0 35.02 35;" xml:space="preserve">
<g>
	<g>
		<path d="M11.92,30.13c0.13-0.11,0.15-0.25,0.27-0.34c0.11-0.08,0.18-0.21,0.27-0.32c0.04-0.04,0.09-0.08,0.13-0.13
			c0.08-0.08,0.16-0.15,0.23-0.23c0,0,0,0,0,0c0.07-0.06,0.13-0.13,0.2-0.19c0.11-0.11,0.15-0.28,0.27-0.39
			c0.08-0.07,0.17-0.13,0.2-0.24c0-0.02,0.07-0.02,0.08-0.05c0.19-0.2,0.39-0.4,0.58-0.59c0.01,0.01,0.02,0.01,0.02,0.02
			c0.01-0.06,0.01-0.12,0.02-0.19c0.1-0.05,0.19-0.1,0.23-0.22c0.02-0.06,0.07-0.11,0.12-0.15c0.06-0.06,0.13-0.11,0.19-0.16
			c0.01-0.01,0.01-0.02,0.02-0.03c0.04-0.18,0.22-0.25,0.33-0.37c0.06-0.07,0.07-0.1,0-0.16c-0.07-0.06-0.13-0.13-0.2-0.19
			c-0.02-0.02-0.06-0.01-0.1-0.02c-0.06-0.01-0.13,0-0.13-0.09c0-0.01-0.02-0.03-0.02-0.03c-0.13,0.04-0.22-0.06-0.28-0.13
			c-0.12-0.14-0.35-0.12-0.43-0.31c0,0-0.01-0.01-0.01-0.01c-0.14,0.03-0.2-0.12-0.31-0.15c-0.07-0.02-0.13-0.08-0.19-0.13
			c-0.05-0.03-0.12-0.06-0.13-0.1c-0.04-0.13-0.2-0.09-0.25-0.2c-0.03-0.06-0.12-0.09-0.19-0.13c-0.09-0.05-0.18-0.09-0.26-0.15
			c-0.06-0.05-0.1-0.12-0.15-0.19c-0.01-0.01-0.02-0.02-0.03-0.02c-0.16,0-0.24-0.11-0.33-0.22c-0.03-0.04-0.09-0.06-0.12-0.11
			c-0.08-0.03-0.16-0.03-0.22-0.13c-0.05-0.07-0.18-0.09-0.27-0.13c-0.02-0.01-0.04-0.01-0.05-0.02c-0.05-0.06-0.1-0.13-0.15-0.19
			c-0.02-0.02-0.05-0.02-0.08-0.02c-0.08,0-0.16-0.01-0.14-0.12c-0.07-0.01-0.13-0.01-0.18-0.02c0.01-0.01,0.01-0.02,0.02-0.03
			c-0.08-0.07-0.18-0.12-0.25-0.2c-0.07-0.09-0.15-0.11-0.24-0.12c-0.02,0-0.03-0.06-0.05-0.09c-0.06-0.01-0.13-0.01-0.19-0.02
			c0-0.01,0.01-0.02,0.01-0.03c-0.04-0.03-0.1-0.05-0.13-0.09c-0.09-0.15-0.24-0.06-0.35-0.11c-0.05-0.02-0.09-0.06-0.14-0.09
			c-0.01-0.01-0.02-0.02-0.03-0.02c-0.12,0.01-0.21-0.08-0.3-0.09c-0.32-0.04-0.64-0.04-0.96-0.04c-0.04,0-0.09,0.05-0.13,0.08
			c-0.01,0.01-0.03,0.03-0.04,0.03c-0.16-0.02-0.27,0.09-0.4,0.14c-0.12,0.06-0.24,0.12-0.36,0.18c-0.02,0.01-0.05,0.02-0.07,0.03
			c-0.17,0.05-0.28,0.17-0.39,0.3c-0.01,0.01-0.02,0.03-0.03,0.03c-0.17,0.06-0.34,0.11-0.52,0.17c0.01,0.1-0.08,0.09-0.15,0.09
			c-0.06,0-0.12-0.01-0.18,0c-0.12,0.03-0.24,0.07-0.35,0.12c-0.05,0.02-0.09,0.09-0.13,0.13c-0.12,0.11-0.23,0.11-0.36,0.01
			c-0.07-0.05-0.3-0.02-0.35,0.05c-0.01,0.01-0.02,0.03-0.03,0.04c-0.14,0.04-0.28,0.08-0.42,0.12c-0.05,0.01-0.12-0.02-0.14,0.08
			c-0.01,0.02-0.09,0.03-0.14,0.05c-0.07,0.02-0.17-0.03-0.21,0.09c0,0.02-0.07,0.01-0.11,0.02c-0.12,0.06-0.24,0.13-0.36,0.19
			c-0.03,0.02-0.07,0.02-0.11,0.02c-0.26,0.01-0.53,0.01-0.79,0.01c-0.06,0-0.12,0-0.15,0.08c-0.02,0.06-0.09,0.09-0.14,0.14
			c-0.11,0.11-0.23,0.22-0.35,0.33c-0.02,0.02-0.06,0.01-0.08,0.03c-0.04,0.02-0.09,0.05-0.13,0.08c-0.03,0.02-0.06,0.03-0.09,0.04
			c-0.06,0.02-0.14-0.01-0.16,0.09c0,0.01-0.07,0.01-0.1,0.03c-0.07,0.03-0.14,0.07-0.22,0.09c-0.12,0.03-0.2,0.18-0.38,0.11
			c0-0.08-0.01-0.17,0.01-0.26c0.01-0.06,0.07-0.12,0.12-0.14c0.09-0.04,0.14-0.13,0.25-0.17c0.11-0.04,0.26-0.05,0.35-0.17
			c0.02-0.02,0.06-0.03,0.09-0.03c0.09,0,0.14-0.04,0.12-0.13c-0.04-0.2,0.08-0.36,0.15-0.53c0.03-0.08,0.08-0.15,0.09-0.23
			c0-0.02,0.03-0.04,0.05-0.05c0.09-0.02,0.07-0.08,0.05-0.13c-0.02-0.04-0.06-0.09-0.1-0.09c-0.09,0-0.2-0.05-0.26,0.06
			c-0.01,0.02-0.07,0.02-0.11,0.02c-0.13,0.01-0.25,0-0.38,0.01c-0.06,0-0.13,0.01-0.18,0.04c-0.08,0.05-0.15,0.1-0.21,0.01
			c-0.07-0.1-0.03-0.21,0.08-0.27c0.15-0.07,0.19-0.21,0.24-0.35c0.03-0.09,0-0.12-0.09-0.13c-0.13-0.01-0.21-0.21-0.11-0.31
			c0.04-0.04,0.12-0.03,0.19-0.05c0.04-0.08-0.04-0.21,0.12-0.24c0.01,0,0.02-0.05,0.02-0.08c0-0.11,0-0.22,0-0.3
			c0.1-0.11,0.19-0.19,0.27-0.28c0.06-0.05,0.18,0.02,0.23-0.12c0.01-0.02,0.09-0.01,0.14-0.02c0.07-0.01,0.16,0.01,0.19-0.09
			c0-0.02,0.06-0.02,0.09-0.03c0.05-0.02,0.14,0.02,0.14-0.09c0-0.01,0.02-0.02,0.03-0.02c0.09-0.01,0.17-0.03,0.25-0.1
			c0.11-0.1,0.3-0.11,0.45-0.15c0.02-0.01,0.06,0,0.06-0.01c0.03-0.14,0.14-0.07,0.2-0.09c0.11-0.1,0.19-0.21,0.33-0.23
			c0.08-0.01,0.17,0.03,0.2-0.1c0.01-0.03,0.12-0.03,0.17-0.06c0.04-0.03,0.08-0.06,0.12-0.09c0.06-0.05,0.11-0.12,0.17-0.17
			c0.02-0.02,0.05-0.03,0.08-0.04c0.08-0.01,0.17-0.01,0.25-0.02c0.05-0.01,0.13,0.02,0.13-0.08c0-0.01,0.01-0.02,0.01-0.02
			c0.14,0.04,0.22-0.1,0.34-0.13c0.04-0.01,0.08-0.05,0.12-0.07c0-0.01-0.01-0.03-0.01-0.04c0.05,0,0.1,0,0.15,0
			c0.02,0,0.06-0.01,0.06-0.02c0.02-0.14,0.13-0.09,0.18-0.1c0.21-0.24,0.52-0.29,0.73-0.49c0.17-0.15,0.33-0.33,0.57-0.33
			c0.08-0.08,0.14-0.15,0.21-0.22c0.08-0.07,0.17-0.1,0.26-0.15c0.12-0.06,0.2-0.19,0.29-0.28c0.01-0.01,0.02-0.02,0.03-0.02
			c0.09-0.01,0.16-0.08,0.23-0.1c0.1-0.03,0.16-0.12,0.26-0.15c0.03-0.01,0.04-0.07,0.04-0.08c0.15-0.11,0.28-0.2,0.41-0.3
			c0,0,0,0,0.01,0c0.04-0.03,0.11-0.05,0.12-0.09c0.05-0.15,0.31-0.08,0.31-0.29c0-0.02,0.06-0.04,0.09-0.05
			c0.1-0.05,0.2-0.08,0.29-0.14c0.07-0.05,0.1-0.13,0.16-0.19c0.06-0.06,0.13-0.09,0.19-0.15c0.06-0.06,0.11-0.13,0.16-0.19
			c0.04-0.04,0.08-0.09,0.12-0.13c0.06-0.05,0.16-0.08,0.19-0.14c0.06-0.13,0.28-0.11,0.27-0.29c0,0,0-0.01,0-0.01
			c0.2,0.01,0.2-0.26,0.38-0.29c0.06-0.01,0.1-0.1,0.15-0.15c0.03-0.03,0.07-0.06,0.1-0.09c0.08-0.08,0.15-0.15,0.23-0.23
			c0,0,0,0,0.01,0.01c0.06-0.07,0.13-0.14,0.19-0.21c0.03-0.03,0.06-0.06,0.07-0.09c0.02-0.07,0.05-0.13,0.13-0.14
			c0.04-0.01,0.18-0.15,0.23-0.2c0.05-0.05,0.1-0.09,0.16-0.12c0.09-0.06,0.19-0.09,0.26-0.16c0.05-0.05,0.08-0.1,0.15-0.14
			c0.06-0.03,0.08-0.12,0.13-0.17c0.06-0.05,0.13-0.09,0.2-0.14c0.05-0.05,0.1-0.1,0.14-0.16c0.03-0.03,0.06-0.07,0.11-0.12
			c0.06-0.06,0.14-0.14,0.22-0.21c0,0,0,0,0,0c0.1-0.1,0.19-0.19,0.32-0.32c0.07-0.02,0.16-0.15,0.18-0.27
			c0.01-0.06,0.05-0.12,0.08-0.18c0.01-0.03,0.04-0.06,0.03-0.09c-0.02-0.12,0.05-0.14,0.15-0.14c0.1,0,0.19-0.01,0.29-0.02
			c-0.01-0.01-0.01-0.02-0.02-0.03c0.04-0.03,0.07-0.05,0.11-0.09c0.05-0.05,0.11-0.1,0.15-0.17c0.03-0.05-0.09-0.16-0.17-0.16
			c-0.28-0.01-0.56-0.02-0.84-0.03c-0.05,0-0.09-0.04-0.14-0.05c-0.03-0.01-0.06-0.02-0.09-0.03c-0.09-0.01-0.19,0-0.28-0.01
			c-0.09-0.01-0.17,0-0.24-0.08c-0.02-0.03-0.09-0.03-0.14-0.03c-0.1-0.01-0.2,0-0.3-0.01c-0.04,0-0.07-0.04-0.11-0.06
			c-0.02-0.01-0.03-0.02-0.05-0.03c-0.07-0.02-0.16-0.01-0.19-0.11c0-0.01-0.05-0.02-0.07-0.02c-0.08,0-0.16,0-0.25,0
			c-0.02-0.15-0.13-0.1-0.22-0.11c-0.07-0.01-0.18,0.03-0.17-0.11c-0.09-0.01-0.21,0-0.24-0.04c-0.09-0.12-0.25-0.06-0.34-0.18
			c-0.06-0.08-0.26-0.07-0.3-0.15c-0.07-0.14-0.29-0.03-0.3-0.22c-0.17,0.03-0.25-0.08-0.34-0.2c-0.04-0.06-0.14-0.1-0.21-0.14
			c-0.08-0.05-0.16-0.09-0.23-0.14c-0.02-0.02-0.02-0.07-0.03-0.1c-0.06-0.01-0.11-0.01-0.16-0.01C9.14,10.11,9.05,10,8.96,9.89
			C8.88,9.78,8.8,9.67,8.71,9.57c-0.06-0.06-0.14-0.1-0.2-0.15C8.45,9.35,8.41,9.28,8.36,9.22C8.3,9.16,8.23,9.11,8.17,9.06
			C8.13,9.02,8.06,8.98,8.06,8.94C8.05,8.8,7.89,8.74,7.9,8.59c0-0.05-0.04-0.09-0.06-0.14c-0.03-0.09-0.06-0.18-0.1-0.3
			C7.66,8.1,7.56,8.04,7.54,7.89c0-0.04-0.04-0.07-0.07-0.1C7.46,7.77,7.44,7.76,7.44,7.73C7.42,7.6,7.33,7.51,7.25,7.41
			C7.24,7.4,7.24,7.35,7.24,7.35c0.14-0.07,0.18-0.26,0.37-0.26c0.03,0,0.05-0.07,0.09-0.12c0.13,0,0.27,0,0.37,0
			c0.06-0.06,0.1-0.11,0.14-0.12C8.29,6.84,8.37,6.82,8.4,6.94C8.41,7,8.51,7.03,8.57,7.09c0.07,0.06,0.12,0.14,0.19,0.2
			c0.1,0.13,0.33,0.12,0.34,0.33C9.17,7.68,9.27,7.73,9.3,7.8C9.34,7.91,9.43,7.88,9.5,7.9c0.06,0.02,0.11,0.05,0.17,0.07
			C9.7,7.98,9.75,7.96,9.76,7.94c0.02-0.03,0-0.08,0.02-0.11C9.79,7.81,9.85,7.8,9.87,7.82c0.08,0.06,0.16,0.13,0.23,0.2
			c0.04,0.04,0.05,0.1,0.11,0.15c0.08,0.06,0.12,0.18,0.18,0.28c-0.01,0.01-0.02,0.02-0.02,0.03c0.04,0,0.08,0,0.12,0.01
			c0.08,0.01,0.18-0.02,0.23,0.09c0,0,0.01,0.01,0.01,0.01c0.15-0.04,0.22,0.11,0.35,0.14c0.04,0.01,0.08,0.04,0.12,0.08
			c0.07,0.05,0.22-0.04,0.21,0.15c0.18-0.01,0.28,0.09,0.39,0.23c0.03,0,0.09-0.01,0.14,0c0.05,0.01,0.1,0.05,0.14,0.07
			c0.03,0.01,0.06,0.02,0.09,0.03c0.06,0.03,0.16-0.02,0.17,0.1c0,0,0.01,0.01,0.01,0.01c0.14,0.04,0.29,0.09,0.43,0.13
			c0.06,0.02,0.13-0.02,0.16,0.07c0.01,0.02,0.08,0.03,0.13,0.03c0.11,0.02,0.26-0.05,0.33,0.11c0.01,0.02,0.1,0,0.15,0.01
			c0.11,0.02,0.25-0.06,0.33,0.09c0.01,0.01,0.06,0.01,0.09,0.01c0.87,0,1.75,0,2.62,0c0.07,0,0.14-0.04,0.21-0.07
			c0.04-0.01,0.07-0.02,0.11-0.02c0.11-0.01,0.22,0,0.33-0.02c0.09-0.01,0.18,0.01,0.24-0.09c0.02-0.03,0.12-0.02,0.16-0.05
			c0.08-0.07,0.16-0.14,0.23-0.2c0.01-0.01,0.04-0.03,0.04-0.04c0.01-0.14,0.08-0.2,0.19-0.19c0.08-0.09,0.14-0.16,0.2-0.22
			c0.06-0.06,0.13-0.11,0.19-0.17c0.07-0.06,0.15-0.11,0.19-0.19c0.04-0.09,0.16-0.09,0.18-0.2c0.01-0.06,0.11-0.1,0.17-0.14
			c0.06-0.04,0.14-0.08,0.16-0.13c0.04-0.14,0.15-0.09,0.21-0.11c0.07-0.08,0.12-0.16,0.19-0.23c0.06-0.06,0.12-0.12,0.18-0.18
			c0.07-0.06,0.14-0.11,0.21-0.17c0.05-0.04,0.09-0.08,0.14-0.12c0.12-0.11,0.24-0.23,0.36-0.33c0.11-0.09,0.24-0.16,0.32-0.26
			c0.07-0.09,0.17-0.15,0.24-0.23c0.1-0.11,0.2-0.19,0.33-0.25c0.04-0.02,0.07-0.07,0.1-0.11c0.08-0.07,0.15-0.14,0.23-0.21
			c0.02-0.02,0.04-0.04,0.05-0.05c0.02-0.02,0.03-0.05,0.06-0.07c0.06-0.05,0.14-0.08,0.17-0.13c0.03-0.06,0.06-0.08,0.11-0.11
			c0.07-0.04,0.11-0.12,0.17-0.18c0.01-0.01,0.03-0.02,0.04-0.02c0.12-0.04,0.19-0.13,0.27-0.22c0.04-0.05,0.11-0.08,0.16-0.11
			c0.09-0.05,0.19-0.09,0.27-0.15c0.06-0.04,0.1-0.1,0.15-0.14c0.03-0.03,0.05-0.06,0.09-0.07c0.1-0.05,0.19-0.12,0.25-0.22
			c0.05-0.07,0.14-0.11,0.18-0.14c0.08-0.09,0.14-0.15,0.2-0.22c0.07-0.07,0.14-0.13,0.21-0.19c0.02-0.02,0.04-0.03,0.06-0.04
			c0.1-0.06,0.22-0.11,0.28-0.22c0-0.01,0.01-0.02,0.02-0.02c0.16-0.01,0.24-0.13,0.34-0.23c0.03-0.04,0.11-0.06,0.16-0.1
			c0.12-0.09,0.26-0.17,0.38-0.26c0.02-0.02,0.03-0.07,0.03-0.07c0.06-0.05,0.1-0.09,0.14-0.12c0.01-0.01,0.01-0.02,0.02-0.02
			c0.12-0.05,0.24-0.1,0.36-0.14c0.02-0.01,0.05-0.01,0.07-0.03c0.05-0.06,0.09-0.14,0.15-0.18c0.09-0.07,0.2-0.11,0.29-0.17
			c0.06-0.06,0.12-0.12,0.2-0.2c0.13,0.06,0.2-0.09,0.26-0.16c0.08-0.09,0.16-0.07,0.23-0.09c0.08-0.11,0.16-0.22,0.31-0.23
			c0.03,0,0.07-0.03,0.1-0.06c0.02-0.01,0.03-0.05,0.05-0.05c0.14-0.01,0.23-0.1,0.29-0.21c0,0,0.01-0.01,0.01-0.01
			c0.13,0.01,0.2-0.11,0.31-0.13c0.12-0.02,0.22-0.07,0.32-0.13c0.01-0.01,0.02-0.03,0.03-0.05c0.01-0.02,0.02-0.05,0.02-0.05
			c0.12,0.01,0.2-0.05,0.29-0.12c0.05-0.04,0.15,0,0.18-0.1c0.01-0.03,0.12-0.02,0.18-0.05c0.05-0.03,0.09-0.06,0.14-0.08
			c0.05-0.03,0.14,0.01,0.14-0.09c0-0.01,0.01-0.02,0.02-0.02c0.18,0.04,0.28-0.18,0.46-0.14c0.03,0.01,0.06-0.04,0.1-0.06
			c0.03-0.01,0.05-0.03,0.08-0.04c0.08-0.01,0.16,0,0.24,0c0.06,0,0.13,0.02,0.16-0.08c0.01-0.03,0.08-0.04,0.12-0.04
			c0.08-0.01,0.17,0,0.25-0.01c0.07-0.01,0.16,0.03,0.19-0.07C31.07,0,31.13,0,31.16,0c0.19,0,0.39,0,0.58,0
			c0.04,0,0.07,0.02,0.11,0.03c-0.02,0.03-0.05,0.06-0.07,0.09c-0.01,0.01-0.01,0.02-0.02,0.05c0.18,0.07,0.36,0.05,0.54,0.03
			c0.09-0.19,0.26-0.09,0.4-0.11c0.03,0,0.06,0.04,0.09,0.07c0.01,0.01,0.01,0.04,0.02,0.04c0.16,0.08,0.08,0.15,0.01,0.25
			C32.8,0.52,32.8,0.6,32.8,0.64c-0.09,0.07-0.16,0.13-0.22,0.2c-0.07,0.07-0.15,0.13-0.19,0.22c-0.03,0.06,0,0.14,0.01,0.21
			c0,0.02,0.05,0.03,0.05,0.05c0,0.13,0.05,0.19,0.19,0.19c0.01,0,0.04,0.09,0.03,0.09c-0.15,0.09-0.08,0.23-0.09,0.35
			c0,0.1,0.07,0.24-0.11,0.27c-0.04,0.14-0.16,0.07-0.25,0.1c-0.05,0.01-0.09,0.05-0.14,0.07c-0.02,0.01-0.04,0.02-0.06,0.02
			c-0.15,0.02-0.23,0.13-0.35,0.24c-0.02-0.06-0.05-0.11-0.04-0.15c0.01-0.13-0.04-0.17-0.16-0.16c-0.05,0-0.1-0.01-0.12-0.01
			c-0.1,0.1-0.18,0.19-0.26,0.27c-0.06,0.1-0.12,0.2-0.17,0.3C30.76,2.88,30.68,3,30.59,3.1c-0.05,0.06-0.13,0.1-0.19,0.16
			c-0.06,0.06-0.11,0.13-0.16,0.19c-0.04,0.04-0.07,0.09-0.12,0.13c-0.11,0.09-0.22,0.17-0.32,0.26c-0.06,0.05-0.09,0.13-0.15,0.19
			c-0.04,0.04-0.09,0.06-0.13,0.09c-0.1,0.07-0.19,0.13-0.27,0.19c-0.07,0.08-0.13,0.15-0.19,0.21c-0.07,0.07-0.14,0.14-0.21,0.2
			c-0.06,0.05-0.13,0.1-0.19,0.15c-0.06,0.05-0.11,0.1-0.16,0.16c-0.05,0.06-0.08,0.13-0.14,0.17c-0.05,0.03-0.12,0.03-0.19,0.04
			c0,0.02-0.01,0.04-0.01,0.06c0.03,0.18-0.09,0.27-0.2,0.37c-0.07,0.06-0.12,0.15-0.2,0.24c-0.04,0-0.1,0.01-0.16,0.02
			c-0.16,0.11-0.23,0.34-0.47,0.36c-0.02,0.11-0.06,0.2-0.2,0.23c-0.06,0.01-0.14,0.08-0.16,0.13c-0.03,0.08-0.08,0.07-0.13,0.09
			c-0.04,0.02-0.07,0.05-0.1,0.07c-0.01,0.01-0.02,0.03-0.04,0.03c-0.1,0.04-0.22,0.06-0.28,0.13c-0.05,0.06-0.12,0.1-0.17,0.16
			c-0.02,0.02-0.06,0.05-0.09,0.05c-0.13,0.01-0.2,0.09-0.27,0.19c0,0.01-0.01,0.02-0.01,0.02c-0.16,0.03-0.26,0.17-0.38,0.25
			c-0.05,0.03-0.13,0.03-0.2,0.04c-0.02,0-0.04,0.02-0.07,0.03c0.12,0.12,0.06,0.16-0.06,0.2c-0.08,0.03-0.14,0.11-0.2,0.18
			c-0.14,0.17-0.14,0.17-0.09,0.36c0.03,0,0.07,0,0.1,0.01c0.04,0.02,0.11,0.04,0.11,0.07c0.01,0.06,0,0.11-0.06,0.17
			c-0.17,0.18-0.37,0.13-0.57,0.11c-0.14-0.01-0.16,0.01-0.17,0.15c-0.01,0.2-0.09,0.29-0.29,0.31c-0.14,0.01-0.21,0.1-0.3,0.21
			c-0.1,0.12-0.18,0.29-0.39,0.28c-0.04,0-0.08,0.07-0.12,0.08c-0.15,0.03-0.24,0.13-0.35,0.23c-0.06,0.06-0.16,0.08-0.23,0.14
			c-0.09,0.09-0.21,0.15-0.31,0.21c-0.02,0.01-0.05,0-0.07,0.01c-0.1,0.06-0.19,0.12-0.28,0.18c-0.01,0.01-0.02,0.03-0.03,0.03
			c-0.17,0.05-0.35,0.1-0.52,0.15c-0.04,0.01-0.08,0.05-0.12,0.07c-0.01,0.01-0.01,0.02-0.02,0.03c-0.14,0.05-0.29,0.12-0.44,0.13
			c-0.16,0-0.25,0.11-0.36,0.17c-0.03,0.02-0.07,0.05-0.1,0.05c-0.17,0-0.27,0.08-0.35,0.23c-0.02,0.04-0.08,0.05-0.12,0.08
			c0.1,0.08,0.28,0.07,0.35-0.01c0.01-0.01,0.01-0.02,0.01-0.02c0.13-0.05,0.27-0.1,0.4-0.15c0.05-0.02,0.09-0.05,0.14-0.08
			c0.03-0.02,0.06-0.04,0.1-0.04c0.1-0.01,0.2,0,0.31,0c0.08,0,0.16,0.02,0.22-0.08c0.02-0.03,0.1-0.02,0.15-0.04
			c0.07-0.02,0.15-0.04,0.24-0.06c0.08,0.07,0.07,0.11-0.04,0.18c-0.1,0.06-0.19,0.13-0.29,0.19c-0.04,0.02-0.09,0.02-0.13,0.03
			c-0.07,0.02-0.17-0.01-0.21,0.1c-0.01,0.02-0.09,0.02-0.14,0.03c-0.08,0.01-0.16-0.02-0.2,0.08c0,0.01-0.03,0.02-0.04,0.02
			c-0.17-0.01-0.32,0.08-0.44,0.16c-0.12,0.08-0.28,0.04-0.37,0.17c-0.02,0.02-0.07,0.02-0.11,0.03c-0.07,0.02-0.16,0-0.18,0.1
			c0,0.01-0.01,0.01-0.02,0.01c-0.2-0.04-0.32,0.22-0.52,0.13c-0.07,0.13-0.16,0.19-0.28,0.23c-0.13,0.05-0.26,0.09-0.34,0.21
			c-0.05,0.06-0.12,0.1-0.18,0.16c-0.02,0.02-0.03,0.06-0.04,0.1c-0.02,0.09,0.04,0.2-0.1,0.24c-0.01,0-0.01,0.02-0.01,0.03
			c-0.03,0.23-0.18,0.3-0.39,0.31c-0.02,0-0.06,0.02-0.06,0.03c-0.01,0.1-0.08,0.17-0.11,0.25c-0.08,0.18-0.07,0.19-0.26,0.18
			c-0.03,0-0.06,0-0.06,0c-0.05,0.06-0.09,0.1-0.13,0.15c-0.01-0.01-0.01-0.01-0.02-0.02c-0.05,0.13-0.09,0.27-0.14,0.4
			c-0.02,0.05-0.08,0.09-0.12,0.13c-0.09,0.09-0.17,0.19-0.26,0.27c-0.05,0.05-0.07,0.06,0,0.11c0.06,0.04,0.05,0.08-0.01,0.12
			c-0.07,0.05-0.13,0.12-0.18,0.18c-0.13,0.15-0.21,0.35-0.36,0.49c-0.1,0.09-0.23,0.17-0.31,0.28c-0.13,0.17-0.31,0.28-0.45,0.44
			c-0.05,0.05-0.09,0.11-0.13,0.16c-0.09,0.1-0.18,0.2-0.28,0.29c-0.01,0.01-0.07-0.02-0.07-0.02c0.01-0.14-0.12-0.18-0.18-0.27
			c-0.05,0.04-0.1,0.08-0.14,0.11c-0.05,0.05-0.11,0.07-0.12,0.11c-0.02,0.07-0.02,0.16,0.01,0.21c0.04,0.07,0.1,0.38,0.05,0.44
			c-0.05,0.05-0.11,0.08-0.17,0.13c-0.01,0.01-0.02,0.01-0.03,0.02c-0.13,0.15-0.22,0.16-0.4,0.03c-0.07-0.05-0.24-0.01-0.3,0.06
			c-0.06,0.06-0.12,0.1-0.18,0.15c-0.02,0.01-0.03,0.04-0.04,0.05c0.02,0.01,0.04,0.03,0.06,0.04c0.05,0.01,0.09,0,0.14,0
			c0.04,0.01,0.12,0.02,0.12,0.04c0,0.06-0.02,0.13-0.03,0.19c-0.01,0.03-0.04,0.04-0.05,0.07c-0.04,0.17-0.14,0.25-0.3,0.31
			c-0.07,0.03-0.13,0.11-0.19,0.17c-0.05,0.05-0.11,0.1-0.16,0.15c-0.07,0.07-0.19,0.09-0.26,0.14c-0.13,0.1-0.32,0.13-0.41,0.3
			c-0.03,0.05-0.11,0.07-0.16,0.1c-0.04-0.01-0.09-0.03-0.14-0.05c-0.03,0.1-0.21,0.15-0.14,0.29c0.02,0.05,0.08,0.09,0.14,0.1
			c0.04,0.01,0.09-0.02,0.16-0.03c0.07,0.12,0.21,0.05,0.34,0.06c0.08,0.01,0.19-0.01,0.19,0.11c0.08,0.04,0.2-0.04,0.25,0.1
			c0.01,0.03,0.14,0.01,0.22,0.03c0.05,0.01,0.09,0.05,0.13,0.09c0.15,0.02,0.27,0.1,0.36,0.22c0.01,0.01,0.03,0.03,0.04,0.03
			c0.15-0.02,0.25,0.07,0.36,0.14c0.03,0.02,0.04,0.06,0.07,0.1c0.06,0,0.12,0.01,0.19,0.01c0.01,0.04,0.02,0.07,0.03,0.11
			c0.06,0.01,0.13,0.01,0.17,0.02c0.09,0.1,0.16,0.19,0.29,0.23c0.09,0.03,0.17,0.12,0.23,0.17c0.05,0.05,0.08,0.09,0.12,0.13
			c0.01,0.01,0.04,0.02,0.05,0.02c0.13,0.04,0.23,0.11,0.3,0.23c0.04,0.06,0.12,0.09,0.19,0.13c0.01,0.01,0.03,0.01,0.03,0.02
			c0.01,0.14,0.13,0.09,0.19,0.13c0.05,0.03,0.1,0.07,0.16,0.09c0.1,0.05,0.17,0.12,0.24,0.19c0.06,0.05,0.1,0.16,0.22,0.16
			c0.05,0,0.1,0.05,0.14,0.1c0.16,0.01,0.26,0.1,0.35,0.23c0.07,0.06,0.22-0.05,0.23,0.12c0.1,0.02,0.21,0.01,0.28,0.11
			c0.02,0.03,0.12,0.01,0.18,0.02c0.04,0.01,0.08,0.04,0.12,0.06c0.02,0.01,0.05,0.03,0.08,0.03c0.11,0,0.23,0,0.35,0
			c0.02-0.12,0.08-0.2,0.21-0.23c0.05-0.01,0.08-0.08,0.13-0.12c0.06-0.07,0.12-0.14,0.19-0.2c0.03-0.03,0.07-0.06,0.1-0.1
			c0.07-0.06,0.14-0.11,0.21-0.17c0.07-0.06,0.15-0.12,0.19-0.2c0.05-0.09,0.15-0.12,0.17-0.23c0.02-0.08,0.1-0.14,0.16-0.21
			c0.03-0.04,0.06-0.07,0.09-0.1c0.13-0.12,0.25-0.24,0.36-0.36c0,0,0,0,0.01,0c0.07-0.08,0.13-0.15,0.2-0.23
			c0.05-0.05,0.11-0.1,0.16-0.15c0.06-0.07,0.13-0.14,0.19-0.2c0.01-0.01,0.03-0.03,0.05-0.03c0.16,0.02,0.22-0.06,0.19-0.22
			c0.19,0.01,0.27-0.11,0.37-0.21c0.1-0.1,0.21-0.18,0.31-0.27c0.05-0.05,0.09-0.12,0.14-0.18c0.05-0.06,0.11-0.11,0.17-0.16
			c0.06-0.06,0.12-0.12,0.18-0.18c0.06-0.06,0.12-0.11,0.18-0.17c0.04-0.04,0.1-0.07,0.13-0.12c0.03-0.06,0.03-0.13,0.04-0.2
			c0.11-0.02,0.22-0.04,0.23-0.2c0-0.05,0.11-0.09,0.16-0.14c0.07-0.07,0.12-0.15,0.18-0.22c0.05-0.05,0.11-0.1,0.17-0.15
			c0.06-0.06,0.13-0.12,0.19-0.18c0.05-0.05,0.09-0.11,0.14-0.15c0.06-0.05,0.14-0.08,0.18-0.14c0.04-0.06,0.09-0.09,0.13-0.14
			c0.13-0.13,0.25-0.28,0.37-0.41c0.01-0.02,0.05-0.01,0.07-0.02c0.07-0.02,0.12-0.04,0.15-0.13c0.04-0.09,0.13-0.16,0.2-0.24
			c0.09-0.1,0.19-0.21,0.28-0.31c0.02-0.02,0.05-0.01,0.07-0.02c0.05-0.04,0.09-0.08,0.14-0.13c0.07-0.07,0.17-0.14,0.2-0.23
			c0.06-0.14,0.25-0.15,0.28-0.32c0.01-0.04,0.07-0.08,0.12-0.11c0.07-0.05,0.13-0.1,0.2-0.15c0.04-0.03,0.08-0.07,0.12-0.11
			c0.05-0.06,0.1-0.13,0.15-0.19c0.01-0.01,0.02-0.03,0.04-0.03c0.14-0.01,0.2-0.14,0.28-0.22c0.03-0.03,0.07-0.03,0.09-0.06
			c0.08-0.08,0.16-0.15,0.25-0.25c0.03-0.02,0.07-0.05,0.11-0.08c0.04-0.03,0.09-0.07,0.12-0.11c0.05-0.06,0.1-0.13,0.15-0.19
			c0.06-0.06,0.14-0.1,0.2-0.16c0.06-0.05,0.11-0.12,0.16-0.18c0.01-0.01,0.01-0.02,0.02-0.03c0.09-0.05,0.19-0.09,0.27-0.15
			c0.06-0.05,0.1-0.13,0.15-0.19c0.04-0.05,0.1-0.04,0.14-0.11c0.05-0.09,0.18-0.12,0.28-0.17c0.04-0.03,0.08-0.07,0.12-0.1
			c0.09-0.07,0.17-0.14,0.26-0.2c0.07-0.05,0.14-0.09,0.2-0.14c0.03-0.02,0.04-0.07,0.07-0.09c0.03-0.04,0.06-0.07,0.1-0.11
			c0.01-0.01,0.03-0.02,0.04-0.02c0.17-0.02,0.26-0.17,0.4-0.24c0.02-0.01,0.03-0.06,0.05-0.1c0.06-0.01,0.12-0.01,0.19-0.02
			c-0.01-0.01-0.01-0.02-0.02-0.03c0.08-0.06,0.15-0.14,0.23-0.19c0.1-0.06,0.21-0.09,0.27-0.21c0.03-0.06,0.15-0.09,0.18-0.15
			c0.06-0.13,0.24-0.07,0.3-0.2c0.02-0.03,0.12-0.02,0.16-0.03c0.11-0.12,0.21-0.22,0.33-0.34c0.03,0,0.1-0.01,0.16-0.01
			c0.04-0.11,0.17-0.21,0.29-0.23c0.03,0,0.06-0.04,0.09-0.06c0.02-0.01,0.03-0.04,0.04-0.04c0.15-0.02,0.24-0.13,0.36-0.21
			c0.11-0.07,0.23-0.1,0.35-0.15c0.03-0.01,0.05-0.04,0.07-0.06c0.01-0.01,0.02-0.04,0.04-0.05c0.15-0.03,0.24-0.12,0.32-0.23
			c0.01-0.01,0.02-0.01,0.03-0.01c0.16,0.02,0.21-0.12,0.3-0.2C33,9.74,33.05,9.58,33.2,9.65c0.01,0.01,0.04,0,0.05-0.01
			c0.03-0.13,0.15-0.08,0.23-0.11c0.01-0.03,0.01-0.06,0.02-0.1c0.02,0,0.04-0.01,0.06-0.01c0.1-0.02,0.23,0.04,0.3-0.1
			c0-0.01,0.02-0.01,0.04-0.01c0.19-0.01,0.39-0.02,0.58-0.01c0.13,0,0.22,0.09,0.3,0.2c0.04,0.06,0.1,0.1,0.15,0.15
			c0.03,0.04,0.08,0.08,0.08,0.11c0,0.16,0.04,0.36-0.04,0.48c-0.07,0.12-0.03,0.29-0.16,0.38c-0.04,0.03-0.01,0.14-0.04,0.2
			c-0.03,0.08-0.07,0.18-0.14,0.22c-0.09,0.05-0.08,0.12-0.09,0.19c-0.01,0.2-0.01,0.41-0.02,0.61c0,0.04-0.04,0.08-0.06,0.12
			c-0.01,0.03-0.03,0.07-0.03,0.1c-0.01,0.1,0,0.2-0.04,0.29c-0.04,0.09-0.08,0.18-0.11,0.28c-0.02,0.1-0.15,0.17-0.19,0.27
			c-0.04,0.11-0.19,0.14-0.15,0.28c-0.16,0.09-0.06,0.3-0.2,0.42c-0.04,0.03-0.04,0.14-0.03,0.22c0.02,0.17-0.02,0.3-0.2,0.37
			c-0.02,0.01-0.04,0.06-0.04,0.09c0.02,0.2-0.08,0.35-0.21,0.48c-0.01,0.01-0.02,0.02-0.02,0.03c0.07,0.22-0.14,0.39-0.11,0.6
			c0.01,0.11,0.05,0.25-0.09,0.33c-0.01,0.01-0.01,0.04-0.01,0.06c0.01,0.17-0.11,0.27-0.2,0.39c0,0.01-0.02,0.01-0.02,0.02
			c0.03,0.15-0.12,0.24-0.15,0.37c-0.03,0.11-0.12,0.2-0.18,0.3c-0.01,0.02-0.03,0.04-0.03,0.06c-0.01,0.07,0,0.15-0.1,0.18
			c-0.03,0.01-0.03,0.1-0.03,0.15c0,0.21,0,0.41,0,0.62c-0.01-0.01-0.03-0.01-0.04-0.02c-0.07,0.1-0.13,0.21-0.2,0.31
			c-0.05,0.07-0.11,0.13-0.18,0.2c-0.05,0.05-0.13,0.09-0.17,0.15c-0.09,0.15-0.16,0.32-0.26,0.47c-0.1,0.16-0.19,0.31-0.22,0.5
			c-0.15,0.04-0.05,0.25-0.2,0.28c-0.01,0-0.02,0.01-0.01,0.02c0.04,0.13-0.08,0.19-0.13,0.29c-0.02,0.03-0.06,0.04-0.09,0.07
			c-0.02,0.07,0.03,0.19-0.1,0.22c-0.01,0-0.01,0.05-0.02,0.08c-0.01,0.06,0.01,0.14-0.09,0.16c-0.01,0-0.02,0.04-0.02,0.06
			c0,0.12,0,0.24,0,0.36c0.08,0.05,0.25-0.06,0.23,0.14c0.1-0.01,0.19,0.03,0.27-0.07c0.05-0.05,0.17-0.04,0.26-0.06
			c0.05-0.01,0.1-0.05,0.16-0.07c0.05-0.02,0.11-0.02,0.17-0.03c0.07-0.01,0.16,0.03,0.19-0.09c0-0.02,0.07-0.03,0.12-0.03
			c0.1-0.02,0.19-0.03,0.28-0.08c0.13-0.06,0.24-0.21,0.42-0.17c0.07-0.14,0.27-0.05,0.35-0.21c0.02-0.03,0.13-0.02,0.17-0.02
			c0.08-0.08,0.15-0.15,0.22-0.2c0.07-0.04,0.14-0.06,0.21-0.12c0.09-0.08,0.25-0.08,0.34-0.16c0.1-0.09,0.24-0.07,0.33-0.18
			c0.06-0.07,0.18-0.1,0.27-0.15c0.02-0.01,0.06-0.03,0.06-0.04c0.01-0.1,0.09-0.08,0.15-0.07c0.03,0,0.05,0.03,0.08,0.04
			c-0.02,0.02-0.04,0.05-0.05,0.07c-0.06,0.09-0.16,0.15-0.16,0.27c0,0.08,0.02,0.17-0.08,0.22c-0.03,0.02-0.03,0.09-0.03,0.14
			c-0.01,0.08,0,0.15,0,0.23c0,0.19-0.09,0.29-0.28,0.32c-0.03,0-0.05,0.03-0.08,0.04c-0.03,0.02-0.05,0.04-0.08,0.06
			c-0.05,0.03-0.11,0.06-0.15,0.11c-0.13,0.03-0.2,0.12-0.23,0.21c-0.16,0.07-0.33,0.09-0.43,0.19c-0.08,0.08-0.16,0.06-0.22,0.11
			c-0.12,0.12-0.25,0.24-0.38,0.37c0.01,0.13-0.1,0.21-0.2,0.31c-0.07,0.06-0.12,0.14-0.2,0.23c-0.11,0.04-0.25,0.08-0.39,0.15
			c-0.06,0.03-0.1,0.12-0.16,0.16c-0.04,0.03-0.1,0.04-0.15,0.05c-0.14,0.01-0.24,0.08-0.31,0.2c-0.03,0.05-0.09,0.09-0.15,0.12
			c-0.13,0.06-0.27,0.11-0.38,0.16c-0.07,0.04-0.11,0.07-0.16,0.09c-0.05,0.02-0.12,0-0.15,0.09c-0.01,0.02-0.11,0.02-0.16,0.03
			c-0.06,0.01-0.1,0.02-0.15,0.08c-0.06,0.06-0.13,0.17-0.26,0.16c-0.15-0.02-0.23,0.1-0.32,0.19c-0.03,0.03-0.07,0.04-0.09,0.05
			c-0.09,0.2-0.17,0.39-0.24,0.58c-0.01,0.02-0.02,0.03-0.01,0.05c0.01,0.15-0.11,0.21-0.2,0.3c-0.01,0.01-0.03,0.03-0.03,0.05
			c-0.01,0.08-0.03,0.14-0.1,0.21c-0.08,0.07-0.1,0.21-0.15,0.31c-0.04,0.08-0.08,0.17-0.14,0.22c-0.11,0.1-0.21,0.21-0.21,0.38
			c0,0.03-0.04,0.07-0.07,0.1c-0.01,0.01-0.03,0.02-0.04,0.03c-0.05,0.14-0.1,0.27-0.15,0.43c-0.08,0.05-0.18,0.11-0.31,0.18
			c0,0.01,0,0.05-0.01,0.1c0,0.02,0,0.06-0.01,0.06c-0.14,0.03-0.08,0.14-0.1,0.22c-0.01,0.06,0,0.14-0.09,0.17
			c-0.03,0.01-0.03,0.12-0.03,0.16c-0.15,0.15-0.3,0.29-0.45,0.45c-0.01,0.12-0.09,0.23-0.21,0.32c-0.01,0.01-0.02,0.03-0.02,0.04
			c-0.02,0.13-0.12,0.22-0.19,0.32c-0.01,0.01-0.02,0.03-0.02,0.04c-0.05,0.14-0.1,0.27-0.16,0.41c-0.03,0.07-0.07,0.15-0.14,0.19
			c-0.09,0.06-0.13,0.18-0.26,0.18c-0.01,0-0.02,0.03-0.03,0.04c-0.05,0.08-0.09,0.18-0.15,0.25c-0.05,0.06-0.13,0.1-0.2,0.13
			c-0.09,0.04-0.15,0.1-0.14,0.2c0.02,0.21-0.1,0.33-0.27,0.42c-0.06,0.03-0.11,0.08-0.15,0.12c-0.04,0.07-0.09,0.13-0.13,0.2
			c-0.01,0.01-0.02,0.03-0.02,0.04c0.01,0.15-0.1,0.24-0.19,0.33c-0.01,0.01-0.01,0.02-0.02,0.03c-0.05,0.12-0.09,0.24-0.14,0.35
			c-0.02,0.03-0.06,0.05-0.11,0.08c0.02,0.12-0.03,0.21-0.18,0.23c-0.02,0-0.04,0.03-0.05,0.05c-0.03,0.09-0.09,0.14-0.19,0.18
			c-0.07,0.03-0.12,0.1-0.18,0.16c-0.05,0.04-0.1,0.09-0.14,0.16c-0.05,0-0.11,0.01-0.16,0.01c0.01,0.01,0.01,0.01,0.02,0.02
			c-0.08,0.07-0.17,0.14-0.25,0.21c-0.04,0.04-0.09,0.08-0.12,0.13c-0.06,0.11-0.11,0.22-0.14,0.33c-0.02,0.08-0.01,0.18-0.01,0.27
			c0.02,0.19-0.06,0.32-0.21,0.45c-0.08,0.07-0.19,0.07-0.23,0.13c-0.07,0.1-0.16,0.08-0.25,0.1c0,0.23-0.18,0.35-0.34,0.47
			c-0.02,0.02-0.03,0.06-0.04,0.09c-0.01,0.1-0.02,0.2-0.01,0.29c0,0.05,0.06,0.08,0.11,0.15c-0.04,0.01-0.09,0.03-0.13,0.02
			c-0.03-0.01-0.05-0.06-0.06-0.09c-0.01-0.1,0-0.21-0.03-0.3c-0.04-0.13-0.09-0.26-0.17-0.36c-0.11-0.14-0.25-0.25-0.38-0.38
			c-0.04-0.04-0.07-0.1-0.12-0.13c-0.05-0.14-0.07-0.32-0.17-0.4c-0.1-0.09-0.04-0.26-0.2-0.29c-0.01,0,0-0.06-0.02-0.09
			c-0.02-0.04-0.04-0.08-0.07-0.11c-0.02-0.03-0.03-0.05-0.04-0.08c-0.02-0.06,0-0.14-0.09-0.16c-0.01,0-0.02-0.05-0.02-0.08
			c-0.01-0.09,0-0.18-0.01-0.27c-0.01-0.04-0.03-0.09-0.05-0.13c-0.01-0.03-0.03-0.07-0.03-0.1c-0.01-0.13-0.02-0.25-0.03-0.38
			c0-0.04-0.04-0.07-0.05-0.11c-0.02-0.05-0.04-0.1-0.04-0.15c-0.01-0.22,0-0.43-0.01-0.65c0-0.04-0.05-0.08-0.06-0.13
			c-0.02-0.05-0.04-0.1-0.05-0.15c-0.01-0.08-0.01-0.15-0.01-0.23c0-0.09-0.02-0.17-0.06-0.26c-0.06-0.11-0.05-0.26-0.05-0.4
			c0.01-0.65,0.02-1.3,0.03-1.95c0-0.12-0.03-0.15-0.16-0.15c-0.41,0-0.82-0.01-1.23-0.01c-0.02,0-0.05,0.01-0.06-0.01
			c-0.21-0.15-0.45-0.08-0.68-0.11c-0.19-0.02-0.39,0.01-0.58,0.02c-0.03,0-0.05,0.03-0.08,0.04c0.02,0.02,0.04,0.05,0.05,0.07
			c0.03,0.07,0.06,0.14,0.06,0.21c0,0.07-0.04,0.11-0.11,0.15c-0.09,0.04-0.16,0.12-0.23,0.2c-0.08,0.09-0.15,0.19-0.21,0.3
			c-0.03,0.05-0.03,0.11-0.04,0.18c-0.12,0.01-0.19,0.06-0.24,0.18c-0.02,0.05-0.12,0.07-0.19,0.12c-0.02,0.13-0.09,0.24-0.24,0.31
			c-0.06,0.03-0.09,0.12-0.13,0.18c-0.01,0.01-0.01,0.03-0.01,0.03c-0.08,0-0.11,0.05-0.13,0.12c0,0.01-0.05,0.02-0.08,0.02
			c0,0.07-0.01,0.14-0.01,0.2c-0.01,0-0.02-0.01-0.03-0.01c-0.03,0.04-0.06,0.08-0.09,0.11c-0.04,0.04-0.08,0.08-0.12,0.12
			c-0.05,0.05-0.11,0.11-0.16,0.17c-0.01,0.01-0.02,0.01-0.03,0.02c-0.06,0.11-0.1,0.23-0.17,0.33c-0.06,0.09-0.16,0.15-0.24,0.22
			c-0.07,0.06-0.14,0.14-0.22,0.19c-0.14,0.08-0.12,0.26-0.24,0.35c-0.02,0.01-0.04,0.02-0.07,0.03c-0.1,0.02-0.15,0.08-0.15,0.18
			c0,0.02-0.03,0.05-0.05,0.07c-0.11,0.14-0.27,0.22-0.39,0.35c-0.07,0.08-0.14,0.15-0.22,0.22c-0.02,0.02-0.02,0.07-0.05,0.09
			c-0.1,0.09-0.19,0.19-0.3,0.3c-0.06,0.07-0.14,0.16-0.25,0.27c-0.02,0.14-0.13,0.25-0.32,0.28c-0.06,0.08-0.12,0.16-0.18,0.22
			c-0.06,0.06-0.13,0.1-0.18,0.16c-0.07,0.07-0.18,0.12-0.17,0.25c0,0.02-0.1,0.06-0.16,0.06c-0.14,0.01-0.21,0.09-0.28,0.19
			c-0.04,0.05-0.09,0.11-0.14,0.13c-0.1,0.02-0.2,0.04-0.26,0.15c-0.03,0.05-0.07,0.09-0.12,0.13c-0.11,0.1-0.22,0.2-0.34,0.29
			c-0.04,0.03-0.12,0.04-0.17,0.03c-0.18-0.03-0.27,0.09-0.37,0.2c-0.01,0.01-0.02,0.03-0.03,0.04c-0.23,0.07-0.47,0.17-0.72,0.12
			c-0.03,0-0.05-0.03-0.07-0.04c-0.04-0.03-0.08-0.05-0.13-0.08c-0.04-0.02-0.08-0.05-0.11-0.07c-0.01-0.01-0.03-0.03-0.04-0.03
			c-0.19,0.01-0.26-0.16-0.39-0.24c-0.01-0.01-0.02-0.02-0.02-0.03c0.02-0.12-0.07-0.2-0.11-0.29c-0.05-0.14-0.08-0.29,0.08-0.4
			c0.02-0.01,0.01-0.06,0.01-0.08c0.02-0.1-0.03-0.21,0.1-0.28c0.03-0.02,0.02-0.11,0.03-0.17c0.01-0.08,0.01-0.17,0.01-0.26
			c0.07-0.01,0.13-0.01,0.16-0.02c0.09-0.1,0.17-0.18,0.25-0.26c0,0,0,0,0,0c0.12-0.12,0.24-0.23,0.36-0.35c0,0,0,0,0,0
			c0.08-0.08,0.15-0.15,0.23-0.23c0,0,0,0,0,0c0.27-0.27,0.54-0.54,0.81-0.81c0,0,0,0.01,0.01,0.01c0.04-0.05,0.07-0.09,0.11-0.14
			c0.01,0,0.01,0.01,0.02,0.01c0.01-0.06,0.02-0.12,0.03-0.17c0.01-0.09,0.05-0.13,0.14-0.15c0.03-0.01,0.06-0.04,0.09-0.07
			c0.04-0.04,0.08-0.1,0.12-0.14c0.06-0.05,0.15-0.08,0.18-0.14c0.05-0.09,0.16-0.11,0.16-0.23C11.75,30.11,11.88,30.14,11.92,30.13
			z M28.19,21.17c0,0,0.06-0.01,0.07-0.03c0.02-0.1,0.04-0.17,0.11-0.26c0.08-0.1,0.1-0.24,0.15-0.37c0-0.01,0.01-0.02,0.01-0.02
			c0.1-0.02,0.07-0.11,0.08-0.17c0.01-0.06,0.01-0.16,0.04-0.17c0.08-0.03,0.07-0.09,0.09-0.15c0.01-0.03,0.02-0.06,0.04-0.09
			c0.06-0.12,0.12-0.24,0.19-0.36c0.02-0.04,0.05-0.08,0.08-0.12c0.01-0.02,0.03-0.04,0.03-0.06c0-0.15,0.18-0.22,0.14-0.38
			c0,0,0.01-0.02,0.02-0.02c0.1-0.01,0.08-0.09,0.09-0.14c0.02-0.11,0.16-0.18,0.12-0.32c0,0,0.02-0.01,0.03-0.02
			c0.02-0.03,0.05-0.06,0.06-0.09c0.05-0.12,0.09-0.24,0.13-0.36c0-0.01,0.01-0.02,0.02-0.02c0.11-0.03,0.09-0.12,0.11-0.2
			c0.01-0.04,0.02-0.08,0.04-0.12c0.02-0.04,0.04-0.08,0.06-0.12c0.03-0.06,0.06-0.12,0.08-0.18c0.02-0.04,0.03-0.09,0.04-0.13
			c0.01-0.03,0.02-0.05,0.03-0.08c0.02-0.04,0.06-0.08,0.07-0.13c0.01-0.06,0.01-0.13,0.02-0.19c0.04-0.01,0.08-0.02,0.1-0.03
			c0.02-0.08,0.02-0.19,0.05-0.2c0.09-0.03,0.06-0.1,0.08-0.15c0.02-0.05,0.05-0.1,0.08-0.15c0.01,0.01,0.03,0.01,0.04,0.02
			c-0.08-0.21,0.17-0.34,0.13-0.54c0-0.01,0.02-0.02,0.02-0.03c0.03-0.04,0.07-0.08,0.07-0.12c-0.01-0.16,0.19-0.25,0.14-0.42
			c0,0,0.02-0.01,0.03-0.02c0.02-0.04,0.06-0.07,0.06-0.11c0.01-0.08,0.02-0.15,0.12-0.15c0.01-0.08,0-0.15,0.03-0.21
			c0.06-0.11,0.15-0.2,0.19-0.31c0.04-0.11,0-0.24,0.12-0.34c0.07-0.07-0.02-0.24,0.12-0.32c0.06-0.03,0.1-0.13,0.11-0.21
			c0.02-0.15,0.06-0.3,0.11-0.44c0.02-0.05-0.04-0.13-0.07-0.21c0.06-0.02,0.12-0.04,0.2-0.06c0.02-0.12-0.01-0.25,0.1-0.36
			c0.04-0.04,0.1-0.07,0.12-0.12c0.04-0.08,0.05-0.17,0.11-0.25c0.07-0.1,0.02-0.28,0.13-0.39c0-0.31,0-0.62,0-0.95
			c-0.04,0.01-0.08,0.01-0.1,0.03c-0.03,0.02-0.05,0.06-0.08,0.07c-0.16,0.07-0.16,0.07-0.05,0.19c0,0,0,0.01-0.01,0.01
			c-0.15,0.01-0.22,0.19-0.39,0.17c-0.01,0-0.03,0.01-0.04,0.03c-0.06,0.12-0.16,0.19-0.29,0.21c-0.02,0-0.05,0-0.05,0.01
			c-0.03,0.14-0.16,0.08-0.23,0.12c-0.03,0.04-0.06,0.08-0.11,0.09c-0.12,0.02-0.2,0.16-0.34,0.14c-0.01,0-0.02,0.01-0.02,0.01
			c-0.04,0.11-0.14,0.15-0.23,0.22c-0.13,0.1-0.25,0.22-0.36,0.36c-0.12,0.15-0.23,0.31-0.37,0.46c-0.16,0.17-0.35,0.3-0.52,0.46
			c-0.12,0.12-0.29,0.2-0.31,0.39c0,0.02-0.02,0.04-0.03,0.05c-0.06,0.07-0.13,0.13-0.19,0.2c-0.06,0.06-0.13,0.1-0.18,0.16
			c-0.05,0.06-0.14,0.1-0.16,0.14c-0.04,0.09-0.1,0.07-0.16,0.09c-0.02,0.01-0.06,0.01-0.07,0.02c-0.05,0.14-0.22,0.11-0.3,0.21
			c-0.06,0.07-0.13,0.14-0.2,0.2c-0.06,0.06-0.14,0.11-0.2,0.17c-0.05,0.04-0.08,0.09-0.12,0.13c-0.07,0.07-0.14,0.13-0.21,0.19
			c-0.04,0.03-0.08,0.06-0.11,0.09c-0.06,0.05-0.12,0.11-0.17,0.17c-0.09,0.1-0.13,0.24-0.28,0.26c0,0,0,0.01-0.01,0.01
			c-0.07,0.08-0.14,0.15-0.15,0.26c0,0.04-0.08,0.07-0.09,0.12c-0.02,0.07,0,0.15-0.09,0.19c-0.02,0.01,0,0.1,0,0.15
			c0.03-0.02,0.05-0.04,0.08-0.05c0.02-0.01,0.05-0.02,0.08-0.02c0.01,0,0.04,0.03,0.04,0.04c-0.01,0.05-0.01,0.12-0.04,0.16
			c-0.07,0.08-0.15,0.15-0.23,0.23c-0.05,0.05-0.15,0.03-0.2-0.03c-0.01-0.02-0.04-0.04-0.07-0.04c-0.01,0-0.04,0.03-0.04,0.03
			c0.01,0.03,0.02,0.07,0.04,0.08c0.07,0.02,0.07,0.07,0.07,0.13c0,0.1,0.02,0.2,0.03,0.31c0.06-0.05,0.1-0.08,0.14-0.1
			c0.09-0.05,0.2-0.08,0.28-0.15c0.14-0.12,0.27-0.26,0.4-0.38c0.06-0.06,0.13-0.11,0.19-0.16c0.07-0.06,0.15-0.1,0.21-0.16
			c0.06-0.05,0.09-0.12,0.15-0.17c0.1-0.09,0.22-0.17,0.32-0.26c0.1-0.1,0.18-0.21,0.27-0.31c0.03-0.03,0.06-0.07,0.1-0.1
			c0.06-0.05,0.11-0.1,0.18-0.14c0.06-0.04,0.13-0.06,0.2-0.08c0.05-0.01,0.11-0.02,0.14,0c0.03,0.02,0.04,0.08,0.03,0.12
			c-0.01,0.02-0.06,0.03-0.1,0.05c-0.05,0.03-0.09,0.05-0.13,0.08c-0.02,0.01-0.04,0.04-0.06,0.04c-0.1,0.01-0.15,0.07-0.16,0.16
			c0,0.02-0.01,0.05-0.03,0.06c-0.06,0.08-0.13,0.15-0.19,0.22c-0.05,0.05-0.12,0.1-0.18,0.15c-0.06,0.05-0.12,0.1-0.18,0.15
			c-0.07,0.06-0.13,0.13-0.2,0.18c-0.12,0.07-0.26,0.13-0.27,0.3c0,0.02-0.02,0.04-0.04,0.05c-0.09,0.05-0.13,0.18-0.26,0.15
			c-0.01,0-0.02,0.01-0.03,0.02c-0.05,0.1-0.14,0.1-0.24,0.1c-0.03,0-0.07,0-0.08,0.02c-0.09,0.09-0.18,0.19-0.27,0.28
			c-0.06,0.06-0.14,0.13-0.22,0.15c-0.09,0.02-0.12,0.05-0.12,0.14c0,0.06-0.02,0.13-0.05,0.18c-0.05,0.07-0.11,0.13-0.17,0.18
			c-0.09,0.08-0.18,0.15-0.27,0.23c-0.04,0.04-0.08,0.08-0.09,0.13c-0.01,0.02,0.04,0.07,0.06,0.1c0.01,0.02,0.04,0.04,0.04,0.06
			c-0.03,0.14,0.11,0.32-0.09,0.44c-0.09,0.06-0.16,0.09-0.23,0.01c-0.08-0.08-0.19-0.05-0.24,0.05c-0.04,0.08-0.07,0.2-0.14,0.22
			c-0.14,0.05-0.09,0.15-0.11,0.24c-0.01,0.04-0.02,0.1-0.04,0.12c-0.12,0.07-0.25,0.12-0.36,0.16c-0.06,0.1-0.1,0.21-0.16,0.29
			c-0.05,0.07-0.14,0.14-0.22,0.15c-0.13,0-0.18,0.1-0.24,0.16c-0.06,0.06-0.16,0.15-0.13,0.27c0,0.01-0.01,0.03-0.02,0.04
			c-0.11,0.08-0.2,0.18-0.2,0.33c0,0.04-0.02,0.09-0.05,0.13c-0.09,0.11-0.19,0.2-0.2,0.35c0,0.04-0.04,0.07-0.06,0.1
			c-0.04,0.06-0.07,0.13-0.14,0.18c-0.12,0.09-0.21,0.21-0.31,0.33c-0.08,0.09-0.22,0.15-0.18,0.27c-0.06,0.07-0.1,0.11-0.14,0.15
			c-0.07,0.09-0.16,0.17-0.19,0.27c-0.03,0.1-0.1,0.16-0.16,0.2c-0.09,0.07-0.14,0.15-0.2,0.23c-0.03,0.04-0.07,0.09-0.11,0.12
			c-0.11,0.07-0.16,0.2-0.1,0.31c0.01,0.02,0.07,0.02,0.07,0.02c0.03-0.12,0.13-0.08,0.2-0.08c0.16-0.01,0.33-0.01,0.5-0.01
			c0.08,0,0.16,0,0.14-0.12c0.07,0,0.14-0.01,0.17-0.01c0.08-0.08,0.14-0.14,0.22-0.22c0.13,0.07,0.18-0.09,0.29-0.12
			c0.13-0.03,0.21-0.11,0.27-0.24c0.11,0.02,0.24-0.03,0.33,0.09c0.01,0.01,0.07,0,0.1-0.02c0.04-0.02,0.07-0.05,0.11-0.07
			c0.04-0.02,0.09-0.02,0.11-0.04c0.13-0.11,0.25-0.23,0.44-0.19c0.05,0.01,0.14,0.01,0.14-0.01c0.04-0.11,0.13-0.08,0.2-0.09
			c0.04-0.01,0.11-0.01,0.12-0.03c0.07-0.13,0.18-0.07,0.28-0.09c0.04-0.01,0.09-0.02,0.13-0.04c0.05-0.02,0.09-0.06,0.14-0.06
			c0.25-0.02,0.51-0.02,0.76-0.04c0.03,0,0.09,0,0.1-0.01c0.06-0.11,0.17-0.07,0.26-0.08c0.1-0.01,0.23,0,0.31-0.05
			c0.09-0.07,0.18-0.07,0.27-0.07c0.09,0,0.19,0,0.28,0c0.02,0,0.07,0,0.07-0.01c0.04-0.11,0.14-0.08,0.21-0.1
			c0.04-0.01,0.12-0.01,0.13-0.04c0.05-0.09,0.13-0.07,0.2-0.08c0.05-0.01,0.1,0,0.11,0c0.07-0.07,0.14-0.11,0.16-0.17
			c0.03-0.07,0.16-0.14,0.04-0.24c0,0,0-0.02,0.01-0.02C28.1,21.43,28.14,21.32,28.19,21.17z M24.99,26.77
			c-0.1,0.01-0.18-0.01-0.25,0.08c-0.05,0.06-0.2-0.02-0.25,0.11c0,0.01-0.03,0-0.05,0c-0.13-0.03-0.27-0.06-0.4-0.08
			c-0.03,0-0.08,0-0.08,0.02c-0.04,0.13-0.15,0.1-0.24,0.11c-0.03,0-0.08,0-0.08,0.02c-0.03,0.13-0.14,0.08-0.22,0.1
			c-0.05,0.01-0.12,0-0.13,0.02c-0.09,0.12-0.22,0.07-0.32,0.09c-0.15,0.03-0.33-0.08-0.44,0.11c0,0-0.02,0-0.02,0
			c-0.03,0.03-0.07,0.06-0.07,0.09c0,0.6,0.02,1.2,0.03,1.8c0,0.02,0.01,0.06,0.02,0.07c0.1,0.02,0.07,0.1,0.08,0.16
			c0.01,0.09,0,0.19,0.01,0.28c0.02,0.1,0.05,0.2,0.09,0.29c0.03,0.08,0.08,0.16,0.12,0.24c0.02,0.03,0.04,0.08,0.05,0.08
			c0.06,0,0.12-0.01,0.17-0.04c0.05-0.03,0.07-0.08,0.12-0.14c0.01-0.04,0.01-0.14,0.03-0.15c0.1-0.02,0.07-0.1,0.1-0.16
			c0.01-0.02,0.01-0.06,0.02-0.08c0.1-0.09,0.2-0.17,0.21-0.32c0-0.02,0.02-0.03,0.03-0.05c0.02-0.04,0.05-0.07,0.07-0.11
			c0.01-0.03,0.01-0.09,0.02-0.09c0.14-0.03,0.09-0.15,0.13-0.23c0.04-0.04,0.07-0.09,0.09-0.13c0.03-0.05,0.06-0.1,0.08-0.15
			c0.06-0.11,0.12-0.23,0.18-0.33c0.07-0.11,0.13-0.22,0.2-0.33c0.05-0.08,0.07-0.19,0.14-0.23c0.08-0.05,0.09-0.1,0.09-0.17
			c0-0.02,0.01-0.07,0.02-0.07c0.11-0.01,0.07-0.11,0.1-0.16c0.01-0.02,0.03-0.05,0.04-0.07c0.06-0.09,0.14-0.17,0.19-0.26
			c0.04-0.08-0.03-0.2,0.1-0.24C25,26.84,24.99,26.8,24.99,26.77z M28.11,4.52c0.07-0.08,0.12-0.15,0.18-0.22
			c0.03-0.04,0.09-0.06,0.13-0.09c0.05-0.07,0.16-0.01,0.2-0.14c0.02-0.06,0.11-0.11,0.17-0.12c0.18-0.03,0.24-0.2,0.37-0.29
			c0.09-0.06,0.16-0.16,0.26-0.25c0-0.01,0-0.05,0-0.09c0-0.02-0.02-0.04-0.03-0.06c-0.02,0.02-0.04,0.03-0.06,0.05
			c-0.06,0.05-0.12,0.12-0.2,0.15c-0.11,0.04-0.22,0.03-0.33,0.13c-0.09,0.09-0.27,0.1-0.4,0.15c-0.02,0.03-0.03,0.07-0.06,0.09
			c-0.07,0.06-0.14,0.13-0.22,0.18c-0.07,0.06-0.11,0.16-0.24,0.17c-0.07,0.01-0.14,0.09-0.21,0.14c-0.03,0.03-0.07,0.06-0.11,0.07
			c-0.06,0.01-0.12-0.01-0.15,0.09c-0.02,0.06-0.11,0.12-0.17,0.13C27.13,4.66,27.1,4.78,27,4.83c-0.04,0.02-0.09,0.05-0.11,0.09
			c-0.07,0.12-0.18,0.19-0.32,0.2c-0.05,0-0.1,0-0.15,0c0.01,0.01,0.01,0.02,0.02,0.03c-0.07,0.06-0.14,0.13-0.21,0.19
			c-0.06,0.05-0.14,0.1-0.15,0.17c-0.03,0.14-0.13,0.22-0.2,0.33c-0.02,0.04-0.02,0.09-0.03,0.14c0,0.01,0.04,0.03,0.05,0.03
			c0.09-0.04,0.17-0.09,0.25-0.14c0.1-0.07,0.18-0.18,0.31-0.2c0.02,0,0.04-0.01,0.06-0.02c0.17-0.08,0.22-0.32,0.45-0.31
			c0.01,0,0.01-0.03,0.03-0.04c0.02-0.02,0.05-0.05,0.07-0.06c0.11-0.05,0.23-0.1,0.34-0.15c0.01,0,0.01-0.01,0.02-0.01
			c0.07-0.06,0.16-0.12,0.22-0.19c0.05-0.06,0.1-0.1,0.15-0.15C27.89,4.64,27.95,4.49,28.11,4.52z M4.16,23.8c0-0.01,0-0.03,0-0.04
			c-0.1-0.03-0.23-0.06-0.3,0.01c-0.06,0.07-0.1,0.06-0.17,0.07c-0.04,0.01-0.09,0.01-0.12,0.03c-0.11,0.09-0.24,0.08-0.37,0.1
			c-0.02,0-0.05,0-0.06,0.01c-0.09,0.16-0.33,0.03-0.4,0.21c-0.11-0.02-0.19,0.04-0.26,0.12c-0.05,0.05-0.06,0.23,0,0.23
			c0.1,0,0.21-0.02,0.31-0.04c0.14-0.04,0.25-0.15,0.41-0.17c0.1-0.02,0.21-0.07,0.27-0.15c0.09-0.13,0.19-0.21,0.35-0.21
			c0.04,0,0.1-0.01,0.1-0.03c0.03-0.09,0.11-0.08,0.17-0.1C4.12,23.83,4.14,23.81,4.16,23.8z M1.81,23.34c0.02,0,0.03,0,0.05,0.01
			c-0.01-0.07-0.02-0.15-0.05-0.22c-0.03-0.07-0.07-0.13-0.12-0.21c-0.08,0.01-0.17,0.01-0.27,0.03C1.36,22.97,1.31,23,1.25,23.04
			c-0.03,0.02-0.08,0.05-0.09,0.08c-0.01,0.05-0.04,0.12,0.05,0.16c0.07,0.03,0.12,0.09,0.17,0.15c0.05,0.07,0.18,0.1,0.24,0.05
			C1.69,23.43,1.75,23.39,1.81,23.34z M5.05,23.2C5,23.25,5,23.25,4.84,23.29c-0.02,0.01-0.04,0.03-0.06,0.04
			c0.02,0.02,0.03,0.06,0.05,0.06c0.25,0.04,0.45-0.07,0.64-0.2c0.02-0.02,0.06-0.02,0.07-0.04c0.02-0.03,0.02-0.07,0.02-0.1
			c-0.11,0-0.22-0.01-0.32,0.02C5.17,23.08,5.11,23.15,5.05,23.2z M34.33,10.17c0,0.03,0,0.04,0,0.04
			c-0.01,0.07-0.03,0.15,0.09,0.15c0.11,0,0.13-0.05,0.12-0.14c0-0.04,0.01-0.09-0.01-0.13c-0.02-0.04-0.05-0.08-0.09-0.09
			C34.27,9.98,34.34,10.11,34.33,10.17z M4.34,23.69c0.06-0.03,0.1-0.05,0.15-0.08c0.05-0.02,0.1-0.04,0.15-0.05
			c-0.05-0.02-0.1-0.04-0.16-0.05c-0.01,0-0.03,0-0.04,0C4.32,23.52,4.3,23.56,4.34,23.69z M25.52,17.01
			c-0.12-0.01-0.17,0.01-0.16,0.1c0.01,0.03,0.04,0.06,0.06,0.08c0.05-0.05,0.1-0.1,0.15-0.15C25.55,17.03,25.52,17.01,25.52,17.01z
			 M25.12,17.54c-0.04,0.04-0.08,0.06-0.11,0.09c0.02,0.02,0.05,0.06,0.07,0.06c0.05-0.01,0.09-0.04,0.14-0.07
			C25.19,17.59,25.16,17.57,25.12,17.54z M25.39,17.36c-0.03-0.06-0.06-0.09-0.08-0.13c-0.02,0.05-0.05,0.09-0.06,0.14
			c0,0.02,0.03,0.05,0.05,0.08C25.32,17.42,25.35,17.4,25.39,17.36z"/>
		<path d="M0.34,24.07c0.02,0.01,0.06,0.02,0.1,0.04c-0.02,0.03-0.06,0.06-0.07,0.1c-0.05,0.15-0.18,0.11-0.28,0.1
			c-0.03,0-0.08-0.05-0.09-0.08c-0.01-0.06,0-0.12,0.09-0.12C0.16,24.1,0.24,24.08,0.34,24.07z"/>
		<path d="M11.99,12.46c-0.04-0.03-0.08-0.06-0.11-0.09c0.03-0.02,0.07-0.05,0.1-0.04c0.04,0.01,0.08,0.04,0.12,0.06
			C12.07,12.41,12.04,12.43,11.99,12.46z"/>
		<path d="M31.49,2.8c-0.03-0.03-0.06-0.06-0.09-0.08c0.04-0.02,0.07-0.05,0.11-0.05c0.04,0,0.07,0.03,0.11,0.05
			C31.59,2.74,31.55,2.77,31.49,2.8z"/>
	</g>
</g>
</svg>
