<?xml version="1.0" encoding="utf-8"?>
<!-- Generator: Adobe Illustrator 28.2.0, SVG Export Plug-In . SVG Version: 6.00 Build 0)  -->
<svg version="1.1" id="Layer_1" xmlns="http://www.w3.org/2000/svg" xmlns:xlink="http://www.w3.org/1999/xlink" x="0px" y="0px"
	 viewBox="0 0 182.59 35" style="enable-background:new 0 0 182.59 35;" xml:space="preserve">
<g>
	<g>
		<path d="M175.09,32.74c-0.31-0.02-0.63-0.06-0.94-0.04c-0.18,0.01-0.37,0.08-0.53,0.17c-0.29,0.17-0.59,0.03-0.88,0.08
			c-0.09-0.35-0.08-0.38,0.23-0.48c0-0.12,0-0.24,0-0.36c-0.32-0.04-0.42,0.02-0.59,0.65c-0.12,0-0.25-0.01-0.38-0.01
			c-0.11-0.24-0.05-0.46-0.03-0.67c0.02-0.16,0.08-0.31,0.13-0.46c0.07-0.2,0.34-0.27,0.6-0.15c0.12,0.06,0.22,0.14,0.34,0.21
			c0.23,0.15,0.43,0.13,0.56-0.06c0.04-0.06,0.06-0.15,0.06-0.22c0-0.12-0.01-0.24-0.02-0.36c0.14-0.08,0.39,0.02,0.41-0.26
			c-0.15-0.11-0.3-0.1-0.45-0.02c-0.09,0.06-0.18,0.13-0.28,0.17c-0.05,0.03-0.12,0.03-0.19,0.04c-0.01-0.05-0.02-0.08-0.01-0.08
			c0.23-0.19,0.47-0.38,0.71-0.56c0.06-0.05,0.15-0.06,0.22-0.09c0.08-0.03,0.17-0.06,0.24-0.11c0.17-0.12,0.33-0.25,0.5-0.38
			c0.03-0.02,0.06-0.06,0.09-0.07c0.42-0.14,0.76-0.4,1.07-0.7c0.11-0.11,0.27-0.16,0.38-0.26c0.21-0.18,0.4-0.38,0.62-0.57
			c0.44-0.38,0.71-0.88,0.94-1.4c0.06-0.14,0.15-0.28,0.23-0.42c0.01-0.02,0.03-0.03,0.03-0.05c0-0.3,0.11-0.58,0.17-0.87
			c0.06-0.26,0.06-0.54,0.07-0.82c0-0.12-0.03-0.24-0.05-0.36c-0.11-0.5-0.33-0.94-0.67-1.32c-0.25-0.29-0.54-0.54-0.81-0.81
			c-0.14-0.14-0.29-0.17-0.47-0.11c-0.16,0.37-0.43,0.63-0.74,0.87c-0.06,0.05-0.08,0.16-0.13,0.23c-0.19,0.22-0.39,0.43-0.6,0.63
			c-0.17,0.16-0.36,0.29-0.53,0.44c-0.13,0.1-0.26,0.2-0.38,0.32c-0.12,0.12-0.17,0.29-0.37,0.34c-0.07,0.02-0.2,0.11-0.21,0.26
			c-0.01,0.07-0.09,0.16-0.16,0.2c-0.36,0.21-0.68,0.46-0.95,0.77c-0.02,0.02-0.05,0.04-0.07,0.05c-0.48,0.28-0.74,0.78-1.12,1.17
			c-0.23,0.23-0.45,0.46-0.7,0.67c-0.46,0.4-0.9,0.83-1.36,1.23c-0.8,0.68-1.56,1.39-2.32,2.12c-0.24,0.23-0.49,0.48-0.79,0.59
			c-0.25,0.1-0.47,0.26-0.72,0.3c-0.18,0.03-0.39,0.02-0.58-0.01c-0.3-0.06-0.52,0.11-0.76,0.2c-0.13,0.05-0.55,0.23-0.68,0.22
			c-0.25-0.01-0.51-0.03-0.76-0.02c-0.22,0-0.32-0.12-0.4-0.3c-0.04-0.09-0.08-0.17-0.18-0.18c-0.03-0.01-0.08-0.03-0.1-0.06
			c-0.09-0.12-0.18-0.25-0.26-0.37c-0.11-0.16-0.2-0.33-0.22-0.53c-0.02-0.17-0.08-0.33-0.12-0.5c-0.01-0.05-0.02-0.1-0.02-0.15
			c0-0.38-0.03-0.76,0.02-1.13c0.04-0.32,0.13-0.63,0.12-0.96c0.15-0.14,0.12-0.34,0.2-0.5c0.07-0.14,0.08-0.28,0.11-0.42
			c0.03-0.11,0.09-0.21,0.14-0.32c0.13-0.29,0.28-0.57,0.4-0.86c0.05-0.11,0.04-0.25,0.05-0.37c-0.14-0.05-0.22-0.05-0.3,0.04
			c-0.17,0.19-0.38,0.35-0.55,0.54c-0.09,0.1-0.13,0.24-0.22,0.34c-0.16,0.18-0.37,0.31-0.49,0.51c-0.13,0.2-0.31,0.37-0.43,0.58
			c-0.03,0.06-0.09,0.1-0.14,0.16c-0.04,0.04-0.11,0.09-0.12,0.13c-0.01,0.33-0.32,0.44-0.45,0.67c-0.18,0.31-0.33,0.64-0.5,0.97
			c-0.03,0.05-0.05,0.1-0.08,0.15c-0.31,0.57-0.63,1.14-0.93,1.71c-0.15,0.29-0.28,0.59-0.46,0.86c-0.17,0.27-0.38,0.52-0.64,0.73
			c-0.23,0.19-0.42,0.43-0.63,0.65c-0.01,0.01-0.02,0.05-0.03,0.05c-0.27,0.04-0.41,0.29-0.63,0.4c-0.07,0.04-0.15,0.05-0.23,0.05
			c-0.19,0-0.39-0.01-0.58-0.02c-0.42-0.03-0.4,0.01-0.83,0.23c-0.41,0.21-0.86,0.39-1.36,0.29c-0.07-0.02-0.15-0.06-0.21-0.11
			c-0.11-0.09-0.2-0.19-0.33-0.32c-0.01-0.15-0.1-0.26-0.28-0.38c-0.21-0.14-0.35-0.38-0.37-0.65c-0.02-0.27-0.13-0.49-0.25-0.72
			c-0.04-0.07-0.05-0.17-0.05-0.26c0-0.56,0-1.12,0.01-1.68c0-0.06-0.02-0.12-0.02-0.18c-0.26-0.05-0.34,0.13-0.44,0.28
			c-0.04,0.05-0.05,0.12-0.09,0.18c-0.18,0.29-0.35,0.57-0.54,0.85c-0.08,0.11-0.18,0.21-0.28,0.3c-0.19,0.17-0.39,0.32-0.57,0.5
			c-0.23,0.23-0.51,0.32-0.81,0.41c-0.32,0.11-0.68,0.1-0.98,0.26c-0.18,0.1-0.34,0.24-0.53,0.32c-0.28,0.12-0.56,0.25-0.88,0.27
			c-0.29,0.02-0.63-0.06-0.82-0.39c-0.11-0.19-0.28-0.35-0.43-0.52c-0.07-0.08-0.13-0.15-0.14-0.26c-0.01-0.1-0.07-0.23-0.14-0.28
			c-0.13-0.08-0.15-0.18-0.15-0.31c-0.01-0.4-0.03-0.8-0.02-1.19c0-0.23,0.05-0.46,0.08-0.69c0.03-0.23,0.06-0.46,0.09-0.69
			c0.05-0.33,0.08-0.66,0.24-0.96c0.1-0.18,0.1-0.41,0.2-0.59c0.12-0.23,0.14-0.47,0.14-0.72c0-0.06,0.06-0.11,0.09-0.17
			c0.02-0.03,0.06-0.06,0.06-0.09c-0.01-0.29,0.2-0.49,0.27-0.73c0.09-0.31,0.19-0.6,0.33-0.89c0.1-0.21,0.08-0.48,0.17-0.69
			c0.09-0.22,0.12-0.46,0.2-0.68c0.12-0.32,0.07-0.63,0.08-0.97c-0.28-0.02-0.5-0.05-0.74,0.11c-0.23,0.15-0.51,0.24-0.77,0.35
			c-0.35,0.15-0.62,0.41-0.84,0.7c-0.26,0.33-0.58,0.57-0.88,0.85c-0.22,0.2-0.5,0.37-0.63,0.63c-0.16,0.29-0.42,0.46-0.6,0.71
			c-0.19,0.25-0.36,0.52-0.54,0.78c-0.02,0.03-0.03,0.08-0.06,0.1c-0.21,0.13-0.32,0.34-0.43,0.55c-0.13,0.23-0.31,0.43-0.45,0.66
			c-0.2,0.32-0.38,0.66-0.56,0.99c-0.26,0.48-0.53,0.94-0.75,1.44c-0.17,0.39-0.38,0.74-0.6,1.1c-0.05,0.08-0.05,0.19-0.07,0.29
			c-0.19,0.13-0.4,0.21-0.64,0.17c-0.09-0.01-0.19,0-0.26,0.1c-0.05,0.06-0.19,0.09-0.27,0.07c-0.42-0.08-0.74,0.02-0.97,0.39
			c-0.08,0.13-0.22,0.21-0.33,0.32c-0.19,0.18-0.38,0.17-0.54-0.05c-0.19-0.26-0.38-0.51-0.64-0.7c-0.16-0.12-0.26-0.3-0.25-0.53
			c0.01-0.34,0-0.67,0.01-1.01c0-0.21-0.06-0.43,0.12-0.6c0.03-0.03,0.02-0.12,0.02-0.18c0.01-0.13-0.01-0.27,0.11-0.37
			c0.03-0.03,0.03-0.09,0.04-0.14c0.01-0.05-0.01-0.11,0.02-0.15c0.21-0.29,0.14-0.66,0.23-0.98c0.12-0.43,0.32-0.81,0.49-1.2
			c0.12-0.28,0.22-0.57,0.35-0.84c0.11-0.24,0.23-0.48,0.37-0.7c0.23-0.35,0.37-0.74,0.54-1.12c0.1-0.24,0.25-0.46,0.38-0.69
			c0.12-0.21,0.28-0.41,0.34-0.64c0.06-0.21,0.01-0.46,0.01-0.7c-0.15-0.05-0.25-0.05-0.33,0.12c-0.06,0.12-0.2,0.21-0.32,0.29
			c-0.23,0.15-0.29,0.39-0.4,0.62c-0.02,0.05-0.06,0.09-0.09,0.13c-0.12,0.17-0.29,0.33-0.36,0.52c-0.1,0.25-0.29,0.44-0.43,0.66
			c-0.12,0.18-0.29,0.31-0.42,0.48c-0.18,0.23-0.34,0.48-0.51,0.71c-0.04,0.06-0.1,0.12-0.14,0.18c-0.09,0.12-0.22,0.23-0.18,0.41
			c0.01,0.03,0,0.07-0.02,0.09c-0.22,0.17-0.29,0.45-0.47,0.65c-0.18,0.2-0.29,0.44-0.44,0.66c-0.19,0.28-0.3,0.61-0.56,0.86
			c-0.2,0.19-0.32,0.46-0.48,0.69c-0.2,0.28-0.41,0.55-0.6,0.83c-0.08,0.11-0.13,0.24-0.21,0.35c-0.3,0.45-0.71,0.78-1.14,1.1
			c-0.14,0.1-0.27,0.1-0.42,0.11c-0.32,0.01-0.59,0.11-0.82,0.33c-0.17,0.17-0.37,0.31-0.62,0.38c-0.16,0.04-0.31,0.1-0.45,0.18
			c-0.27,0.15-0.55,0.09-0.82,0c-0.17-0.06-0.33-0.15-0.5-0.21c-0.31-0.11-0.5-0.37-0.73-0.57c-0.02-0.02-0.04-0.05-0.04-0.08
			c-0.02-0.23-0.15-0.4-0.29-0.59c-0.11-0.14-0.23-0.23-0.41-0.31c-0.08,0.08-0.17,0.17-0.27,0.24c-0.21,0.14-0.49,0.2-0.66,0.41
			c-0.01,0.01-0.04,0.01-0.06,0.01c-0.36-0.01-0.64,0.21-0.97,0.28c-0.09,0.02-0.16,0.1-0.23,0.16c-0.33,0.25-0.71,0.43-1.1,0.51
			c-0.47,0.09-0.97,0.14-1.43-0.14c-0.45-0.27-0.81-0.65-1.08-1.09c-0.1-0.16-0.17-0.35-0.25-0.53c-0.08-0.21-0.04-0.46-0.25-0.63
			c-0.16-0.12-0.21-0.13-0.37,0.01c-0.16,0.14-0.31,0.28-0.5,0.39c-0.3,0.18-0.56,0.41-0.84,0.61c-0.13,0.09-0.28,0.13-0.42,0.2
			c-0.16,0.08-0.33,0.14-0.46,0.25c-0.28,0.22-0.61,0.32-0.92,0.47c-0.25,0.12-0.51,0.23-0.76,0.33c-0.47,0.2-0.95,0.29-1.48,0.09
			c-0.47-0.17-0.81-0.5-1.02-0.9c-0.19-0.36-0.45-0.7-0.44-1.15c0.01-0.25-0.16-0.5-0.19-0.75c-0.04-0.28-0.03-0.57-0.02-0.85
			c0.01-0.33,0.08-0.67,0.08-1c0-0.31,0.17-0.55,0.22-0.84c0.04-0.19,0.17-0.35,0.22-0.54c0.11-0.43,0.39-0.76,0.57-1.15
			c0.16-0.36,0.43-0.66,0.63-0.99c0.16-0.26,0.35-0.47,0.54-0.69c0.09-0.1,0.17-0.21,0.25-0.32c0.12-0.17,0.2-0.36,0.34-0.5
			c0.14-0.14,0.13-0.29,0.11-0.48c-0.09,0.01-0.19-0.01-0.25,0.03c-0.18,0.11-0.38,0.11-0.56,0.06c-0.37-0.09-0.59,0.08-0.77,0.35
			c-0.15,0.22-0.32,0.44-0.46,0.66c-0.23,0.37-0.45,0.75-0.68,1.13c-0.01,0.01-0.01,0.02-0.01,0.03c-0.33,0.33-0.45,0.79-0.73,1.14
			c-0.04,0.05-0.09,0.09-0.14,0.14c-0.23,0.22-0.34,0.52-0.59,0.72c0.01,0.29-0.37,0.36-0.36,0.66c-0.23,0.32-0.43,0.65-0.64,0.98
			c-0.12,0.19-0.23,0.37-0.28,0.61c-0.05,0.23-0.21,0.44-0.34,0.64c-0.2,0.32-0.45,0.63-0.62,0.97c-0.12,0.23-0.27,0.45-0.39,0.67
			c-0.21,0.38-0.44,0.77-0.77,1.06c-0.15,0.13-0.33,0.25-0.52,0.31c-0.35,0.1-0.66,0.29-0.96,0.47c-0.23,0.14-0.43,0.33-0.64,0.5
			c-0.26,0.21-0.54,0.32-0.89,0.32c-0.45,0-0.85-0.15-1.19-0.39c-0.31-0.22-0.56-0.55-0.62-0.96c-0.02-0.11-0.07-0.21-0.1-0.31
			c-0.02-0.08-0.06-0.16-0.06-0.23c0-0.79,0-1.57,0-2.36c0-0.04-0.01-0.1,0.01-0.12c0.19-0.19,0.08-0.47,0.18-0.68
			c0.1-0.22,0.04-0.51,0.26-0.68c0-0.19,0.09-0.34,0.16-0.5c0.14-0.32,0.23-0.66,0.41-0.98c0.2-0.36,0.44-0.71,0.62-1.08
			c0.12-0.25,0.21-0.51,0.32-0.77c0.07-0.17,0.12-0.35,0.22-0.5c0.12-0.18,0.09-0.36,0.06-0.58c-0.15,0.06-0.29,0.1-0.41,0.18
			c-0.25,0.16-0.49,0.31-0.78,0.39c-0.11,0.03-0.19,0.16-0.28,0.25c-0.05,0.05-0.07,0.12-0.19,0.09c-0.09-0.02-0.19,0.07-0.29,0.11
			c-0.27,0.13-0.5,0.32-0.8,0.39c-0.1,0.02-0.19,0.15-0.26,0.25c-0.25,0.36-0.43,0.77-0.64,1.16c-0.15,0.28-0.32,0.55-0.49,0.82
			c-0.03,0.05-0.06,0.1-0.07,0.16c-0.02,0.22-0.16,0.38-0.26,0.55c-0.15,0.24-0.32,0.47-0.46,0.71c-0.14,0.25-0.26,0.53-0.38,0.79
			c-0.01,0.02-0.01,0.04-0.03,0.05c-0.25,0.18-0.34,0.46-0.5,0.7c-0.22,0.33-0.42,0.66-0.61,1c-0.1,0.18-0.16,0.4-0.25,0.62
			c-0.11,0.02-0.25,0.03-0.39-0.07c-0.24-0.17-0.57-0.05-0.63,0.24c-0.01,0.07-0.02,0.14-0.03,0.23c-0.06-0.02-0.11-0.03-0.15-0.05
			c-0.27-0.12-0.4-0.09-0.58,0.12c-0.08,0.1-0.15,0.18-0.19,0.32c-0.03,0.12-0.14,0.24-0.25,0.32c-0.13,0.1-0.34,0.02-0.46-0.16
			c-0.09-0.14-0.15-0.32-0.17-0.48c-0.03-0.23,0.05-0.47-0.14-0.69c-0.07-0.08-0.02-0.26-0.03-0.39c-0.01-0.16,0.05-0.32-0.11-0.45
			c-0.03-0.03-0.03-0.12-0.03-0.18c0-0.2-0.01-0.41,0.01-0.61c0.02-0.2,0.09-0.39,0.13-0.58c0.04-0.19,0.06-0.37,0.12-0.55
			c0.11-0.31,0.12-0.65,0.19-0.98c0.06-0.27,0.13-0.54,0.2-0.8c0.03-0.11,0.06-0.21,0.07-0.32c0.02-0.19,0-0.39,0.14-0.55
			c0.04-0.05,0.03-0.14,0.03-0.21c0.01-0.37,0.01-0.73,0.13-1.09c0.04-0.11,0.02-0.24,0.03-0.36c0.03-0.24,0.08-0.48,0.11-0.72
			c0.01-0.09,0.03-0.18,0.03-0.27c0-0.52,0.01-1.04,0.01-1.56c0-0.11,0.01-0.22-0.09-0.31c-0.04-0.04-0.04-0.13-0.06-0.2
			c-0.04-0.13-0.09-0.25-0.11-0.38c-0.02-0.19-0.03-0.39-0.01-0.57c0.01-0.1,0.1-0.15,0.22-0.17c0.36-0.05,0.69-0.17,0.97-0.4
			c0.19-0.16,0.39-0.29,0.61-0.41c0.07-0.04,0.19-0.03,0.28,0c0.09,0.02,0.2,0.08,0.25,0.15c0.12,0.17,0.28,0.14,0.44,0.15
			c0.13,0,0.22,0.03,0.31,0.15c0.2,0.28,0.41,0.54,0.62,0.81c0.18,0.22,0.18,0.21,0.46,0.11c-0.01-0.33,0.12-0.61,0.31-0.87
			c0.01-0.01,0.02-0.02,0.02-0.02c-0.06-0.38,0.37-0.55,0.35-0.91c0-0.03,0.03-0.07,0.05-0.1c0.23-0.34,0.38-0.72,0.54-1.11
			c0.01-0.04,0.04-0.07,0.06-0.1c0.1-0.17,0.23-0.32,0.26-0.55c0.02-0.16,0.14-0.31,0.22-0.46c0.07-0.14,0.16-0.28,0.22-0.42
			c0.07-0.15,0.1-0.32,0.17-0.46c0.13-0.26,0.33-0.5,0.41-0.77c0.09-0.32,0.34-0.55,0.39-0.89c0.03-0.22,0.22-0.41,0.32-0.62
			c0.13-0.29,0.33-0.54,0.39-0.87c0.01-0.06,0.05-0.1,0.08-0.16c0.08-0.19,0.23-0.34,0.24-0.57c0-0.06,0.05-0.13,0.09-0.18
			c0.09-0.13,0.16-0.25,0.21-0.41c0.06-0.22,0.18-0.43,0.32-0.6c0.1-0.11,0.11-0.22,0.12-0.35c0.01-0.16-0.01-0.33,0.12-0.45
			c0.04-0.03,0.04-0.11,0.04-0.17c0.01-0.11,0.01-0.21,0.12-0.29c0.1-0.07,0.06-0.18-0.01-0.3c-0.19,0.17-0.36,0.33-0.54,0.49
			c-0.13,0.13-0.27,0.25-0.39,0.39c-0.07,0.08-0.11,0.19-0.15,0.3c-0.13,0.29-0.41,0.45-0.6,0.69c-0.2,0.26-0.44,0.48-0.62,0.76
			c-0.2,0.3-0.51,0.53-0.79,0.78c-0.34,0.3-0.69,0.59-1.03,0.89c-0.13,0.11-0.25,0.24-0.38,0.36c-0.05,0.06-0.13,0.12-0.14,0.19
			c-0.06,0.36-0.36,0.52-0.59,0.74c-0.39,0.36-0.79,0.69-1.18,1.05c-0.09,0.08-0.13,0.21-0.21,0.3c-0.29,0.31-0.58,0.6-0.87,0.91
			c-0.22,0.24-0.5,0.46-0.64,0.75c-0.16,0.32-0.45,0.49-0.66,0.75c-0.09,0.11-0.17,0.24-0.25,0.35c-0.21,0.3-0.46,0.57-0.74,0.82
			c-0.17,0.15-0.26,0.39-0.39,0.58c-0.06,0.1-0.13,0.19-0.19,0.29c-0.03,0.05-0.09,0.1-0.09,0.15c0.01,0.24-0.17,0.33-0.31,0.46
			c-0.15,0.14-0.35,0.27-0.32,0.53c0,0.03-0.02,0.06-0.04,0.08c-0.24,0.31-0.49,0.63-0.73,0.94c-0.21,0.04-0.08,0.33-0.28,0.38
			c0.01,0.26-0.24,0.34-0.37,0.51c-0.1,0.14-0.14,0.32-0.28,0.43c-0.14,0.11-0.26,0.23-0.3,0.42c0,0.02-0.01,0.04-0.03,0.05
			c-0.3,0.18-0.34,0.53-0.54,0.78c-0.14,0.17-0.26,0.37-0.38,0.56c-0.13,0.19-0.27,0.38-0.38,0.57c-0.18,0.3-0.29,0.66-0.52,0.91
			c-0.36,0.4-0.61,0.89-1,1.26c-0.25,0.23-0.41,0.54-0.63,0.8c-0.14,0.17-0.31,0.33-0.47,0.48c-0.4,0.38-0.81,0.75-1.22,1.12
			c-0.11,0.1-0.24,0.2-0.39,0.32c-0.15-0.03-0.3,0.05-0.47,0.16c-0.31,0.2-0.64,0.37-0.97,0.55c-0.02,0.01-0.06,0.02-0.09,0.02
			c-0.26-0.03-0.44,0.14-0.65,0.23c-0.05,0.02-0.11,0.05-0.16,0.05c-0.56-0.02-1.12,0.08-1.68-0.06c-0.3-0.07-0.59-0.14-0.83-0.35
			c-0.16-0.14-0.41-0.18-0.51-0.4c-0.08-0.18-0.23-0.34-0.28-0.53c-0.11-0.43-0.39-0.77-0.55-1.17c-0.07-0.17-0.14-0.35-0.22-0.52
			c-0.25-0.52-0.14-1.06-0.16-1.6c0-0.13,0-0.27,0-0.4c0.01-0.3-0.03-0.61,0.1-0.9c0.05-0.12,0.05-0.28,0.05-0.42
			c-0.01-0.31,0.12-0.57,0.25-0.83c0.03-0.05,0.05-0.11,0.05-0.17c-0.01-0.28,0.15-0.49,0.25-0.73c0.04-0.09,0.08-0.19,0.07-0.29
			c-0.03-0.31,0.16-0.5,0.34-0.69c0.04-0.05,0.1-0.11,0.15-0.13c0.23-0.07,0.23-0.22,0.14-0.39c0.38-0.39,0.83-0.7,1.04-1.22
			c0.05-0.11,0.19-0.18,0.29-0.28c0.25-0.23,0.49-0.44,0.85-0.53c0.35-0.09,0.68-0.25,1.02-0.38c0.08-0.03,0.18-0.01,0.27-0.02
			c0.12-0.01,0.22,0,0.33-0.08c0.11-0.08,0.3-0.1,0.44,0.05c0.05,0.06,0.14,0.08,0.23,0.13c-0.02,0.05-0.06,0.1-0.05,0.15
			c0.06,0.46-0.32,0.62-0.58,0.82c-0.21,0.16-0.34,0.33-0.35,0.59c0,0.12-0.03,0.22-0.12,0.32c-0.13,0.15-0.15,0.38-0.33,0.5
			c-0.01,0.01-0.02,0.04-0.01,0.06c0.02,0.26-0.02,0.5-0.15,0.72c-0.16,0.28-0.18,0.58-0.17,0.9c-0.24,0.47-0.09,1-0.14,1.5
			c-0.01,0.16,0.04,0.33-0.13,0.44c-0.03,0.02-0.03,0.09-0.04,0.14c-0.01,0.34-0.02,0.67,0.1,1c0.06,0.17,0.13,0.34,0.19,0.5
			c0.1,0.25,0.23,0.35,0.53,0.38c0.01,0,0.02,0,0.03,0c0.37,0.19,0.65-0.01,0.92-0.19c0.25-0.17,0.53-0.31,0.74-0.54
			c0.24-0.26,0.48-0.52,0.71-0.8c0.25-0.31,0.57-0.57,0.87-0.84c0.2-0.18,0.38-0.38,0.48-0.65c0.04-0.09,0.13-0.16,0.2-0.23
			c0.2-0.2,0.41-0.4,0.6-0.61c0.1-0.11,0.17-0.27,0.27-0.38c0.15-0.17,0.31-0.33,0.46-0.5c0.11-0.11,0.22-0.22,0.33-0.34
			c0.03-0.04,0.08-0.08,0.08-0.12c-0.01-0.22,0.15-0.32,0.29-0.44c0.18-0.16,0.33-0.36,0.46-0.56c0.08-0.12,0.17-0.24,0.28-0.34
			c0.28-0.25,0.47-0.56,0.69-0.86c0.19-0.26,0.43-0.49,0.65-0.73c0.02-0.02,0.07-0.03,0.07-0.04c0.02-0.36,0.36-0.47,0.54-0.71
			c0.14-0.19,0.27-0.4,0.41-0.59c0.15-0.2,0.32-0.38,0.5-0.56c0.16-0.16,0.3-0.32,0.43-0.51c0.17-0.25,0.41-0.46,0.63-0.68
			c0.22-0.22,0.44-0.43,0.62-0.68c0.22-0.3,0.45-0.6,0.76-0.84c0.23-0.18,0.36-0.5,0.55-0.74c0.15-0.19,0.31-0.37,0.49-0.52
			c0.28-0.25,0.54-0.51,0.76-0.83c0.16-0.23,0.39-0.42,0.59-0.64c0.14-0.15,0.3-0.29,0.38-0.47c0.14-0.33,0.43-0.51,0.64-0.76
			c0.12-0.15,0.26-0.28,0.35-0.47c0.07-0.16,0.23-0.28,0.35-0.41c0.1-0.11,0.23-0.21,0.31-0.33c0.39-0.54,0.88-0.98,1.34-1.45
			c0.11-0.11,0.19-0.25,0.28-0.36c0.28-0.35,0.63-0.63,0.92-0.97c0.22-0.26,0.48-0.45,0.72-0.67c0.23-0.21,0.36-0.48,0.56-0.7
			c0.25-0.26,0.52-0.5,0.79-0.74c0.46-0.42,0.91-0.85,1.38-1.26c0.26-0.23,0.5-0.5,0.81-0.65c0.38-0.19,0.77-0.43,1.26-0.33
			c0.14,0.03,0.29,0.06,0.43-0.08c0.06-0.06,0.21-0.02,0.32-0.04c0.15-0.02,0.3-0.05,0.46-0.09c0.16,0.05,0.24,0.17,0.22,0.36
			c-0.02,0.29,0.01,0.6-0.03,0.88c-0.04,0.26-0.07,0.53-0.21,0.77c-0.02,0.04-0.05,0.09-0.05,0.14c-0.01,0.35-0.21,0.61-0.34,0.91
			c-0.06,0.14-0.13,0.28-0.2,0.42c-0.17,0.34-0.37,0.67-0.5,1.03c-0.12,0.33-0.27,0.62-0.45,0.91c-0.01,0.02-0.02,0.06-0.02,0.09
			c0.04,0.24-0.17,0.39-0.21,0.6c-0.04,0.18-0.16,0.35-0.25,0.51c-0.09,0.17-0.15,0.34-0.17,0.53c-0.01,0.11-0.09,0.21-0.15,0.32
			c-0.13,0.25-0.26,0.51-0.39,0.76c-0.02,0.04-0.05,0.09-0.05,0.13c0,0.25-0.16,0.42-0.25,0.62c-0.09,0.19-0.17,0.39-0.22,0.6
			c-0.03,0.12-0.06,0.21-0.13,0.32c-0.18,0.3-0.33,0.64-0.5,0.95c-0.07,0.13-0.17,0.26-0.25,0.39c-0.02,0.03-0.05,0.07-0.05,0.11
			c0.02,0.21-0.14,0.34-0.21,0.5c-0.1,0.22-0.21,0.44-0.25,0.69c-0.02,0.17-0.13,0.32-0.2,0.48c-0.02,0.04-0.06,0.08-0.07,0.12
			c-0.14,0.51-0.36,0.98-0.57,1.45c-0.13,0.3-0.24,0.6-0.37,0.89c-0.07,0.15-0.17,0.29-0.26,0.44c-0.02,0.03-0.03,0.08-0.03,0.11
			c-0.01,0.23-0.13,0.41-0.26,0.59c-0.06,0.08-0.08,0.19-0.12,0.29c-0.12,0.27-0.35,0.52-0.19,0.89c0.05-0.01,0.11-0.02,0.16-0.04
			c0.34-0.18,0.63-0.43,0.95-0.65c0.41-0.28,0.83-0.54,1.18-0.89c0.29-0.28,0.58-0.56,0.86-0.84c0.21-0.21,0.45-0.36,0.72-0.46
			c0.17-0.06,0.32-0.18,0.53-0.15c0.04,0.01,0.08-0.05,0.12-0.07c0.16-0.11,0.32-0.23,0.49-0.32c0.08-0.04,0.19-0.05,0.29-0.05
			c0.33,0.02,0.65,0.05,0.98,0.07c0.1,0.01,0.19,0.02,0.26,0.12c0.07,0.1,0.17,0.17,0.26,0.25c0.11,0.1,0.15,0.22,0.14,0.37
			c-0.02,0.46,0.04,0.92-0.13,1.36c-0.04,0.11-0.13,0.21-0.17,0.32c-0.16,0.38-0.28,0.77-0.46,1.14c-0.13,0.28-0.29,0.54-0.32,0.85
			c0,0.04-0.04,0.07-0.06,0.1c-0.11,0.15-0.23,0.3-0.23,0.51c0,0.04-0.05,0.08-0.07,0.12c-0.08,0.12-0.08,0.12-0.01,0.33
			c0.19-0.19,0.37-0.36,0.54-0.54c0.28-0.29,0.46-0.66,0.77-0.92c0.14-0.12,0.31-0.22,0.38-0.38c0.12-0.25,0.31-0.41,0.49-0.59
			c0.23-0.21,0.43-0.44,0.64-0.68c0.16-0.18,0.32-0.37,0.43-0.58c0.13-0.26,0.3-0.43,0.6-0.5c0.23-0.05,0.47-0.12,0.64-0.29
			c0.12-0.12,0.26-0.1,0.4-0.09c0.21,0.02,0.4-0.01,0.56-0.17c0.16-0.17,0.36-0.13,0.56-0.06c0.08,0.03,0.2,0.08,0.25,0.05
			c0.21-0.13,0.35-0.06,0.43,0.03c0.11,0.27,0.18,0.46,0.26,0.65c0.32-0.01,0.61,0.06,0.92-0.07c0.26-0.11,0.56-0.11,0.85-0.17
			c0.14-0.03,0.28-0.08,0.41-0.13c0.39-0.17,0.78-0.36,1.17-0.52c0.2-0.08,0.43-0.1,0.64-0.15c0.09-0.02,0.17-0.08,0.26-0.1
			c0.14-0.03,0.28-0.06,0.41-0.06c0.46,0.01,0.92,0.04,1.38,0.07c0.24,0.01,0.4,0.15,0.48,0.36c0.05,0.13,0.12,0.24,0.2,0.38
			c-0.08,0.26-0.18,0.57-0.28,0.91c-0.3-0.04-0.47,0.2-0.68,0.37c-0.23,0.19-0.41,0.43-0.67,0.59c-0.14,0.08-0.21,0.29-0.36,0.4
			c-0.16,0.13-0.34,0.26-0.44,0.44c-0.09,0.17-0.22,0.29-0.33,0.43c-0.27,0.35-0.54,0.71-0.8,1.08c-0.17,0.24-0.3,0.53-0.51,0.74
			c-0.36,0.36-0.58,0.81-0.86,1.23c-0.32,0.47-0.65,0.94-0.93,1.44c-0.14,0.25-0.24,0.52-0.4,0.77c-0.12,0.19-0.14,0.44-0.17,0.68
			c-0.04,0.26-0.01,0.53-0.13,0.77c-0.05,0.11,0.06,0.41,0.16,0.45c0.07,0.03,0.2,0.02,0.25-0.03c0.46-0.49,0.95-0.96,1.35-1.5
			c0.33-0.46,0.77-0.8,1.13-1.22c0.02-0.03,0.09-0.03,0.1-0.06c0.1-0.4,0.45-0.58,0.71-0.85c0.33-0.35,0.66-0.7,1-1.05
			c0.37-0.37,0.7-0.77,1.1-1.1c0.1-0.08,0.23-0.12,0.32-0.2c0.15-0.13,0.37-0.16,0.44-0.39c0.04-0.12,0.19-0.17,0.31-0.25
			c0.45-0.31,0.9-0.62,1.3-1.01c0.03-0.03,0.08-0.1,0.1-0.09c0.22,0.06,0.37-0.11,0.55-0.15c0.17-0.04,0.33-0.17,0.48-0.27
			c0.19-0.13,0.37-0.28,0.55-0.43c0.06-0.05,0.11-0.11,0.16-0.16c0.04-0.04,0.09-0.09,0.14-0.11c0.18-0.06,0.36-0.15,0.54-0.15
			c0.34,0,0.64-0.12,0.93-0.26c0.07-0.03,0.16-0.02,0.24-0.02c0.29,0.01,0.57,0.01,0.86,0.04c0.35,0.04,0.7,0.11,1.05,0.17
			c0.06,0.01,0.11,0.06,0.16,0.09c0.07,0.03,0.14,0.1,0.2,0.08c0.19-0.04,0.3,0.09,0.41,0.2c0.21,0.2,0.4,0.41,0.6,0.62
			c0.26,0.26,0.56,0.38,0.91,0.32c0.09-0.01,0.18-0.01,0.27-0.01c0.16,0.01,0.32,0.16,0.34,0.32c0.04,0.35,0.04,0.69-0.01,1.03
			c-0.03,0.16-0.09,0.32-0.15,0.47c-0.08,0.23-0.18,0.46-0.26,0.69c-0.06,0.19-0.11,0.38-0.15,0.58c-0.05,0.26-0.13,0.5-0.28,0.71
			c-0.03,0.04-0.03,0.09-0.04,0.14c-0.08,0.28-0.17,0.56-0.25,0.86c0.05,0.01,0.13,0.06,0.15,0.04c0.13-0.12,0.3-0.24,0.36-0.39
			c0.06-0.15,0.16-0.24,0.25-0.35c0.17-0.22,0.39-0.41,0.52-0.65c0.16-0.3,0.4-0.51,0.65-0.72c0.08-0.06,0.17-0.1,0.27-0.16
			c-0.02-0.16,0.12-0.26,0.23-0.36c0.21-0.21,0.46-0.39,0.61-0.64c0.19-0.3,0.44-0.52,0.7-0.75c0.05-0.04,0.11-0.07,0.16-0.11
			c0.03-0.02,0.09-0.03,0.1-0.05c0.14-0.33,0.44-0.46,0.74-0.61c0.2-0.1,0.35-0.24,0.38-0.43c0.17-0.11,0.31-0.19,0.45-0.28
			c0.31-0.2,0.61-0.41,0.98-0.52c0.31-0.09,0.6-0.24,0.9-0.36c0.07-0.03,0.16-0.03,0.24-0.04c0.12-0.02,0.24,0.01,0.33-0.11
			c0.02-0.03,0.09-0.04,0.14-0.04c0.54,0.02,1.08,0.04,1.62,0.06c0.04,0,0.08,0.02,0.06,0.02c0.2,0.28,0.38,0.51,0.53,0.76
			c0.09,0.14,0.17,0.3,0.18,0.45c0.02,0.21,0.11,0.32,0.31,0.37c0,0.19,0.06,0.39-0.01,0.53c-0.12,0.23-0.07,0.5-0.24,0.71
			c-0.03,0.03-0.02,0.09-0.04,0.16c0.13,0.08,0.2,0.1,0.32-0.04c0.17-0.2,0.37-0.4,0.65-0.47c0.03-0.01,0.06-0.02,0.07-0.05
			c0.16-0.27,0.45-0.37,0.71-0.5c0.24-0.12,0.51-0.19,0.74-0.32c0.24-0.14,0.52-0.15,0.74-0.28c0.31-0.18,0.67-0.2,0.99-0.36
			c0.08-0.04,0.18-0.04,0.27-0.04c0.2,0,0.41,0.02,0.61,0.01c0.23-0.01,0.46-0.07,0.69-0.07c0.37-0.01,0.73,0.01,1.1,0.01
			c0.13,0.16,0.31,0.13,0.48,0.16c0.02,0,0.04,0.01,0.05,0.03c0.25,0.26,0.5,0.53,0.74,0.79c-0.13,0.18-0.15,0.38-0.08,0.55
			c0.17,0.39,0.11,0.79,0.12,1.18c0.01,0.32,0,0.63-0.05,0.95c-0.03,0.23-0.13,0.46-0.19,0.68c-0.02,0.06-0.04,0.11-0.05,0.17
			c-0.01,0.2-0.05,0.39-0.16,0.57c-0.18,0.33-0.21,0.72-0.32,1.09c-0.04,0.15-0.1,0.3-0.14,0.44c-0.09,0.26-0.18,0.52-0.26,0.79
			c-0.06,0.2-0.07,0.41-0.01,0.69c0.32-0.34,0.62-0.64,0.89-0.95c0.24-0.29,0.47-0.58,0.8-0.79c0.05-0.03,0.1-0.07,0.14-0.11
			c0.25-0.27,0.5-0.54,0.74-0.81c0.07-0.08,0.13-0.17,0.19-0.26c0.28-0.46,0.69-0.8,1.05-1.19c0.09-0.1,0.17-0.21,0.25-0.32
			c0.04-0.05,0.09-0.1,0.14-0.14c0.04-0.03,0.1-0.05,0.12-0.09c0.08-0.26,0.32-0.38,0.48-0.57c0.25-0.28,0.5-0.57,0.73-0.86
			c0.09-0.11,0.15-0.26,0.19-0.4c0.11-0.39,0.45-0.59,0.69-0.87c0.3-0.01,0.53-0.18,0.8-0.28c0.31-0.12,0.66-0.13,1-0.15
			c0.33-0.02,0.67,0.01,1.01,0.04c0.24,0.02,0.42,0.18,0.58,0.35c0.02,0.02,0.03,0.08,0.03,0.11c-0.01,0.28,0.03,0.58-0.17,0.81
			c-0.13,0.15-0.15,0.33-0.12,0.51c0.04,0.25-0.1,0.45-0.21,0.63c-0.1,0.18-0.18,0.39-0.21,0.57c-0.04,0.26-0.16,0.46-0.27,0.68
			c-0.02,0.04-0.06,0.09-0.05,0.13c0.03,0.32-0.14,0.56-0.28,0.82c-0.03,0.06-0.02,0.14-0.04,0.21c-0.03,0.1-0.07,0.2-0.1,0.3
			c-0.01,0.04-0.05,0.07-0.05,0.1c0.02,0.28-0.15,0.47-0.26,0.7c-0.03,0.07-0.03,0.16-0.05,0.23c-0.02,0.09-0.05,0.17-0.08,0.25
			c-0.02,0.08-0.05,0.15-0.06,0.23c-0.01,0.13-0.03,0.23-0.11,0.35c-0.09,0.12-0.05,0.34-0.08,0.59c0.15-0.1,0.24-0.14,0.31-0.21
			c0.45-0.44,0.91-0.87,1.34-1.33c0.23-0.24,0.41-0.53,0.66-0.76c0.29-0.28,0.61-0.54,0.88-0.83c0.45-0.48,1.02-0.83,1.45-1.33
			c0.09-0.11,0.13-0.28,0.33-0.28c0.03,0,0.06-0.07,0.07-0.12c0.01-0.09,0.08-0.12,0.15-0.17c0.13-0.1,0.22-0.24,0.33-0.35
			c0.36-0.36,0.72-0.72,1.15-0.98c0.33-0.2,0.58-0.5,0.89-0.72c0.12-0.08,0.16-0.26,0.24-0.4c0.03-0.05,0.05-0.11,0.08-0.16
			c0.14-0.22,0.31-0.37,0.61-0.31c0.16,0.03,0.33-0.01,0.47-0.13c0.14-0.11,0.32-0.13,0.51-0.14c0.59-0.04,1.18,0.06,1.78,0.09
			c0.02,0.25,0.09,0.48-0.07,0.69c-0.02,0.02-0.03,0.06-0.03,0.08c0.04,0.36-0.13,0.67-0.19,1c-0.03,0.17-0.13,0.33-0.2,0.49
			c-0.03,0.06-0.07,0.12-0.08,0.19c-0.06,0.27-0.09,0.56-0.16,0.83c-0.05,0.17-0.15,0.31-0.23,0.47c-0.03,0.07-0.05,0.15-0.07,0.23
			c-0.04,0.13-0.07,0.27-0.11,0.4c-0.02,0.06-0.05,0.11-0.05,0.17c0,0.32-0.14,0.59-0.27,0.87c-0.09,0.2-0.18,0.43-0.17,0.65
			c0.01,0.27-0.13,0.47-0.25,0.67c-0.07,0.12-0.05,0.19-0.05,0.3c0.12,0.03,0.21,0.04,0.28-0.07c0.14-0.24,0.38-0.39,0.58-0.57
			c0.32-0.27,0.63-0.56,0.95-0.84c0.6-0.53,1.2-1.07,1.82-1.59c0.22-0.19,0.47-0.36,0.73-0.49c0.42-0.21,0.76-0.53,1.09-0.84
			c0.03-0.03,0.07-0.07,0.11-0.08c0.34-0.09,0.65-0.26,0.92-0.48c0.27-0.22,0.57-0.4,0.86-0.59c0.31-0.19,0.57-0.46,0.85-0.7
			c0.18-0.15,0.4-0.26,0.46-0.52c0.23-0.04,0.36-0.23,0.54-0.34c0.15-0.09,0.29-0.18,0.42-0.28c0.13-0.1,0.2-0.21,0.23-0.39
			c0.03-0.21,0.11-0.41,0.21-0.59c0.04-0.09,0.15-0.17,0.25-0.19c0.34-0.07,0.69-0.14,0.99-0.31c0.19-0.11,0.38-0.11,0.59-0.1
			c0.14,0.01,0.29,0.02,0.43,0.02c0.09,0,0.18-0.02,0.26-0.05c0.25-0.13,0.49-0.15,0.73,0.05c0.14,0.12,0.32,0.18,0.51,0.19
			c0.22,0.01,0.45,0.03,0.63,0.26c0.02,0.1,0.02,0.24-0.09,0.35c-0.11,0.11-0.09,0.26-0.03,0.37c0.07,0.12,0.1,0.25,0.15,0.35
			c0.13,0.24,0.3,0.47,0.48,0.68c0.28,0.32,0.57,0.62,0.74,1.02c0.06,0.13,0.18,0.24,0.25,0.37c0.15,0.26,0.27,0.53,0.37,0.82
			c0.06,0.17,0.11,0.34,0.12,0.53c0.06,0.04,0.13,0.07,0.21,0.12c0.05-0.07,0.09-0.13,0.13-0.18c0.2,0.04,0.33,1.51,0.17,1.91
			c-0.1-0.05-0.12-0.13-0.12-0.22c0-0.15,0-0.31,0.01-0.46c0.01-0.15-0.05-0.25-0.22-0.34c-0.01,0.19-0.03,0.34-0.03,0.5
			c0,0.39,0.01,0.78,0.02,1.16c0,0.06-0.01,0.13,0.02,0.18c0.14,0.23,0.06,0.42-0.03,0.64c-0.08,0.19-0.1,0.41-0.18,0.6
			c-0.09,0.23-0.21,0.44-0.33,0.65c-0.14,0.24-0.33,0.44-0.44,0.7c-0.06,0.15-0.18,0.28-0.28,0.41c-0.11,0.13-0.22,0.26-0.34,0.39
			c-0.27,0.27-0.56,0.52-0.8,0.82c-0.2,0.25-0.49,0.45-0.76,0.63c-0.46,0.32-0.96,0.58-1.51,0.74c-0.39,0.11-0.78,0.18-1.19,0.16
			c-0.03,0-0.07-0.01-0.09,0.01c-0.24,0.16-0.48,0.1-0.73-0.01c-0.08,0.11-0.13,0.22-0.27,0.26
			C175.17,32.5,175.14,32.64,175.09,32.74C175.08,32.74,175.09,32.74,175.09,32.74z M124.75,27.3c0.15-0.17,0.33-0.32,0.45-0.5
			c0.18-0.28,0.36-0.55,0.64-0.75c0.1-0.07,0.2-0.14,0.19-0.3c0-0.07,0.09-0.15,0.15-0.21c0.17-0.16,0.37-0.3,0.51-0.49
			c0.16-0.2,0.31-0.39,0.51-0.56c0.11-0.09,0.18-0.23,0.24-0.36c0.06-0.15-0.02-0.23-0.19-0.22c-0.07,0-0.14,0.02-0.19,0.06
			c-0.12,0.1-0.24,0.2-0.34,0.31c-0.39,0.42-0.8,0.83-1.14,1.3c-0.07,0.09-0.11,0.2-0.18,0.3c-0.15,0.22-0.28,0.47-0.48,0.63
			c-0.15,0.12-0.1,0.24-0.13,0.37c-0.02,0.13-0.23,0.19-0.11,0.37C124.69,27.26,124.7,27.26,124.75,27.3z M173.96,31.41
			c0.14,0.05,0.26,0.07,0.37-0.03C174.16,31.18,174.16,31.18,173.96,31.41z"/>
		<path d="M3.1,5.49c-0.11-0.19-0.21-0.34-0.29-0.5c-0.05-0.1-0.09-0.21-0.09-0.31c0-0.53-0.01-1.06,0.02-1.59
			c0.01-0.19,0.1-0.4,0.29-0.5c0.2-0.11,0.42-0.2,0.63-0.28C3.76,2.27,3.88,2.3,4.04,2.3C3.94,2.42,3.88,2.5,3.79,2.6
			C4.01,2.67,4.21,2.72,4.3,2.92C4.54,2.94,4.77,3.1,5.02,2.95c0.1-0.07,0.21-0.11,0.33-0.17C5.5,2.9,5.5,3.08,5.46,3.22
			c-0.08,0.33,0.14,0.5,0.31,0.7c0.03,0.03,0.1,0.05,0.14,0.04C6.25,3.87,6.44,4.12,6.65,4.3c0.14,0.12,0.33,0.16,0.47,0.04
			c0.13-0.1,0.23-0.23,0.39-0.39C7.56,3.97,7.66,4,7.76,4.04C7.95,4.11,8.13,4.2,8.32,4.25C8.56,4.3,8.77,4.4,8.97,4.55
			c0.13,0.09,0.3,0.13,0.45,0.17C9.56,4.74,9.59,4.88,9.75,4.9c0.22,0.02,0.42,0.15,0.63,0.23c0.08,0.03,0.16,0.04,0.23,0.06
			c0.1,0.03,0.21,0.06,0.31,0.1c0.03,0.01,0.06,0.02,0.09,0.03c0.52,0.06,1.04,0.12,1.56,0.18c0.29,0.03,0.58,0.07,0.88,0.1
			c0.08,0.01,0.16,0.02,0.24,0.02c1.44,0,2.88,0.02,4.32,0.01c0.35,0,0.72-0.04,1.05-0.16c0.25-0.08,0.49-0.1,0.73-0.15
			c0.21-0.04,0.4-0.16,0.61-0.24c0.05-0.02,0.1-0.04,0.15-0.04c0.32,0.01,0.6-0.12,0.86-0.28c0.11-0.07,0.29,0,0.36-0.17
			c0.41-0.1,0.68-0.36,0.93-0.68c0.29-0.36,0.6-0.7,0.89-1.06c0.2-0.25,0.48-0.45,0.72-0.67c0.29-0.27,0.6-0.53,0.88-0.82
			c0.27-0.28,0.62-0.43,0.97-0.57c0.09-0.04,0.17-0.09,0.26-0.13c0.05-0.02,0.11-0.04,0.17-0.04c0.13-0.01,0.26,0,0.36,0
			c0.16,0.22,0.29,0.4,0.43,0.58c0.35-0.26,0.35-0.3-0.02-0.65c0.06-0.11,0.12-0.24,0.18-0.37c0.16,0,0.31,0.01,0.47,0
			c0.16-0.01,0.35,0.07,0.46-0.13C28.47,0,28.57,0,28.63,0C28.9,0,29.18,0,29.46,0c0.08,0,0.16,0.03,0.23,0.06
			c0.11,0.04,0.21,0.09,0.37,0.16c0-0.01,0.01,0.04,0.04,0.08c0.28,0.35,0.19,0.72,0.06,1.09c-0.03,0.08-0.07,0.16-0.06,0.23
			c0.02,0.15-0.08,0.23-0.16,0.3c-0.42,0.29-0.69,0.73-1.02,1.11c-0.11,0.13-0.26,0.18-0.37,0.28c-0.34,0.32-0.7,0.61-1.07,0.9
			c-0.18,0.15-0.42,0.23-0.58,0.4c-0.16,0.18-0.39,0.26-0.54,0.42c-0.31,0.31-0.68,0.53-1,0.82c-0.19,0.17-0.36,0.35-0.55,0.52
			c-0.13,0.12-0.28,0.23-0.4,0.36c-0.31,0.33-0.64,0.65-0.91,1.02c-0.29,0.4-0.67,0.71-0.95,1.11c-0.4,0.58-0.93,1.06-1.27,1.68
			c-0.16,0.28-0.4,0.49-0.58,0.75c-0.2,0.3-0.47,0.55-0.67,0.85c-0.24,0.35-0.48,0.7-0.73,1.05c-0.08,0.11-0.16,0.23-0.25,0.32
			c-0.15,0.14-0.33,0.25-0.48,0.39c-0.15,0.15-0.29,0.3-0.4,0.5c-0.14,0.26-0.37,0.48-0.58,0.71c-0.15,0.16-0.36,0.27-0.48,0.48
			c-0.09,0.16-0.3,0.25-0.45,0.38c-0.14,0.12-0.32,0.22-0.4,0.38c-0.2,0.38-0.54,0.64-0.81,0.96c-0.35,0.41-0.78,0.75-1.06,1.21
			c-0.3,0.48-0.73,0.87-1.04,1.34c-0.13,0.2-0.34,0.36-0.49,0.55c-0.12,0.14-0.18,0.33-0.35,0.43c-0.1,0.4-0.52,0.56-0.7,0.91
			c-0.03,0.06-0.1,0.1-0.16,0.14c-0.03,0.02-0.09,0.04-0.09,0.06c-0.02,0.27-0.27,0.37-0.41,0.55c-0.06,0.09-0.14,0.17-0.17,0.27
			c-0.09,0.33-0.42,0.48-0.58,0.76c-0.07,0.13-0.2,0.23-0.25,0.39c-0.04,0.13-0.19,0.22-0.28,0.33c-0.09,0.12-0.2,0.25-0.26,0.39
			c-0.09,0.23-0.29,0.37-0.43,0.56C9.12,25.3,9.05,25.37,9,25.46c-0.08,0.13-0.04,0.27,0.07,0.4c0.21,0.25,0.41,0.49,0.71,0.65
			c0.15,0.08,0.24,0.25,0.38,0.37c0.26,0.22,0.53,0.45,0.82,0.63c0.12,0.08,0.32,0.06,0.48,0.06c0.16,0.01,0.33-0.03,0.49-0.02
			c0.3,0.02,0.53-0.15,0.8-0.23c0.19-0.06,0.37-0.16,0.56-0.24c0.2-0.08,0.39-0.16,0.56-0.3c0.19-0.16,0.42-0.26,0.63-0.39
			C14.75,26.2,15,26,15.27,25.82c0.18-0.12,0.4-0.18,0.54-0.38c0.13-0.18,0.33-0.31,0.51-0.45c0.25-0.19,0.39-0.46,0.61-0.68
			c0.29-0.28,0.55-0.57,0.84-0.85c0.39-0.38,0.8-0.74,1.17-1.13c0.14-0.15,0.23-0.36,0.34-0.54c0.05-0.07,0.09-0.15,0.13-0.23
			c0.22-0.36,0.47-0.69,0.79-0.96c0.13-0.11,0.25-0.21,0.36-0.3c0.26-0.08,0.52-0.16,0.77-0.24c0.03-0.01,0.06-0.05,0.08-0.08
			c0.27-0.3,0.59-0.48,0.99-0.54c0.08-0.01,0.16-0.08,0.22-0.14c0.14-0.14,0.25-0.16,0.42-0.06c0.22,0.13,0.46,0.25,0.66,0.41
			c0.13,0.11,0.21,0.28,0.28,0.44c0.04,0.1,0.01,0.23,0.13,0.32c0.04,0.03,0.02,0.13,0.02,0.2c0,0.29-0.01,0.59,0.01,0.88
			c0.01,0.23-0.09,0.4-0.23,0.56c-0.24,0.25-0.47,0.5-0.7,0.76c-0.06,0.07-0.09,0.17-0.13,0.26c-0.04,0.09-0.07,0.19-0.13,0.26
			c-0.22,0.24-0.37,0.51-0.48,0.82c-0.04,0.11-0.1,0.22-0.15,0.32c-0.12,0.24-0.14,0.5-0.16,0.77c-0.01,0.19-0.07,0.39-0.18,0.54
			c-0.1,0.13-0.1,0.25-0.11,0.39c-0.02,0.4-0.02,0.79-0.09,1.18c-0.05,0.27,0,0.6,0.12,0.85c0.1,0.21,0.24,0.47,0.52,0.54
			c0.1,0.02,0.22,0.04,0.32,0.02c0.28-0.06,0.57-0.12,0.84-0.22c0.16-0.06,0.3-0.18,0.45-0.27c0.19-0.11,0.39-0.22,0.57-0.34
			c0.12-0.08,0.23-0.19,0.35-0.28c0.23-0.17,0.46-0.32,0.68-0.49c0.29-0.24,0.53-0.54,0.86-0.76c0.13-0.09,0.22-0.25,0.33-0.38
			c0.27-0.3,0.54-0.6,0.82-0.89c0.21-0.22,0.41-0.46,0.65-0.63c0.26-0.18,0.48-0.41,0.71-0.62c0.23-0.21,0.45-0.43,0.68-0.64
			c0.23-0.22,0.46-0.45,0.69-0.67c0.35-0.33,0.72-0.65,1.03-1.01c0.43-0.49,0.96-0.91,1.25-1.51c0.02-0.04,0.06-0.09,0.1-0.12
			c0.41-0.31,0.78-0.67,1.28-0.83c0.16-0.05,0.28-0.21,0.42-0.32c0.03-0.02,0.06-0.09,0.07-0.09c0.36,0.07,0.65-0.25,1.01-0.2
			c0.11,0.02,0.69,0.28,0.73,0.37c0.06,0.15,0.14,0.31,0.15,0.47c0.02,0.3,0.01,0.61,0,0.92c0,0.06,0.02,0.16-0.01,0.18
			c-0.28,0.17-0.14,0.56-0.39,0.74c-0.02,0.02-0.03,0.05-0.06,0.07c-0.34,0.25-0.53,0.61-0.73,0.97c-0.08,0.14-0.17,0.28-0.25,0.42
			c-0.02,0.03-0.04,0.07-0.04,0.11c-0.03,0.31-0.14,0.59-0.29,0.86c-0.01,0.02-0.01,0.04-0.01,0.06c0.03,0.26-0.17,0.43-0.26,0.63
			c-0.08,0.19-0.13,0.39-0.23,0.57c-0.21,0.39-0.1,0.81-0.15,1.22c-0.02,0.15-0.06,0.3-0.09,0.44c-0.02,0.1-0.05,0.2-0.06,0.29
			c-0.02,0.21-0.03,0.43-0.03,0.64c0,0.12,0.03,0.23,0.05,0.37c0.25,0.02,0.45,0,0.63-0.2c0.32-0.36,0.68-0.68,1.01-1.04
			c0.17-0.18,0.31-0.4,0.46-0.6c0.09-0.12,0.18-0.23,0.27-0.35c0.16-0.21,0.32-0.43,0.47-0.65c0.21-0.29,0.41-0.59,0.6-0.89
			c0.13-0.2,0.23-0.43,0.35-0.63c0.15-0.24,0.21-0.52,0.39-0.74c0.04-0.05,0.04-0.13,0.05-0.2c0.01-0.21,0.02-0.43,0-0.64
			c-0.02-0.18,0.1-0.27,0.22-0.32c0.2-0.09,0.41-0.16,0.57-0.3c0.16-0.14,0.31-0.3,0.47-0.45c0.08-0.07,0.18-0.13,0.25-0.21
			c0.11-0.13,0.25-0.16,0.41-0.16c0.08,0,0.17-0.06,0.25-0.07c0.22-0.03,0.44-0.05,0.66-0.07c0.18,0.24,0.54,0.27,0.68,0.55
			c0.01,0.02,0.04,0.04,0.06,0.06c0.42,0.45,0.42,0.45,1.05,0.45c0.14,0,0.29,0,0.43,0c0.12,0,0.24,0.02,0.34-0.09
			c0.03-0.04,0.11-0.03,0.17-0.05c0.08-0.03,0.16-0.06,0.24-0.09c0.04-0.02,0.07-0.04,0.11-0.05c0.23-0.06,0.47-0.08,0.68-0.18
			c0.16-0.07,0.32-0.14,0.49-0.2c0.33-0.13,0.65-0.26,0.97-0.4c0.25-0.11,0.5-0.24,0.74-0.36c0.31-0.15,0.62-0.3,0.95-0.4
			c0.17-0.05,0.34-0.12,0.5-0.21c0.2-0.12,0.4-0.2,0.64-0.14c0.07,0.02,0.16-0.01,0.23-0.04c0.22-0.08,0.41-0.09,0.63,0.03
			c0.2,0.11,0.37,0.22,0.51,0.38c0.13,0.15,0.22,0.29,0.14,0.51c-0.06,0.16-0.06,0.34-0.05,0.51c0.04,0.55-0.15,0.98-0.63,1.27
			c-0.5,0.31-0.83,0.79-1.16,1.25c-0.14,0.19-0.27,0.38-0.42,0.57c-0.09,0.12-0.12,0.28-0.22,0.4c-0.12,0.14-0.19,0.32-0.27,0.48
			c-0.06,0.13-0.11,0.26-0.17,0.39c-0.09,0.19-0.17,0.39-0.29,0.56c-0.04,0.05-0.03,0.14-0.03,0.21c-0.01,0.09,0.01,0.19-0.11,0.23
			c-0.02,0.01-0.05,0.04-0.05,0.07c-0.07,0.34-0.13,0.68-0.2,1.02c-0.04,0.22-0.16,0.42-0.11,0.65c0.01,0.06,0.01,0.12,0.02,0.19
			c0.22,0.06,0.37,0.03,0.53-0.14c0.56-0.57,1.16-1.1,1.71-1.67c0.4-0.41,0.77-0.85,1.21-1.21c0.21-0.17,0.43-0.32,0.64-0.49
			c0.3-0.24,0.58-0.49,0.88-0.72c0.2-0.16,0.42-0.3,0.64-0.43c0.44-0.26,0.9-0.46,1.25-0.85c0.17-0.19,0.41-0.31,0.66-0.39
			c0.13-0.04,0.27-0.09,0.38-0.16c0.3-0.2,0.62-0.31,0.98-0.28c0.09,0.01,0.15-0.03,0.23-0.1c0.15-0.13,0.34-0.22,0.52-0.32
			c0.04-0.02,0.1,0.01,0.15,0.02c0.2,0.03,0.4,0.06,0.6,0.09c0.31,0.04,0.59,0.15,0.88,0.27c0.17,0.07,0.32,0.23,0.54,0.2
			c0.05-0.01,0.11,0.03,0.16,0.06c0.13,0.08,0.26,0.17,0.38,0.26c0.08,0.07,0.2,0.15,0.22,0.24c0.05,0.24,0.23,0.38,0.37,0.54
			c0.06,0.07,0.1,0.15,0.15,0.22c0.08,0.1,0.15,0.22,0.31,0.2c0.32-0.05,0.46,0.21,0.56,0.41c0.17,0.32,0.26,0.69,0.46,1
			c0.02,0.02,0.01,0.06,0.02,0.09c0.01,0.14,0.02,0.24,0.13,0.37c0.12,0.15,0.13,0.39,0.18,0.59c0.03,0.12,0.06,0.23,0.1,0.34
			c0.01,0.04,0.05,0.08,0.04,0.11c-0.04,0.31,0.15,0.57,0.17,0.87c0.01,0.13,0.11,0.25,0.11,0.37c0.01,0.25,0.13,0.46,0.2,0.68
			c0.05,0.18,0.2,0.33,0.26,0.52c0.08,0.25,0.23,0.46,0.32,0.69c0.1,0.24,0.25,0.35,0.5,0.32c0.08-0.01,0.16,0,0.24,0
			c0.05,0.14,0.07,0.25-0.06,0.34c-0.31,0.23-0.42,0.54-0.36,0.92c0.02,0.14,0,0.28,0,0.45c-0.26,0-0.48,0-0.72,0
			c-0.07,0.18-0.12,0.35-0.21,0.5c-0.06,0.09-0.16,0.18-0.26,0.23c-0.29,0.13-0.55,0.3-0.78,0.53c-0.04,0.04-0.11,0.07-0.17,0.1
			c-0.04,0.02-0.1,0.01-0.11,0.03c-0.06,0.17-0.2,0.14-0.33,0.14c-0.16,0-0.3-0.03-0.46-0.12c-0.59-0.32-0.99-0.81-1.41-1.33
			c-0.33-0.41-0.48-0.9-0.72-1.35c-0.04-0.08-0.09-0.16-0.16-0.22c-0.1-0.08-0.21-0.09-0.31,0.03c-0.38,0.43-0.82,0.79-1.28,1.13
			c-0.18,0.13-0.38,0.25-0.6,0.35c-0.25,0.11-0.5,0.27-0.68,0.49c-0.03,0.04-0.07,0.08-0.11,0.09c-0.35,0.08-0.65,0.27-0.98,0.4
			c-0.22,0.09-0.47,0.12-0.7,0.15c-0.1,0.02-0.2,0-0.3-0.01c-0.16-0.02-0.29-0.07-0.38-0.24c-0.13-0.23-0.21-0.49-0.42-0.68
			c-0.03-0.03-0.05-0.08-0.08-0.08c-0.32-0.02-0.41-0.34-0.64-0.48c-0.02-0.01-0.04-0.05-0.05-0.07c-0.06-0.21-0.06-0.45-0.17-0.63
			c-0.14-0.23-0.06-0.52-0.26-0.72c-0.04-0.04-0.02-0.14-0.02-0.21c0-0.25,0-0.51,0-0.76c-0.15-0.05-0.24-0.06-0.34,0.07
			c-0.14,0.17-0.31,0.31-0.47,0.45c-0.35,0.31-0.68,0.64-1.06,0.92c-0.15,0.11-0.31,0.21-0.46,0.31c-0.22,0.14-0.41,0.3-0.61,0.47
			c-0.22,0.18-0.48,0.33-0.73,0.47c-0.19,0.11-0.4,0.2-0.61,0.29c-0.04,0.02-0.1,0.03-0.15,0.03c-0.31-0.01-0.56,0.15-0.84,0.26
			c-0.32,0.13-0.67,0.27-1.03,0.17c-0.33-0.09-0.65-0.21-0.86-0.51c-0.05-0.07-0.1-0.16-0.17-0.2c-0.13-0.07-0.14-0.17-0.13-0.28
			c0.02-0.28-0.14-0.49-0.21-0.74c-0.03-0.09-0.08-0.19-0.09-0.28c-0.02-0.16-0.05-0.31-0.1-0.46c-0.07-0.2-0.02-0.44,0-0.66
			c0.01-0.13,0.02-0.24-0.02-0.37c-0.05-0.2-0.08-0.43,0.05-0.65c0.07-0.12,0.08-0.3,0.06-0.44c-0.04-0.31,0.14-0.56,0.22-0.83
			c0.03-0.09,0.07-0.18,0.1-0.27c0.03-0.08,0.05-0.17,0.09-0.24c0.11-0.22,0.07-0.45,0.07-0.71c-0.13,0.01-0.24-0.01-0.34,0.02
			c-0.2,0.06-0.39,0.16-0.59,0.23c-0.07,0.03-0.16,0.02-0.24,0.03c-0.19,0.03-0.37,0.04-0.56,0.11c-0.18,0.07-0.41,0.11-0.6-0.06
			c-0.04-0.04-0.13-0.04-0.2-0.04c-0.12-0.01-0.25,0.02-0.37,0c-0.49-0.1-0.7,0.21-0.9,0.57c-0.08,0.15-0.18,0.29-0.3,0.4
			c-0.12,0.11-0.14,0.25-0.23,0.37c-0.2,0.27-0.4,0.53-0.61,0.79c-0.35,0.43-0.67,0.88-1.05,1.29c-0.38,0.42-0.72,0.89-1.26,1.15
			c-0.21,0.1-0.38,0.27-0.53,0.46c-0.14,0.17-0.34,0.29-0.52,0.42c-0.37,0.25-0.76,0.48-1.19,0.64c-0.15,0.06-0.28,0.19-0.43,0.26
			c-0.18,0.08-0.38,0.14-0.57,0.2c-0.16,0.06-0.34,0.1-0.48,0.19c-0.28,0.17-0.59,0.21-0.9,0.25c-0.25,0.03-0.51,0.02-0.76,0
			c-0.19-0.01-0.35-0.07-0.49-0.25c-0.2-0.25-0.38-0.49-0.44-0.82c-0.04-0.18-0.09-0.38-0.2-0.53c-0.09-0.14-0.09-0.26-0.09-0.4
			c0-0.21,0.06-0.45-0.01-0.64c-0.13-0.31-0.1-0.58,0.01-0.87c0.04-0.1,0.02-0.22,0.02-0.33c0-0.18,0.05-0.33,0.19-0.46
			c0.17-0.16,0.1-0.37,0-0.57c-0.04,0.09-0.08,0.18-0.14,0.32c-0.08-0.23-0.1-0.46-0.31-0.56c-0.07,0.04-0.13,0.08-0.21,0.12
			c-0.01,0.08-0.02,0.16-0.03,0.26c-0.27-0.05-0.23,0.3-0.45,0.34c-0.03,0.01-0.07,0.04-0.09,0.07c-0.4,0.63-0.93,1.13-1.44,1.66
			c-0.33,0.33-0.67,0.66-1.06,0.92c-0.28,0.18-0.46,0.48-0.75,0.62c-0.11,0.05-0.24,0.07-0.41,0.11c-0.05,0.08-0.12,0.2-0.2,0.32
			c-0.02,0.04-0.07,0.06-0.11,0.08c-0.04,0.02-0.13,0.02-0.14,0.05c-0.09,0.26-0.34,0.34-0.53,0.47c-0.21,0.14-0.41,0.28-0.63,0.38
			c-0.21,0.09-0.43,0.13-0.65,0.2c-0.22,0.08-0.44,0.17-0.67,0.24c-0.08,0.03-0.16,0.04-0.24,0.04c-0.53,0.01-1.06,0.03-1.58-0.12
			c-0.01,0-0.02-0.01-0.03-0.01c-0.55,0.05-0.99-0.26-1.41-0.52c-0.35-0.22-0.64-0.55-0.84-0.93c-0.18-0.35-0.39-0.69-0.55-1.05
			c-0.11-0.25-0.26-0.5-0.22-0.8c0.02-0.18-0.01-0.37,0.01-0.55c0.03-0.24-0.07-0.45-0.14-0.66c-0.03-0.09-0.15-0.14-0.25-0.23
			c-0.07,0.37-0.38,0.51-0.59,0.74c-0.08,0.09-0.19,0.16-0.33,0.19c-0.15,0.04-0.28,0.15-0.39,0.29c-0.14,0.17-0.26,0.38-0.47,0.48
			c-0.04,0.02-0.06,0.07-0.1,0.11c-0.04,0.05-0.07,0.11-0.12,0.13c-0.2,0.08-0.41,0.12-0.61,0.21c-0.14,0.06-0.28,0.15-0.39,0.25
			c-0.13,0.13-0.23,0.29-0.34,0.44c-0.15-0.12-0.32,0.02-0.42,0.09c-0.17,0.12-0.37,0.17-0.54,0.27c-0.28,0.16-0.57,0.29-0.86,0.43
			c-0.05,0.03-0.12,0.04-0.18,0.04c-0.57,0-1.14,0.02-1.71-0.01c-0.2-0.01-0.4-0.13-0.6-0.2c-0.04-0.02-0.08-0.08-0.12-0.08
			c-0.35,0.03-0.57-0.25-0.85-0.38c-0.16-0.07-0.31-0.16-0.46-0.26c-0.06-0.04-0.11-0.1-0.17-0.16c-0.26-0.28-0.56-0.53-0.78-0.84
			c-0.19-0.27-0.43-0.5-0.66-0.73c-0.09-0.09-0.22-0.17-0.34-0.21c-0.22-0.07-0.4,0.02-0.57,0.18c-0.27,0.26-0.52,0.55-0.83,0.77
			c-0.42,0.32-0.78,0.7-1.15,1.07c-0.1,0.1-0.51,0.33-0.65,0.37c-0.05,0.02-0.11,0.04-0.15,0.08c-0.19,0.2-0.43,0.32-0.63,0.52
			c-0.21,0.21-0.49,0.31-0.8,0.43C0.9,32.7,0.85,32.6,0.86,32.5c0.02-0.21-0.08-0.33-0.25-0.43c-0.08-0.05-0.14-0.16-0.2-0.25
			c-0.1-0.15-0.16-0.35-0.42-0.37c0.01-0.12,0.02-0.23,0.03-0.34c0.02-0.12,0.04-0.24,0.08-0.35c0.06-0.17,0.14-0.34,0.22-0.51
			c0.02-0.04,0.08-0.08,0.07-0.12c-0.04-0.41,0.2-0.78,0.18-1.19c-0.01-0.12,0.04-0.18,0.12-0.26c0.36-0.34,0.73-0.67,1.07-1.03
			c0.21-0.22,0.46-0.4,0.71-0.56c0.35-0.24,0.66-0.53,1-0.77c0.38-0.26,0.76-0.53,1.05-0.9c0.21-0.26,0.4-0.54,0.6-0.81
			c0.11-0.15,0.23-0.29,0.34-0.43c0.31-0.41,0.64-0.81,0.93-1.24c0.15-0.22,0.33-0.4,0.49-0.6c0.09-0.12,0.16-0.26,0.23-0.39
			c0.05-0.08,0.09-0.15,0.14-0.22c0.24-0.31,0.44-0.64,0.66-0.96c0.23-0.34,0.51-0.66,0.77-0.98c0.17-0.22,0.39-0.41,0.51-0.65
			c0.1-0.2,0.29-0.3,0.41-0.46c0.12-0.16,0.29-0.3,0.43-0.45c0.13-0.14,0.22-0.31,0.37-0.45c0.3-0.29,0.56-0.63,0.84-0.94
			c0.15-0.16,0.32-0.3,0.48-0.45c0.04-0.03,0.06-0.07,0.1-0.11c0.35-0.4,0.7-0.8,1.05-1.2c0.15-0.17,0.3-0.32,0.46-0.48
			c0.04-0.04,0.09-0.08,0.12-0.13c0.34-0.64,0.9-1.09,1.39-1.59c0.18-0.18,0.37-0.37,0.49-0.62c0.07-0.16,0.25-0.27,0.37-0.4
			c0.25-0.26,0.53-0.5,0.74-0.79c0.28-0.38,0.59-0.73,0.93-1.06c0.11-0.11,0.16-0.27,0.23-0.42c0.04-0.08,0.06-0.17,0.1-0.28
			c-0.18-0.05-0.34-0.07-0.53,0.04c-0.14,0.09-0.32,0.12-0.48,0.15c-0.2,0.04-0.4,0.05-0.6,0.06c-0.12,0-0.27,0.02-0.35-0.04
			c-0.17-0.11-0.34-0.1-0.53-0.11c-0.28-0.01-0.56,0.03-0.82-0.03c-0.64-0.14-1.28-0.11-1.92-0.12c-0.04,0-0.09,0.01-0.12-0.01
			c-0.29-0.22-0.63-0.13-0.95-0.15c-0.17-0.01-0.36,0.03-0.52-0.02c-0.53-0.16-1.07-0.1-1.6-0.13c-0.06,0-0.14,0-0.17-0.04
			c-0.13-0.13-0.3-0.11-0.46-0.13C8.55,8.8,8.46,8.73,8.37,8.69c-0.22-0.1-0.42-0.23-0.65-0.28c-0.3-0.07-0.54-0.25-0.81-0.37
			C6.65,7.93,6.3,7.91,6.16,7.57c-0.14,0-0.26-0.1-0.38-0.11C5.61,7.45,5.55,7.32,5.46,7.23C5.33,7.1,5.23,6.95,5.11,6.82
			C4.95,6.66,4.79,6.51,4.63,6.36C4.56,6.31,4.48,6.27,4.39,6.23C4.14,6.11,3.95,5.93,3.8,5.7C3.68,5.52,3.54,5.42,3.31,5.5
			C3.24,5.53,3.14,5.49,3.1,5.49z M31.59,27.24c0.11-0.07,0.29-0.42,0.31-0.55c0.02-0.2-0.04-0.41,0.11-0.6
			c0.08-0.11,0.08-0.32-0.03-0.47c-0.05,0.12-0.05,0.25-0.1,0.36C31.68,26.38,31.58,26.8,31.59,27.24c-0.02,0.01-0.07,0-0.08,0.02
			c-0.09,0.14-0.08,0.38,0.06,0.59C31.58,27.61,31.59,27.42,31.59,27.24z M18.32,29.18c0.11-0.34,0.14-0.68,0.33-0.99
			c0.2-0.33,0.15-0.71,0.14-1.11c-0.1,0.01-0.21-0.01-0.24,0.03c-0.07,0.09-0.18,0.15-0.18,0.3c0.01,0.19,0.05,0.41-0.03,0.57
			c-0.17,0.35-0.1,0.72-0.17,1.07C18.15,29.14,18.2,29.2,18.32,29.18z M56.3,26.07c-0.38-0.12-0.57-0.08-0.67,0.15
			c-0.16,0.36-0.42,0.69-0.33,1.15c0.05-0.02,0.12-0.03,0.16-0.06c0.26-0.21,0.37-0.53,0.58-0.78C56.15,26.4,56.21,26.23,56.3,26.07
			z M19.3,26.81c0.01,0.11,0.01,0.2,0.02,0.32c0.11-0.05,0.17-0.08,0.24-0.11C19.58,26.84,19.53,26.75,19.3,26.81z M44.07,25.25
			c0.02,0.16,0.03,0.29,0.04,0.46C44.37,25.39,44.37,25.36,44.07,25.25z M61.94,29.61c0.13-0.01,0.21-0.07,0.18-0.19
			c-0.01-0.03-0.13-0.08-0.17-0.06C61.82,29.43,61.88,29.52,61.94,29.61z M41.9,23.25c0.15,0,0.24,0,0.33,0
			c0-0.04,0.01-0.09-0.01-0.11C42.13,23.07,42.04,23.09,41.9,23.25z M44.73,25.25c0.15-0.19,0.15-0.19,0-0.34
			C44.67,25.03,44.66,25.13,44.73,25.25z M61.97,28.94c-0.02-0.01-0.05-0.01-0.07-0.02c-0.02,0.08-0.05,0.16-0.09,0.29
			C61.99,29.14,61.98,29.04,61.97,28.94z M60.23,31.72c0.02-0.01,0.05-0.01,0.07-0.02c0.01-0.07,0.05-0.16-0.12-0.2
			C60.2,31.59,60.21,31.66,60.23,31.72z"/>
		<path d="M125.87,14.43c-0.18,0.07-0.34,0-0.46-0.17c-0.15-0.21-0.35-0.33-0.63-0.31c-0.06,0.09-0.07,0.16,0.02,0.25
			c0.11,0.12,0.22,0.25,0.31,0.38c0.03,0.05,0.01,0.14,0.02,0.21c-0.24,0.08-0.39,0-0.52-0.18c-0.18-0.26-0.38-0.48-0.68-0.61
			c-0.17-0.07-0.33-0.09-0.51-0.03c-0.06,0.02-0.13,0.01-0.23,0.02c0,0.13,0,0.27-0.01,0.41c-0.01,0.18-0.05,0.21-0.23,0.21
			c-0.15,0-0.3-0.01-0.45,0.01c-0.22,0.02-0.39-0.09-0.55-0.19c-0.21-0.12-0.43-0.23-0.61-0.39c-0.12-0.1-0.23-0.2-0.38-0.33
			c0,0,0-0.05,0.02-0.1c0.05-0.15,0.03-0.28-0.09-0.41c-0.05-0.05-0.08-0.15-0.09-0.23c-0.01-0.11,0-0.23,0-0.34
			c0-0.12,0.02-0.22,0.15-0.28c0.11-0.05,0.12-0.16,0.12-0.27c0-0.19,0-0.39,0-0.57c0.16-0.09,0.31-0.17,0.47-0.25
			c0.19-0.1,0.35-0.26,0.59-0.22c0.06,0.01,0.14-0.06,0.19-0.12c0.16-0.18,0.37-0.15,0.52-0.07c0.14,0.07,0.26,0.08,0.39,0.08
			c0.19,0.01,0.37-0.02,0.56,0.08c0.11,0.06,0.3,0.03,0.43-0.02c0.16-0.06,0.26,0.01,0.36,0.09c0.1,0.08,0.21,0.17,0.25,0.28
			c0.11,0.26,0.35,0.42,0.49,0.64c0.09,0.14,0.23,0.24,0.3,0.38c0.06,0.12,0.09,0.28,0.2,0.34c0.15,0.08,0.06,0.28,0.21,0.34
			c0.02,0.01,0.02,0.07,0.02,0.1c0,0.24,0,0.48,0,0.71c0,0.04-0.01,0.09-0.02,0.13C125.99,14.11,125.94,14.24,125.87,14.43z
			 M123.5,13.32c-0.08,0.2-0.08,0.21,0.02,0.43c0.1-0.04,0.2-0.08,0.3-0.11C123.83,13.4,123.64,13.39,123.5,13.32z M123.94,12.89
			c-0.1,0.01-0.14,0.01-0.18,0.03c-0.05,0.03-0.1,0.07-0.14,0.11c-0.02,0.03-0.03,0.09-0.02,0.12c0.01,0.03,0.07,0.07,0.1,0.06
			c0.07-0.01,0.17-0.03,0.21-0.08C123.95,13.09,123.93,12.99,123.94,12.89z"/>
		<path d="M29.14,13.82c-0.21,0.18-0.43,0.38-0.67,0.56c-0.12,0.09-0.26,0.13-0.39,0.21c-0.2,0.13-0.39,0.27-0.59,0.4
			c-0.14,0.1-0.28,0.19-0.47,0.14c-0.04-0.01-0.1,0-0.15,0.02c-0.22,0.07-0.42,0.03-0.61-0.12c0-0.25-0.1-0.5-0.01-0.76
			c0.05-0.16-0.05-0.27-0.15-0.37c-0.31-0.32-0.34-0.45-0.17-0.88c0.03-0.07,0.03-0.14,0.05-0.21c0.24-0.14,0.47-0.28,0.66-0.49
			c0.16-0.17,0.4-0.26,0.65-0.32c0.17-0.04,0.34-0.13,0.5-0.22c0.11-0.06,0.51-0.13,0.57-0.05c0.08,0.13,0.21,0.1,0.3,0.16
			c0.16,0.1,0.3,0.24,0.36,0.43c0.05,0.15,0.13,0.3,0.21,0.44c0.11,0.19,0.11,0.33-0.05,0.44c-0.11,0.07-0.18,0.14-0.16,0.26
			C29.04,13.57,29.08,13.66,29.14,13.82z"/>
		<path d="M51.74,15.88c0.04-0.16,0.08-0.3,0.13-0.49c-0.14-0.3-0.37-0.63-0.35-1.05c0.01-0.16,0.04-0.31,0.18-0.38
			c0.34-0.19,0.66-0.41,1.06-0.51c0.33-0.08,0.65-0.12,0.98-0.16c0.14-0.01,0.27-0.13,0.39-0.22c0.45-0.32,0.82-0.22,1.11,0.23
			c0.15,0.23,0.18,0.41,0.02,0.63c-0.04,0.06-0.06,0.16-0.06,0.23c0.05,0.43-0.28,0.56-0.57,0.72c-0.32,0.18-0.67,0.32-0.99,0.51
			c-0.11,0.06-0.16,0.22-0.26,0.3c-0.16,0.14-0.34,0.25-0.51,0.37c-0.03,0.02-0.09,0.03-0.12,0.01
			C52.47,15.83,52.11,15.97,51.74,15.88z"/>
		<path d="M4.28,2.18c0.11,0,0.21,0,0.34,0C4.46,2.31,4.46,2.31,4.28,2.18z"/>
		<path d="M175.08,31.19c0.07,0.01,0.17-0.07,0.22,0.13C175.21,31.26,175.15,31.23,175.08,31.19
			C175.09,31.19,175.08,31.19,175.08,31.19z"/>
	</g>
</g>
</svg>
