<?xml version="1.0" encoding="utf-8"?>
<!-- Generator: Adobe Illustrator 28.2.0, SVG Export Plug-In . SVG Version: 6.00 Build 0)  -->
<svg version="1.1" id="Layer_1" xmlns="http://www.w3.org/2000/svg" xmlns:xlink="http://www.w3.org/1999/xlink" x="0px" y="0px"
	 viewBox="0 0 52.88 35" style="enable-background:new 0 0 52.88 35;" xml:space="preserve">
<g>
	<g>
		<path d="M25.92,19.63c0,0.11,0,0.19,0,0.27c0,0.11-0.01,0.23,0.09,0.32c0.02,0.02,0.03,0.04,0.03,0.07
			c0.02,0.31,0.07,0.63-0.03,0.93c-0.03,0.1-0.07,0.21-0.08,0.32c-0.02,0.31-0.03,0.62-0.11,0.93c-0.06,0.22-0.13,0.44-0.19,0.66
			c-0.03,0.1-0.08,0.18-0.13,0.27c-0.17,0.3-0.23,0.66-0.49,0.92c-0.06,0.06-0.04,0.21-0.07,0.35c0.23,0.01,0.42,0.07,0.6-0.09
			c0.17-0.15,0.4-0.23,0.57-0.39c0.01-0.01,0.03-0.01,0.04-0.02c0.41-0.44,0.95-0.73,1.36-1.17c0.16-0.17,0.29-0.36,0.44-0.54
			c0.07-0.08,0.14-0.16,0.21-0.25c0.02-0.02,0.06-0.04,0.07-0.06c0.01-0.18,0.15-0.26,0.27-0.35c0.02-0.01,0.03-0.04,0.04-0.06
			c0.24-0.3,0.5-0.59,0.72-0.9c0.16-0.23,0.4-0.37,0.54-0.59c0.07-0.11,0.16-0.22,0.23-0.34c0.06-0.09,0.13-0.16,0.16-0.27
			c0.03-0.09,0.18-0.17,0.29-0.2c0.22-0.04,0.38-0.16,0.55-0.29c0.2-0.15,0.39-0.35,0.69-0.36c0.17,0,0.34-0.11,0.5-0.16
			c0.01-0.01,0.03-0.03,0.04-0.03c0.39-0.01,0.79-0.08,1.13,0.22c0.09,0.08,0.19,0.16,0.29,0.2c0.11,0.04,0.24,0.07,0.34-0.02
			c0.03-0.02,0.06-0.04,0.09-0.07c0.12,0.17,0.23,0.32,0.32,0.48c0.03,0.06,0.03,0.14,0.03,0.22c0.01,0.22,0.02,0.43,0.08,0.65
			c0.06,0.21,0.06,0.43,0.06,0.65c0.01,0.34,0,0.68,0.01,1.02c0,0.19-0.02,0.39,0.1,0.57c0.01,0.02,0.02,0.05,0.02,0.07
			c-0.03,0.28,0.18,0.46,0.32,0.66c0.01,0.02,0.05,0.03,0.06,0.05c0.05,0.09,0.07,0.21,0.2,0.23c0.17,0.02,0.34,0.06,0.5-0.03
			c0.04-0.02,0.09-0.05,0.13-0.05c0.28,0.01,0.52-0.11,0.74-0.26c0.25-0.16,0.53-0.31,0.73-0.53c0.27-0.3,0.59-0.55,0.87-0.84
			c0.2-0.2,0.42-0.38,0.62-0.57c0.08-0.08,0.13-0.19,0.22-0.27c0.15-0.14,0.32-0.24,0.46-0.39c0.14-0.15,0.34-0.24,0.39-0.47
			c0.01-0.06,0.09-0.11,0.14-0.14c0.38-0.23,0.62-0.61,0.94-0.9c0.22-0.2,0.45-0.39,0.67-0.59c0.11-0.1,0.2-0.22,0.3-0.32
			c0.13-0.14,0.27-0.27,0.41-0.41c0.06-0.07,0.11-0.14,0.17-0.21c0.08-0.09,0.16-0.18,0.23-0.28c0.08-0.1,0.13-0.23,0.22-0.32
			c0.22-0.22,0.35-0.5,0.57-0.71c0.13-0.13,0.21-0.32,0.32-0.48c0.12-0.19,0.24-0.38,0.36-0.57c0.21-0.33,0.41-0.67,0.64-0.99
			c0.22-0.3,0.43-0.62,0.7-0.88c0.07-0.07,0.12-0.16,0.18-0.24c0.15-0.17,0.33-0.32,0.46-0.51c0.18-0.28,0.43-0.49,0.6-0.78
			c0.1-0.18,0.3-0.29,0.41-0.46c0.2-0.3,0.48-0.52,0.66-0.83c0.12-0.19,0.33-0.32,0.47-0.5c0.21-0.28,0.46-0.52,0.65-0.82
			c0.1-0.16,0.27-0.28,0.4-0.42c0.11-0.12,0.23-0.22,0.3-0.37c0.05-0.09,0.17-0.16,0.28-0.2c0.17-0.06,0.34-0.08,0.52-0.12
			c0.09-0.02,0.17-0.03,0.26-0.05c0.05-0.01,0.09-0.04,0.14-0.04c0.22,0.02,0.42,0,0.59-0.15c0.03-0.03,0.1-0.01,0.15,0
			c0.15,0.02,0.29,0.05,0.43-0.05c0.11-0.08,0.28-0.09,0.43-0.11c0.14-0.02,0.24,0.04,0.29,0.19c-0.04,0.08-0.09,0.16-0.17,0.25
			C52.44,8.39,52.18,8.69,52,9.05c-0.04,0.08-0.1,0.16-0.14,0.24c-0.09,0.16-0.18,0.33-0.26,0.5c-0.07,0.13-0.12,0.28-0.21,0.4
			c-0.19,0.25-0.38,0.49-0.51,0.78c-0.04,0.08-0.11,0.14-0.15,0.23c-0.05,0.1-0.08,0.21-0.11,0.31c-0.02,0.04-0.02,0.1-0.05,0.13
			c-0.16,0.25-0.33,0.49-0.49,0.73c-0.24,0.37-0.46,0.74-0.71,1.11c-0.14,0.22-0.3,0.42-0.45,0.63c-0.16,0.23-0.34,0.44-0.46,0.69
			c-0.07,0.14-0.16,0.26-0.25,0.38c-0.03,0.04-0.05,0.09-0.05,0.13c-0.01,0.32-0.2,0.55-0.37,0.8c-0.08,0.12-0.13,0.26-0.2,0.39
			c-0.04,0.08-0.1,0.15-0.14,0.23c-0.16,0.26-0.35,0.49-0.45,0.78c-0.01,0.04-0.06,0.07-0.1,0.1c-0.17,0.16-0.25,0.38-0.41,0.54
			c-0.13,0.13-0.26,0.26-0.4,0.38c-0.11,0.1-0.19,0.2-0.17,0.37c0,0.08-0.02,0.15-0.04,0.26c-0.07-0.04-0.1-0.07-0.16-0.1
			c-0.1,0.1-0.2,0.2-0.3,0.3c0.11,0.16,0.26,0.22,0.4,0.16c0.15-0.07,0.3-0.14,0.46-0.2c0.15-0.06,0.32-0.07,0.47-0.14
			c0.13-0.06,0.27-0.08,0.39-0.15c0.16-0.09,0.32-0.08,0.49-0.08c0.2,0,0.41,0.08,0.58-0.07c0.02-0.02,0.06-0.01,0.09-0.01
			c0.31,0.02,0.61,0.03,0.92,0.05c0.13,0.01,0.23,0.06,0.3,0.18c0.08,0.12,0.18,0.23,0.33,0.27c0.19,0.05,0.35,0.28,0.34,0.48
			c0,0.14,0.02,0.29-0.1,0.41c-0.03,0.03-0.03,0.09-0.03,0.14c0,0.11-0.01,0.23-0.1,0.31c-0.02,0.02-0.03,0.05-0.04,0.08
			c-0.05,0.25-0.1,0.5-0.14,0.75c-0.02,0.17-0.12,0.31-0.22,0.43c-0.19,0.23-0.37,0.47-0.51,0.74c-0.02,0.05-0.07,0.08-0.11,0.13
			c-0.18,0.22-0.33,0.45-0.47,0.69c-0.17,0.3-0.46,0.49-0.73,0.69c-0.12,0.09-0.23,0.18-0.35,0.26c-0.08,0.05-0.16,0.1-0.24,0.15
			c-0.1,0.06-0.19,0.13-0.29,0.19c-0.18,0.12-0.36,0.25-0.62,0.12c-0.1,0.05-0.16,0.12-0.21,0.23c-0.04,0.09-0.13,0.18-0.22,0.23
			c-0.18,0.11-0.36,0.2-0.58,0.24c-0.15,0.02-0.28,0.16-0.41,0.25c-0.09,0.06-0.17,0.13-0.29,0.21c-0.01,0.17-0.11,0.33-0.22,0.49
			c-0.04,0.06-0.04,0.15-0.05,0.23c-0.04,0.15-0.07,0.31-0.11,0.46c-0.02,0.07-0.02,0.14-0.04,0.21c-0.03,0.1-0.06,0.21-0.1,0.31
			c-0.01,0.02-0.03,0.04-0.03,0.06c-0.05,0.3-0.1,0.6-0.15,0.89c-0.02,0.09-0.06,0.17-0.08,0.27c-0.03,0.15-0.05,0.3-0.06,0.45
			c-0.01,0.13,0,0.26,0,0.39c0,0.23,0.1,0.37,0.33,0.39c0.15,0.02,0.31,0.03,0.46,0.01c0.12-0.01,0.24-0.06,0.34-0.12
			c0.21-0.13,0.5-0.09,0.65-0.31c0.02-0.03,0.07-0.04,0.11-0.04c0.41-0.09,0.75-0.3,1.08-0.53c0.3-0.21,0.59-0.44,0.89-0.64
			c0.18-0.12,0.35-0.28,0.52-0.41c0.07-0.06,0.15-0.12,0.23-0.15c0.11-0.05,0.19,0.01,0.2,0.14c0,0.1-0.01,0.18-0.09,0.26
			c-0.13,0.12-0.24,0.26-0.35,0.39c-0.07,0.08-0.12,0.18-0.19,0.26c-0.17,0.19-0.35,0.36-0.51,0.56c-0.15,0.18-0.27,0.38-0.41,0.56
			c-0.01,0.02-0.03,0.05-0.05,0.05c-0.21,0.05-0.17,0.23-0.19,0.39c-0.01,0.12-0.06,0.24-0.1,0.36c-0.02,0.06-0.03,0.12-0.04,0.18
			c-0.01,0.08,0,0.16-0.08,0.21c-0.03,0.02-0.05,0.08-0.05,0.12c0.01,0.28-0.2,0.39-0.38,0.48c-0.12,0.07-0.23,0.15-0.34,0.23
			c-0.26,0.21-0.55,0.36-0.89,0.43c-0.13,0.03-0.24,0.11-0.36,0.17c-0.04,0.02-0.08,0.07-0.12,0.06c-0.22-0.02-0.35,0.14-0.53,0.2
			c-0.04,0.01-0.07,0.04-0.11,0.05c-0.25,0.04-0.51,0.06-0.76,0.11c-0.09,0.01-0.17,0.06-0.26,0.09c-0.09,0.02-0.18,0.04-0.27,0.05
			c-0.07,0.01-0.15-0.01-0.28-0.01c0.09,0.09,0.14,0.14,0.2,0.19c0.18-0.1,0.35-0.1,0.54,0.02c0.1,0.06,0.23,0.06,0.36,0.1
			c-0.02,0.05-0.03,0.09-0.05,0.1c-0.13,0.04-0.25,0.11-0.38,0.11c-0.33,0.01-0.67,0.04-0.99-0.04c-0.28-0.07-0.56-0.25-0.68-0.56
			c-0.01-0.03-0.03-0.06-0.05-0.08c-0.17-0.21-0.33-0.43-0.52-0.61c-0.1-0.1-0.13-0.21-0.17-0.32c-0.08-0.2-0.24-0.38-0.23-0.61
			c-0.19-0.16-0.08-0.42-0.23-0.6c-0.05-0.06-0.05-0.16-0.05-0.24c-0.01-0.58-0.05-1.16,0.04-1.74c0.04-0.25,0.13-0.49,0.12-0.75
			c0-0.02,0-0.06,0.02-0.07c0.18-0.15,0.09-0.35,0.11-0.54c-0.18-0.02-0.32,0.06-0.36,0.22c-0.08,0.27-0.22,0.49-0.39,0.71
			c-0.05,0.07-0.06,0.18-0.12,0.25c-0.14,0.19-0.3,0.37-0.44,0.56c-0.01,0.01-0.02,0.03-0.02,0.04c-0.07,0.36-0.34,0.61-0.49,0.92
			c-0.03,0.06-0.06,0.11-0.08,0.17c-0.05,0.21-0.12,0.4-0.24,0.59c-0.07,0.11-0.13,0.23-0.06,0.4c0.06,0.14,0.07,0.31-0.08,0.44
			c-0.13,0.11-0.19,0.28-0.18,0.47c0.03,0.3-0.1,0.55-0.23,0.8c-0.04,0.08-0.07,0.16-0.1,0.24c-0.08-0.03-0.15-0.05-0.22-0.08
			c-0.01-0.04-0.03-0.08-0.04-0.12c-0.04-0.09-0.09-0.16-0.2-0.16c-0.1-0.01-0.14,0.06-0.18,0.13c-0.04,0.07-0.09,0.12-0.14,0.19
			c-0.07,0.1-0.14,0.2-0.22,0.32c-0.19,0.1-0.24-0.19-0.41-0.21c-0.13,0.12-0.28,0.23-0.41,0.36c-0.04,0.05-0.04,0.14-0.08,0.19
			c-0.21,0.26-0.42,0.51-0.64,0.75c-0.09,0.1-0.27,0.12-0.37,0.05c-0.04-0.02-0.07-0.07-0.08-0.11c-0.02-0.08-0.01-0.16-0.02-0.24
			c-0.02-0.1-0.04-0.2-0.07-0.3c-0.01-0.04-0.05-0.08-0.04-0.11c0.02-0.14-0.07-0.22-0.16-0.28c-0.13-0.09-0.16-0.2-0.16-0.33
			c0-0.07,0.01-0.15,0.01-0.22c0-0.09,0.02-0.19-0.01-0.27c-0.06-0.16-0.02-0.31,0-0.47c0.03-0.27,0.15-0.49,0.26-0.72
			c0.08-0.17,0.12-0.36,0.17-0.54c0.03-0.11,0.06-0.2,0.12-0.3c0.16-0.23,0.3-0.48,0.4-0.74c0.05-0.13,0.08-0.26,0.16-0.38
			c0.1-0.15,0.19-0.32,0.27-0.49c0.1-0.19,0.18-0.39,0.28-0.58c0.03-0.07,0.08-0.14,0.12-0.2c0.15-0.23,0.23-0.49,0.41-0.7
			c0.06-0.07,0.06-0.19,0.11-0.28c0.1-0.18,0.24-0.34,0.31-0.53c0.07-0.2,0.21-0.36,0.26-0.56c0.07-0.27,0.25-0.46,0.4-0.68
			c0.06-0.09,0.06-0.17,0.04-0.28c-0.15-0.02-0.27-0.06-0.39,0.08c-0.14,0.17-0.33,0.3-0.5,0.43c-0.2,0.15-0.41,0.31-0.63,0.43
			c-0.15,0.08-0.33,0.11-0.49,0.15c-0.23,0.05-0.46,0.09-0.69,0.14c-0.01,0-0.02,0-0.02,0c-0.38,0.21-0.8,0.02-1.2,0.04
			c-0.31-0.14-0.63-0.25-0.86-0.51c-0.17-0.18-0.36-0.35-0.44-0.59c-0.01-0.03-0.06-0.05-0.09-0.08c-0.23-0.25-0.4-0.52-0.45-0.86
			c-0.01-0.08-0.12-0.14-0.18-0.22c-0.13,0.04-0.19,0.11-0.2,0.24c0,0.05-0.02,0.12-0.05,0.15c-0.23,0.18-0.25,0.5-0.45,0.71
			c-0.09,0.1-0.11,0.26-0.18,0.39c-0.06,0.11-0.13,0.22-0.19,0.33c-0.03,0.06-0.07,0.12-0.1,0.18c-0.15,0.25-0.21,0.55-0.36,0.8
			c-0.15,0.25-0.21,0.55-0.31,0.83c-0.03,0.07-0.09,0.13-0.12,0.2c-0.06,0.19-0.11,0.39-0.17,0.58c-0.04,0.13-0.08,0.26-0.15,0.36
			c-0.15,0.19-0.2,0.41-0.28,0.63c-0.05,0.13-0.08,0.29-0.2,0.41c-0.11,0.12-0.13,0.31-0.19,0.47c-0.05,0.13-0.08,0.28-0.17,0.39
			c-0.23,0.29-0.3,0.63-0.37,0.97c-0.04,0.18-0.15,0.3-0.34,0.3c-0.21,0.01-0.33,0.1-0.37,0.3c-0.03,0.13-0.12,0.18-0.24,0.18
			c-0.14,0-0.27,0-0.41,0.01c-0.04,0-0.08,0.01-0.08,0.01c-0.13,0.24-0.25,0.44-0.36,0.65c-0.11,0.2-0.21,0.41-0.32,0.63
			c-0.29,0.11-0.56-0.03-0.71-0.28c-0.14-0.22-0.31-0.42-0.44-0.65c-0.11-0.21-0.24-0.41-0.22-0.67c0.02-0.27,0.03-0.56-0.12-0.83
			c-0.03-0.05-0.03-0.17,0.01-0.21c0.12-0.12,0.11-0.27,0.11-0.42c0-0.08,0.01-0.13,0.09-0.18c0.18-0.11,0.24-0.32,0.33-0.49
			c0.07-0.14,0.07-0.32,0.16-0.44c0.15-0.22,0.16-0.52,0.36-0.72c0.01-0.19,0.19-0.31,0.18-0.53c0-0.12,0.1-0.24,0.15-0.36
			c0.08-0.17,0.17-0.33,0.25-0.49c0.07-0.13,0.15-0.26,0.19-0.4c0.06-0.2,0.2-0.36,0.23-0.57c0.01-0.08,0.08-0.15,0.12-0.23
			c-0.1-0.06-0.19-0.08-0.27-0.02c-0.1,0.07-0.2,0.15-0.3,0.22c-0.38,0.26-0.72,0.59-1.17,0.74c-0.18,0.06-0.35,0.12-0.5,0.24
			c-0.03,0.03-0.09,0.02-0.14,0.02c-0.14,0.02-0.29-0.01-0.41,0.1c-0.04,0.04-0.14,0.01-0.21,0.02c-0.08,0.01-0.17,0.01-0.22,0.06
			c-0.15,0.16-0.29,0.32-0.35,0.55c-0.05,0.16-0.11,0.31-0.2,0.44c-0.18,0.26-0.32,0.54-0.48,0.82c-0.11,0.19-0.27,0.36-0.37,0.56
			c-0.09,0.2-0.21,0.38-0.34,0.55c-0.21,0.28-0.41,0.58-0.57,0.9c-0.01,0.01-0.01,0.03-0.02,0.04c-0.27,0.14-0.34,0.47-0.59,0.63
			c-0.18,0.12-0.31,0.3-0.54,0.38c-0.2,0.07-0.41,0.18-0.53,0.41c-0.1,0.2-0.31,0.34-0.43,0.54c-0.1,0.17-0.23,0.26-0.4,0.33
			c-0.14,0.06-0.27,0.14-0.41,0.21c-0.01,0-0.01,0.01-0.02,0.01c-0.24,0.04-0.48,0.12-0.72,0.13c-0.28,0.01-0.57,0.02-0.84-0.13
			c-0.04-0.02-0.12-0.02-0.16,0.01c-0.13,0.08-0.22,0-0.29-0.09c-0.23-0.32-0.49-0.6-0.78-0.88c-0.15-0.15-0.3-0.33-0.32-0.56
			c0-0.02,0-0.06-0.01-0.07c-0.16-0.13-0.09-0.32-0.15-0.47c-0.11-0.28-0.1-0.58-0.18-0.85c-0.07-0.25-0.07-0.46-0.02-0.7
			c0.05-0.24,0.04-0.5,0.06-0.75c0.02-0.27,0-0.55,0.11-0.81c0.02-0.05,0.02-0.11,0.02-0.17c-0.02-0.32,0.08-0.62,0.16-0.91
			c0.06-0.22,0.16-0.42,0.24-0.63c0.01-0.02,0.02-0.04,0.02-0.07c0-0.35,0.24-0.58,0.36-0.88c0.05-0.12,0.12-0.23,0.17-0.36
			c0.09-0.24,0.23-0.45,0.34-0.67c0.16-0.31,0.4-0.58,0.6-0.87c0.15-0.22,0.31-0.44,0.46-0.67c0.2-0.29,0.44-0.54,0.66-0.82
			c0.2-0.25,0.41-0.48,0.6-0.74c0.09-0.13,0.23-0.23,0.33-0.36c0.35-0.48,0.86-0.79,1.27-1.21c0.12-0.12,0.28-0.18,0.42-0.29
			c0.11-0.08,0.19-0.2,0.3-0.28c0.25-0.2,0.51-0.39,0.78-0.58c0.07-0.05,0.16-0.08,0.25-0.11c0.26-0.09,0.46-0.27,0.69-0.41
			c0.04-0.02,0.11-0.02,0.16-0.01c0.22,0.01,0.42,0.02,0.63-0.07c0.16-0.06,0.36-0.1,0.56-0.03c0.13,0.04,0.27,0.03,0.41,0.05
			c0.09,0.02,0.2,0.04,0.28,0.09c0.11,0.07,0.21,0.08,0.32,0.05c0.11-0.03,0.22-0.01,0.33,0.02c0.17,0.04,0.34,0.04,0.51,0.06
			C25.66,19.6,25.77,19.61,25.92,19.63z M48.11,13.88c0.17-0.07,0.17-0.07,0.04-0.24C48.13,13.74,48.12,13.82,48.11,13.88
			c-0.07,0.01-0.15,0-0.2,0.09C48.05,14.01,48.05,14.01,48.11,13.88z M18.54,30.39c0.14-0.22,0.41-0.27,0.55-0.48
			c0.18-0.28,0.43-0.52,0.64-0.78c0.27-0.34,0.54-0.68,0.79-1.03c0.23-0.32,0.45-0.65,0.66-0.98c0.09-0.15,0.24-0.3,0.17-0.51
			c-0.05-0.15-0.09-0.31-0.18-0.43c-0.12-0.16-0.17-0.34-0.21-0.5c-0.07-0.28-0.11-0.57-0.28-0.82c-0.02-0.04-0.01-0.11,0.01-0.16
			c0.02-0.06,0.05-0.11,0.08-0.17c-0.08-0.07-0.15-0.09-0.21-0.01c-0.05,0.07-0.09,0.16-0.14,0.24c-0.09,0.14-0.1,0.32-0.17,0.46
			c-0.09,0.17-0.12,0.34-0.12,0.53c-0.01,0.19-0.05,0.35-0.21,0.39c-0.05,0.16-0.07,0.3-0.14,0.4c-0.17,0.21-0.29,0.43-0.33,0.71
			c-0.01,0.05-0.02,0.09-0.05,0.13c-0.1,0.17-0.21,0.34-0.32,0.51c-0.02,0.03-0.02,0.07-0.03,0.11c-0.05,0.21-0.1,0.41-0.16,0.62
			c-0.01,0.02-0.03,0.03-0.04,0.06c-0.03,0.06-0.07,0.12-0.08,0.19c-0.04,0.27-0.18,0.51-0.16,0.79c0,0.04-0.03,0.07-0.04,0.11
			C18.47,29.94,18.45,30.15,18.54,30.39z M44.43,23.06c0.08-0.01,0.17,0,0.19-0.03c0.05-0.13,0.18-0.08,0.27-0.12
			c0-0.1,0-0.2,0-0.33C44.72,22.74,44.38,22.69,44.43,23.06z M33.57,21.42c-0.03,0.02-0.05,0.02-0.05,0.03
			c-0.04,0.2-0.08,0.4-0.1,0.61c0,0.04,0.05,0.09,0.08,0.13c0.03-0.04,0.09-0.07,0.09-0.11c0.02-0.18,0.02-0.37,0.03-0.55
			C33.61,21.49,33.59,21.46,33.57,21.42z M21.72,23.84c-0.17-0.05-0.21,0.1-0.32,0.18C21.69,24.09,21.74,24.06,21.72,23.84z
			 M48.72,20.76c-0.14-0.07-0.28-0.12-0.47-0.04C48.44,20.81,48.58,20.8,48.72,20.76z M47.76,14.03c-0.02,0.07-0.04,0.1-0.04,0.14
			c0,0.02,0.01,0.04,0.01,0.08c0.04,0,0.08,0.01,0.12,0c0.02,0,0.04-0.02,0.06-0.03c-0.01-0.02-0.01-0.04-0.02-0.05
			C47.85,14.13,47.82,14.09,47.76,14.03z M47.29,15.02c0.02,0.02,0.04,0.05,0.06,0.05c0.02,0,0.04-0.02,0.04-0.04
			c0-0.01-0.03-0.04-0.04-0.04C47.33,14.98,47.32,15.01,47.29,15.02z M45.18,19.73c-0.01-0.01-0.01-0.03-0.02-0.04
			c-0.01,0-0.02,0.01-0.04,0.01c0.01,0.02,0.02,0.04,0.02,0.05C45.16,19.75,45.17,19.74,45.18,19.73z"/>
		<path d="M4.26,9.55C4.22,9.58,4.17,9.59,4.14,9.63C4.11,9.68,4.09,9.74,4.08,9.81c-0.05,0.23-0.25,0.35-0.39,0.51
			c-0.07,0.08-0.1,0.15-0.1,0.25c0,0.13-0.01,0.26-0.01,0.39c0.01,0.16-0.06,0.25-0.17,0.34c-0.16,0.12-0.33,0.23-0.42,0.42
			c-0.05,0.12-0.22,0.1-0.28,0.24c-0.09,0.21-0.27,0.34-0.47,0.45c-0.26,0.14-0.48,0.34-0.72,0.51c-0.05,0.03-0.11,0.06-0.17,0.05
			c-0.21-0.02-0.44,0.02-0.63-0.13c-0.03-0.02-0.08-0.03-0.12-0.04c-0.24-0.04-0.36-0.22-0.45-0.42C0.09,12.24,0.06,12.11,0,11.95
			c0.1-0.02,0.21-0.05,0.32-0.08c-0.01-0.04-0.03-0.09-0.04-0.13c-0.07-0.2-0.04-0.25,0.14-0.36c0.04-0.03,0.07-0.08,0.09-0.12
			c0.02-0.04,0.01-0.1,0.02-0.14c0.02-0.08,0.14-0.13,0.21-0.08c0.08,0.05,0.06,0.13,0.02,0.19c-0.05,0.08-0.14,0.13-0.06,0.26
			c0.17-0.06,0.34-0.14,0.54-0.11c0.16,0.02,0.27,0.08,0.37,0.21c0.13,0.17,0.24,0.19,0.4,0.06c0.18-0.15,0.36-0.3,0.54-0.46
			c0.05-0.05,0.11-0.1,0.12-0.17c0.07-0.27,0.12-0.55,0.17-0.83c0-0.02,0-0.03,0-0.05C2.83,10,2.77,9.87,2.77,9.75
			c0-0.12,0.05-0.24,0.07-0.36C2.83,9.38,2.81,9.37,2.79,9.36C2.73,9.43,2.68,9.51,2.61,9.58c-0.04,0.04-0.08,0.1-0.13,0.11
			C2.39,9.72,2.33,9.67,2.32,9.56c0-0.04-0.01-0.09,0.01-0.12c0.14-0.2,0.26-0.43,0.54-0.55C2.89,9.03,2.9,9.15,2.92,9.3
			c0.15-0.13,0.26-0.26,0.4-0.36c0.17-0.13,0.03-0.36,0.18-0.5C3.48,8.43,3.47,8.42,3.46,8.4C3.38,8.43,3.3,8.47,3.18,8.51
			c-0.02-0.1-0.03-0.18-0.05-0.26c-0.03-0.11-0.11-0.16-0.19-0.1C2.81,8.25,2.66,8.32,2.61,8.5C2.6,8.55,2.55,8.59,2.51,8.62
			C2.41,8.72,2.3,8.81,2.2,8.9C2.09,9,1.93,9.02,1.83,8.95C1.75,8.87,1.76,8.73,1.85,8.6c0.31-0.42,0.63-0.85,0.94-1.27
			c0.17-0.24,0.33-0.48,0.5-0.72c0.09-0.12,0.18-0.24,0.28-0.36c0.09-0.11,0.2-0.21,0.3-0.32C4.1,5.65,4.35,5.38,4.56,5.09
			c0.14-0.2,0.33-0.36,0.5-0.53c0.01-0.01,0.02-0.02,0.03-0.04c0.12-0.28,0.37-0.46,0.56-0.67c0.33-0.35,0.66-0.71,1.09-0.97
			c0.11-0.07,0.2-0.16,0.31-0.24c0.5-0.39,1.05-0.72,1.54-1.14c0.33-0.27,0.7-0.49,1.03-0.76c0.1-0.08,0.24-0.01,0.32-0.16
			c0.05-0.08,0.15-0.2,0.31-0.17c0.23-0.16,0.54-0.12,0.78-0.24c0.24-0.12,0.49-0.11,0.74-0.11c0.09,0,0.18-0.05,0.28-0.06
			c0.26-0.04,0.52,0.05,0.7,0.2c0.22,0.17,0.5,0.34,0.51,0.68c0,0.02,0,0.04,0.01,0.05c0.18,0.16,0.1,0.36,0.1,0.55
			c0,0.2,0,0.4,0,0.61c0,0.13,0.02,0.26-0.09,0.36c-0.02,0.02-0.02,0.08-0.03,0.11c-0.05,0.23-0.1,0.47-0.16,0.69
			c-0.03,0.09-0.11,0.16-0.17,0.24c-0.02,0.03-0.06,0.06-0.07,0.09c-0.06,0.19-0.1,0.38-0.17,0.56c-0.05,0.15-0.13,0.29-0.2,0.44
			c-0.01,0.03-0.04,0.05-0.04,0.08c0,0.22-0.16,0.37-0.23,0.55c-0.07,0.16-0.14,0.33-0.21,0.49c-0.05,0.12-0.09,0.26-0.17,0.36
			c-0.15,0.19-0.1,0.44-0.23,0.64c-0.11,0.17-0.17,0.36-0.25,0.55c-0.06,0.16-0.14,0.32-0.16,0.49c-0.02,0.13-0.1,0.2-0.15,0.3
			c-0.06,0.12-0.08,0.25-0.13,0.38c-0.12,0.3-0.18,0.63-0.38,0.89c-0.08,0.1-0.08,0.24-0.15,0.36c-0.13,0.24-0.22,0.51-0.33,0.76
			c-0.02,0.06-0.08,0.1-0.1,0.15c-0.13,0.25-0.23,0.51-0.3,0.79c-0.01,0.04-0.02,0.08-0.04,0.11c-0.1,0.18-0.21,0.34-0.26,0.55
			c-0.05,0.22-0.18,0.41-0.28,0.61C8.99,12.83,8.91,13,8.83,13.17c-0.06,0.15-0.13,0.3-0.19,0.45c-0.04,0.09-0.05,0.19-0.1,0.26
			c-0.12,0.17-0.14,0.38-0.17,0.58c-0.01,0.06-0.07,0.12-0.11,0.18c-0.13,0.19-0.23,0.39-0.27,0.62c-0.02,0.1-0.11,0.18-0.16,0.28
			c-0.09,0.2-0.17,0.41-0.26,0.62c-0.04,0.1-0.11,0.19-0.15,0.29c-0.09,0.25-0.22,0.48-0.28,0.75C7.12,17.35,7,17.49,6.94,17.65
			c-0.07,0.18-0.16,0.37-0.18,0.56c-0.02,0.22-0.12,0.39-0.22,0.57c-0.02,0.03-0.04,0.07-0.05,0.1c-0.06,0.21-0.11,0.43-0.17,0.64
			c-0.04,0.14-0.08,0.3-0.16,0.41c-0.09,0.12-0.12,0.24-0.1,0.38c0.03,0.21-0.12,0.33-0.18,0.5c-0.09,0.23-0.16,0.46-0.24,0.68
			c-0.05,0.15-0.1,0.29-0.17,0.44C5.32,22.3,5.16,22.66,5,23.02c-0.02,0.04-0.02,0.09-0.04,0.14c-0.03,0.09-0.06,0.18-0.09,0.26
			c-0.01,0.04-0.04,0.07-0.04,0.11c-0.05,0.23-0.08,0.45-0.14,0.68c-0.04,0.16-0.1,0.32-0.17,0.46c-0.1,0.21-0.11,0.21,0.11,0.38
			c-0.01-0.3,0.24-0.45,0.35-0.68c0.08-0.17,0.16-0.33,0.25-0.48c0.08-0.14,0.17-0.27,0.25-0.41c0.1-0.17,0.2-0.35,0.3-0.52
			C5.85,22.83,5.91,22.71,6,22.6c0.2-0.26,0.37-0.53,0.46-0.85c0.01-0.04,0.06-0.07,0.09-0.1c0.05-0.05,0.12-0.09,0.14-0.16
			c0.09-0.27,0.33-0.44,0.44-0.7c0.06-0.14,0.13-0.28,0.22-0.41c0.16-0.25,0.34-0.48,0.5-0.73c0.23-0.34,0.52-0.65,0.7-1.02
			c0.01-0.01,0.02-0.03,0.03-0.04c0.2-0.23,0.39-0.46,0.59-0.68c0.02-0.02,0.04-0.05,0.04-0.08c0.02-0.2,0.17-0.31,0.3-0.43
			c0.11-0.1,0.21-0.19,0.26-0.34c0.05-0.14,0.2-0.24,0.32-0.34c0.1-0.09,0.21-0.18,0.33-0.26c0.12-0.09,0.26-0.16,0.38-0.24
			c0.08-0.05,0.14-0.11,0.22-0.17c0.02-0.01,0.03-0.04,0.05-0.05c0.35-0.1,0.7-0.27,1.08-0.03c0.04,0.03,0.09,0.03,0.14,0.05
			c0.12,0.05,0.19,0.18,0.17,0.31c-0.02,0.1-0.05,0.2,0.06,0.29c0.01,0.01,0.02,0.03,0.02,0.04c0.06,0.49,0.28,0.99,0.07,1.48
			c-0.02,0.04-0.03,0.09-0.02,0.14c0.02,0.31-0.09,0.6-0.18,0.88c-0.07,0.22-0.09,0.46-0.22,0.66c-0.11,0.16-0.12,0.39-0.17,0.59
			c-0.02,0.06-0.04,0.12-0.07,0.17c-0.02,0.04-0.05,0.09-0.05,0.13c0,0.31-0.18,0.56-0.24,0.84c-0.06,0.26-0.2,0.5-0.18,0.78
			c0,0.06-0.01,0.14-0.04,0.19c-0.11,0.17-0.09,0.37-0.1,0.56c-0.01,0.14-0.06,0.28-0.09,0.42c-0.01,0.05-0.03,0.11-0.04,0.16
			c-0.01,0.14-0.06,0.25-0.1,0.38c-0.08,0.23-0.21,0.44-0.19,0.71c0.01,0.14-0.01,0.28-0.09,0.41c-0.07,0.11-0.13,0.26-0.13,0.4
			c-0.01,0.26-0.21,0.46-0.19,0.73c0,0.06-0.04,0.12-0.06,0.18c-0.02,0.07-0.06,0.13-0.06,0.2c-0.01,0.13-0.01,0.26-0.11,0.36
			c-0.01,0-0.01,0.01-0.01,0.02c-0.01,0.43-0.23,0.81-0.17,1.25c0,0.01,0.02,0.03,0.05,0.07c0.05-0.03,0.15-0.05,0.16-0.09
			c0.07-0.27,0.3-0.45,0.34-0.73c0-0.04,0.03-0.08,0.05-0.1c0.13-0.1,0.17-0.24,0.22-0.4c0.05-0.19,0.18-0.36,0.27-0.53
			c0.09-0.17,0.16-0.34,0.26-0.49c0.07-0.11,0.13-0.22,0.16-0.36c0.02-0.13,0.11-0.25,0.19-0.37c0.14-0.21,0.26-0.44,0.44-0.63
			c0.08-0.08,0.07-0.23,0.14-0.32c0.11-0.15,0.21-0.32,0.29-0.49c0.16-0.33,0.39-0.61,0.55-0.92c0.16-0.32,0.38-0.59,0.55-0.9
			c0.17-0.31,0.38-0.61,0.55-0.92c0.16-0.3,0.35-0.58,0.54-0.85c0.13-0.18,0.22-0.39,0.34-0.58c0.09-0.14,0.2-0.27,0.29-0.42
			c0.18-0.29,0.4-0.55,0.54-0.88c0.02-0.05,0.09-0.09,0.12-0.14c0.1-0.17,0.2-0.34,0.3-0.51c0.04-0.06,0.08-0.11,0.12-0.17
			c0.09-0.16,0.18-0.32,0.27-0.48c0.1-0.17,0.21-0.34,0.32-0.5c0.13-0.2,0.27-0.39,0.39-0.61c0.12-0.21,0.28-0.4,0.41-0.6
			c0.18-0.28,0.35-0.56,0.53-0.84c0.15-0.23,0.26-0.5,0.45-0.69c0.27-0.27,0.37-0.64,0.63-0.91c0.14-0.15,0.21-0.36,0.32-0.54
			c0.16-0.27,0.34-0.53,0.5-0.8c0.11-0.18,0.21-0.36,0.31-0.54c0.11-0.2,0.21-0.4,0.32-0.59c0.09-0.16,0.22-0.3,0.25-0.49
			c0.01-0.03,0.03-0.05,0.05-0.07c0.16-0.19,0.26-0.41,0.39-0.62c0.16-0.27,0.12-0.53,0.11-0.81c-0.01-0.49-0.02-0.97,0.02-1.45
			c0.02-0.29,0.09-0.58,0.13-0.87c0.02-0.16,0.1-0.31,0.16-0.46c0.09-0.2,0.22-0.38,0.25-0.6c0.02-0.1,0.08-0.2,0.13-0.29
			c0.26-0.48,0.53-0.95,0.86-1.39c0.03-0.04,0.07-0.07,0.08-0.11c0.08-0.19,0.27-0.23,0.43-0.31c0.03-0.02,0.09-0.01,0.11-0.04
			c0.14-0.25,0.45-0.26,0.65-0.43c0.11-0.09,0.29-0.12,0.45-0.13c0.25-0.01,0.43-0.14,0.65-0.22c0.15-0.07,0.37-0.04,0.54-0.01
			c0.09,0.02,0.16,0.14,0.24,0.22c0.11,0.11,0.14,0.25,0.13,0.4c-0.01,0.18,0.05,0.35,0.08,0.52c0.07,0.38,0.15,0.77-0.05,1.13
			c-0.01,0.02-0.02,0.05-0.02,0.07c0.04,0.24-0.11,0.42-0.17,0.64c-0.03,0.12-0.13,0.21-0.19,0.32c-0.11,0.19-0.21,0.38-0.32,0.58
			c-0.01,0.02,0,0.05,0,0.09c0.13,0.06,0.23,0.06,0.37-0.02c0.37-0.21,0.69-0.52,1.14-0.6c0.11-0.02,0.19-0.15,0.3-0.21
			c0.34-0.19,0.63-0.46,1.04-0.55c0.11-0.02,0.19-0.12,0.29-0.18c0.1-0.06,0.2-0.11,0.31-0.15c0.14-0.05,0.29-0.09,0.44-0.14
			c0.09-0.03,0.16-0.1,0.24-0.13c0.23-0.09,0.47-0.17,0.7-0.25c0.03-0.01,0.06-0.05,0.09-0.07c0.2-0.13,0.42-0.23,0.65-0.29
			c0.16-0.04,0.32-0.09,0.46-0.16c0.12-0.06,0.24-0.05,0.37-0.05c0.06,0.11,0.05,0.21-0.04,0.24c-0.19,0.06-0.27,0.25-0.44,0.33
			c-0.09,0.04-0.15,0.14-0.23,0.19C31.3,4.19,31.12,4.5,30.92,4.8c-0.01,0.02-0.03,0.04-0.03,0.07c0.02,0.28-0.22,0.38-0.39,0.51
			c-0.19,0.15-0.33,0.34-0.46,0.54C30.02,5.96,29.99,6,29.96,6.03c-0.16,0.14-0.31,0.29-0.45,0.47c-0.17,0.22-0.36,0.43-0.53,0.64
			c-0.13,0.17-0.27,0.3-0.48,0.37c-0.14,0.04-0.23,0.2-0.37,0.27c-0.22,0.11-0.39,0.29-0.61,0.39C27.24,8.3,27,8.52,26.76,8.7
			c-0.02,0.02-0.04,0.07-0.05,0.07c-0.19-0.01-0.26,0.16-0.38,0.24c-0.45,0.32-0.87,0.67-1.36,0.94c-0.17,0.09-0.35,0.18-0.54,0.21
			c-0.2,0.03-0.37,0.18-0.59,0.15c-0.06-0.01-0.14,0.07-0.18,0.13c-0.08,0.11-0.17,0.23-0.19,0.36c-0.04,0.24-0.17,0.4-0.34,0.54
			c-0.07,0.06-0.1,0.11-0.1,0.2c0,0.16,0,0.32,0,0.49c0,0.11-0.03,0.2-0.12,0.27c-0.06,0.05-0.11,0.11-0.14,0.18
			c-0.05,0.13-0.13,0.21-0.27,0.25c0.03,0.31-0.21,0.49-0.32,0.72c-0.11,0.22-0.25,0.43-0.39,0.64c-0.12,0.18-0.26,0.34-0.38,0.52
			c-0.14,0.21-0.26,0.44-0.42,0.65c-0.17,0.23-0.28,0.5-0.45,0.72c-0.1,0.12-0.18,0.25-0.29,0.36c-0.21,0.24-0.32,0.52-0.41,0.83
			c-0.02,0.07-0.08,0.11-0.11,0.18c-0.1,0.2-0.2,0.39-0.3,0.59c-0.02,0.04-0.05,0.08-0.08,0.11c-0.13,0.17-0.23,0.35-0.33,0.54
			c-0.03,0.06-0.08,0.11-0.12,0.17c-0.18,0.26-0.36,0.52-0.54,0.78c-0.22,0.31-0.47,0.61-0.65,0.95c-0.1,0.2-0.27,0.34-0.35,0.57
			c-0.06,0.18-0.26,0.3-0.34,0.47c-0.13,0.29-0.4,0.48-0.49,0.81c-0.05,0.19-0.21,0.34-0.31,0.51c-0.01,0.02-0.05,0.03-0.05,0.04
			c-0.03,0.39-0.38,0.57-0.52,0.89c-0.07,0.15-0.12,0.3-0.2,0.44c-0.16,0.31-0.34,0.6-0.5,0.91c-0.07,0.13-0.12,0.28-0.19,0.42
			c-0.05,0.11-0.11,0.22-0.17,0.32c-0.15,0.25-0.32,0.49-0.46,0.75c-0.08,0.14-0.12,0.3-0.19,0.44c-0.13,0.23-0.27,0.46-0.41,0.69
			c-0.08,0.14-0.16,0.28-0.24,0.42c-0.14,0.24-0.31,0.47-0.41,0.72c-0.09,0.23-0.23,0.42-0.31,0.65c-0.02,0.04-0.03,0.1-0.06,0.13
			c-0.21,0.2-0.27,0.47-0.37,0.72c-0.02,0.04-0.04,0.08-0.07,0.12c-0.09,0.12-0.19,0.23-0.21,0.39c-0.01,0.05-0.06,0.09-0.08,0.14
			c-0.11,0.19-0.25,0.36-0.32,0.58c-0.03,0.1-0.1,0.19-0.16,0.27c-0.13,0.18-0.25,0.37-0.39,0.54c-0.06,0.07-0.15,0.13-0.24,0.17
			c-0.24,0.12-0.42,0.31-0.57,0.53c-0.18,0.27-0.36,0.55-0.56,0.82c-0.11,0.16-0.22,0.32-0.4,0.41c-0.07,0.03-0.1,0.11-0.16,0.17
			c-0.2,0.19-0.41,0.36-0.73,0.3c-0.15-0.03-0.31-0.01-0.46-0.03c-0.08-0.01-0.17-0.03-0.22-0.08c-0.23-0.19-0.47-0.37-0.55-0.69
			c-0.01-0.03-0.03-0.06-0.05-0.08c-0.2-0.19-0.25-0.44-0.36-0.67c-0.11-0.26-0.16-0.51-0.15-0.78c0-0.03,0-0.07-0.02-0.09
			c-0.14-0.17-0.11-0.37-0.12-0.56c-0.01-0.18,0.03-0.36-0.07-0.52c-0.02-0.03-0.01-0.06-0.01-0.1c0-0.53,0-1.06,0-1.6
			c0-0.13,0-0.26-0.01-0.39c-0.01-0.23-0.04-0.45,0.07-0.66c0.04-0.07,0.02-0.17,0.03-0.26c0.01-0.18,0.01-0.35,0.11-0.51
			c0.05-0.08,0.02-0.22,0.03-0.32c-0.23-0.09-0.33-0.05-0.37,0.15c-0.03,0.14-0.1,0.24-0.18,0.35c-0.09,0.14-0.2,0.26-0.26,0.43
			c-0.06,0.16-0.18,0.31-0.28,0.45c-0.12,0.17-0.26,0.32-0.37,0.49c-0.17,0.28-0.37,0.55-0.57,0.81c-0.16,0.2-0.29,0.42-0.43,0.62
			c-0.19,0.26-0.35,0.54-0.58,0.77c-0.08,0.08-0.15,0.17-0.22,0.27c-0.27,0.35-0.63,0.6-0.99,0.85c-0.22,0.15-0.5,0.17-0.78,0.16
			c-0.26-0.02-0.46-0.13-0.64-0.3c-0.03-0.03-0.09-0.08-0.08-0.11c0.03-0.19-0.15-0.32-0.18-0.49c0-0.03-0.03-0.06-0.05-0.08
			c-0.25-0.26-0.35-0.56-0.34-0.9c0.01-0.57-0.02-1.15,0.04-1.72c0.04-0.39,0.04-0.8,0.2-1.17c0.03-0.06,0.01-0.14,0.03-0.21
			c0.02-0.09,0.04-0.17,0.06-0.25c0.02-0.08,0.05-0.16,0.08-0.24c0.07-0.17,0.14-0.35,0.2-0.52c0.02-0.04,0.06-0.09,0.06-0.13
			c-0.02-0.25,0.11-0.46,0.18-0.69c0.09-0.31,0.23-0.6,0.35-0.9c0.01-0.04,0.02-0.08,0.04-0.11c0.04-0.1,0.07-0.21,0.11-0.31
			c0.01-0.02,0.03-0.04,0.03-0.07c-0.01-0.29,0.17-0.51,0.25-0.76c0.02-0.05,0.03-0.11,0.04-0.16c0.01-0.12,0.03-0.23,0.1-0.34
			c0.04-0.05,0.04-0.14,0.05-0.21c0.04-0.2,0.08-0.4,0.22-0.56c0.02-0.02,0.03-0.06,0.03-0.09c0.01-0.14,0.03-0.27,0.13-0.37
			c-0.03-0.25,0.14-0.45,0.16-0.69c0.01-0.07,0.04-0.13,0.07-0.2c0.02-0.05,0.06-0.1,0.06-0.15c0-0.27,0.13-0.48,0.24-0.7
			c0.07-0.15,0.14-0.31,0.15-0.47c0.02-0.25,0.23-0.43,0.18-0.7c0.15-0.15,0.11-0.38,0.22-0.56c0.09-0.16,0.13-0.35,0.2-0.52
			c0.07-0.18,0.15-0.36,0.22-0.54c0.06-0.16,0.1-0.33,0.18-0.48c0.11-0.21,0.11-0.46,0.27-0.65c-0.02-0.24,0.13-0.39,0.27-0.54
			c0.01-0.01,0.02-0.05,0.02-0.07c0-0.21,0.12-0.37,0.21-0.54c0.08-0.15,0.14-0.31,0.21-0.46c0.05-0.11,0.09-0.24,0.17-0.33
			c0.09-0.1,0.09-0.21,0.11-0.33c0.01-0.09,0.06-0.17,0.09-0.26c0.06-0.16,0.12-0.33,0.18-0.48c0.13-0.31,0.26-0.62,0.42-0.92
			c0.15-0.29,0.32-0.56,0.48-0.85c0.02-0.03,0.04-0.05,0.04-0.08c0-0.17,0.02-0.33,0.15-0.45c0.05-0.05,0.04-0.14,0.09-0.19
			c0.17-0.16,0.2-0.41,0.32-0.6c0.07-0.1,0.1-0.23,0.16-0.33c0.11-0.19,0.23-0.36,0.34-0.55C7.6,9.3,7.71,9.08,7.84,8.88
			c0.1-0.17,0.12-0.36,0.17-0.53C8.06,8.17,8.19,8.02,8.3,7.87c0.1-0.14,0.23-0.26,0.3-0.41c0.1-0.22,0.2-0.44,0.2-0.7
			C8.79,6.43,8.87,6.14,9.03,5.85C9.12,5.68,9.25,5.5,9.23,5.27C9.22,5.13,9.3,4.99,9.37,4.87C9.43,4.75,9.4,4.68,9.3,4.58
			C9.15,4.67,9,4.76,8.87,4.86C8.81,4.91,8.79,5,8.74,5.05c-0.08,0.07-0.19,0.1-0.27,0.18C8.29,5.39,8.12,5.57,7.94,5.74
			C7.93,5.75,7.91,5.76,7.91,5.77C7.86,5.98,7.67,6.04,7.53,6.15C7.37,6.26,7.2,6.37,7.09,6.53C6.78,6.98,6.35,7.31,5.99,7.7
			C5.86,7.84,5.76,8.01,5.65,8.16C5.6,8.23,5.54,8.29,5.48,8.35C5.45,8.37,5.41,8.38,5.4,8.41C5.27,8.71,5,8.9,4.83,9.18
			C4.75,9.31,4.64,9.43,4.54,9.55C4.42,9.69,4.41,9.68,4.26,9.55c0.05-0.02,0.12-0.02,0.09-0.16C4.31,9.47,4.28,9.51,4.26,9.55z
			 M12.75,2.5c0.02-0.02,0.04-0.03,0.06-0.05c-0.02-0.15-0.03-0.3-0.08-0.44c-0.05-0.15-0.18-0.21-0.32-0.19
			c-0.1,0.02-0.16,0.1-0.12,0.19c0.07,0.14,0.16,0.28,0.26,0.4C12.59,2.46,12.68,2.47,12.75,2.5z M3.83,27.47
			c-0.11,0.04-0.09,0.1-0.08,0.16c0,0.01,0.02,0.01,0.05,0.02C3.81,27.59,3.82,27.54,3.83,27.47z M8.87,8.51
			C8.85,8.55,8.84,8.57,8.84,8.59c0,0.01,0.03,0.02,0.05,0.04C8.89,8.61,8.91,8.59,8.9,8.58C8.9,8.56,8.89,8.54,8.87,8.51z
			 M9.74,5.33C9.72,5.32,9.71,5.3,9.69,5.29C9.68,5.3,9.67,5.32,9.67,5.33C9.68,5.35,9.7,5.36,9.71,5.37
			C9.72,5.36,9.73,5.35,9.74,5.33z M3.93,28.18c-0.01-0.01-0.02-0.03-0.03-0.03c-0.01,0-0.02,0.01-0.03,0.02
			c0.01,0.01,0.03,0.03,0.04,0.04C3.92,28.2,3.93,28.19,3.93,28.18z M8.17,33.97c0.01-0.01,0.03-0.01,0.04-0.02
			c0-0.01-0.01-0.03-0.02-0.04c-0.02,0.01-0.03,0.02-0.05,0.03C8.15,33.95,8.16,33.96,8.17,33.97z"/>
		<path d="M0.8,10.52c-0.03,0.01-0.05,0.02-0.07,0.03c-0.01-0.02-0.02-0.04-0.02-0.05c0-0.01,0.03-0.02,0.03-0.02
			C0.76,10.48,0.77,10.5,0.8,10.52z"/>
		<path d="M1.38,10.77C1.34,10.79,1.32,10.8,1.3,10.8c-0.01,0-0.03-0.03-0.03-0.05c0-0.01,0.01-0.02,0.02-0.04
			C1.3,10.72,1.32,10.73,1.38,10.77z"/>
	</g>
</g>
</svg>
